<?xml version="1.0" standalone="no"?>
<!DOCTYPE svg PUBLIC "-//W3C//DTD SVG 1.1//EN" "http://www.w3.org/Graphics/SVG/1.1/DTD/svg11.dtd" >
<svg xmlns="http://www.w3.org/2000/svg" xmlns:xlink="http://www.w3.org/1999/xlink" version="1.1">
<metadata>
Created by FontForge 20170731 at Fri Jul 15 09:18:36 2016
 By Aleksey,,,
Copyright 2016 Alfredo Marco Pradil. All rights reserved.
</metadata>
<defs>
<font id="HKSerif-Regular" horiz-adv-x="0" >
  <font-face 
    font-family="HK Serif"
    font-weight="400"
    font-stretch="normal"
    units-per-em="1000"
    panose-1="0 0 5 0 0 0 0 0 0 0"
    ascent="800"
    descent="-200"
    x-height="439"
    cap-height="683"
    bbox="-738 -227 1142 1023"
    underline-thickness="50"
    underline-position="-150"
    unicode-range="U+0020-FB02"
  />
<missing-glyph horiz-adv-x="950" 
 />
    <glyph glyph-name="fi" unicode="fi" horiz-adv-x="549" 
d="M500 33q10 -3 23 -4v-29h-214v29q23 1 39 6q26 8 26 42v279q-2 16 -4 26t-8 21h-179v-322q0 -29 21.5 -39t65.5 -13v-29h-237v29q38 3 53 11.5t15 36.5v326h-95v36h95v54q0 70 26 127.5t72.5 91.5t105.5 34q82 0 114 -27t32 -73q0 -19 -11.5 -36t-35.5 -17
q-18 0 -34.5 10t-16.5 31v35.5t-12.5 36.5t-41.5 8q-49 0 -82.5 -46t-33.5 -147v-82h149l115 6l7 -7v-355q0 -32 26 -43q10 -4 20 -7z" />
    <glyph glyph-name="fl" unicode="fl" horiz-adv-x="549" 
d="M310 29q35 2 50.5 11.5t15.5 36.5v522l-16 116h-59q-50 0 -84 -46t-34 -147v-83h116v-41h-116v-317q0 -47 74 -52v-29h-224v29q38 3 53 11.5t15 36.5v321h-95v41h95v54q0 68 27 126t74.5 92.5t105.5 34.5q31 0 51 -5.5t45 -15.5l46 20l6 -7v-655q0 -27 19 -39.5t49 -14.5
v-29h-214v29z" />
    <glyph glyph-name="f_f" unicode="ff" horiz-adv-x="580" 
d="M35 29q37 3 52.5 11.5t15.5 36.5v325h-98v37h98v50q0 69 26.5 126.5t73 91t105.5 33.5q52 0 82.5 -18.5t42.5 -46.5q21 34 62.5 52.5t77.5 18.5q40 0 65 -23.5t25 -54.5q0 -15 -12 -31t-31 -16q-16 0 -27.5 9.5t-11.5 27.5v49q-5 8 -23 8q-46 0 -72 -46t-26 -144v-86h115
v-37h-115v-320q0 -27 19 -39t57 -14v-29h-220v30q33 2 48 11t15 36v326h-196v-321q0 -26 19.5 -38t50.5 -14v-30h-218v29zM381 439v53q0 40 15 104q-23 0 -34.5 11t-11.5 40v27q0 14 -8 24.5t-39 10.5q-49 0 -84.5 -46.5t-35.5 -149.5v-74h198z" />
    <glyph glyph-name="f_f_i" unicode="ffi" horiz-adv-x="864" 
d="M799 29v-29h-215v29q24 1 39 6q26 8 26 43v277q-2 31 -11 46h-99v1h-79v-320q0 -27 19 -39t57 -14v-29h-220v30q33 2 48 11t15 36v326h-196v-321q0 -26 19.5 -38t50.5 -14v-30h-218v29q37 3 52.5 11.5t15.5 36.5v325h-98v37h98v50q0 69 26.5 126.5t73 91t105.5 33.5
q52 0 82.5 -18.5t42.5 -46.5q21 34 62.5 52.5t77.5 18.5q40 0 65 -23.5t25 -54.5q0 -15 -12 -31t-31 -16q-16 0 -27.5 9.5t-11.5 27.5v49q-5 8 -23 8q-46 0 -72 -46t-26 -144v-86h148l116 5l6 -7v-353q0 -16 7 -27.5t19 -16.5q23 -10 43 -11zM396 596q-23 0 -34.5 11
t-11.5 40v27q0 14 -8 24.5t-39 10.5q-49 0 -84.5 -46.5t-35.5 -149.5v-74h198v53q0 40 15 104z" />
    <glyph glyph-name="f_f_l" unicode="ffl" horiz-adv-x="826" 
d="M586 29q35 2 51 11t16 38v521l-4 86q-8 31 -69 31q-51 0 -86 -48.5t-35 -151.5v-77h116v-38h-116v-318q0 -27 18.5 -39.5t55.5 -14.5v-29h-224v30q38 2 53.5 10t15.5 38v325h-195v-320q0 -49 70 -53v-30h-218v29q37 3 52.5 11.5t15.5 37.5v324h-98v37h98v50
q0 69 26.5 126.5t73.5 91t107 33.5q52 0 82.5 -19t42.5 -52q3 7 23.5 26t53 35t72.5 16q31 0 53 -6t47 -16l27 21l22 -7v-654q0 -27 19 -40t50 -15v-29h-216v29zM353 650q0 25 -1.5 35t-11 17t-31.5 7q-51 0 -88.5 -46.5t-37.5 -149.5v-74h197v56q0 58 15 101q-42 2 -42 54z
" />
    <glyph glyph-name=".notdef" horiz-adv-x="950" 
 />
    <glyph glyph-name=".null" 
 />
    <glyph glyph-name="nonmarkingreturn" 
 />
    <glyph glyph-name="space" unicode=" " horiz-adv-x="228" 
 />
    <glyph glyph-name="exclam" unicode="!" horiz-adv-x="346" 
d="M229 572q-2 -33 -4 -47l-33 -315h-34l-31 319l-6 55q-5 43 -5 51q0 28 16.5 47.5t42.5 19.5t42.5 -18.5t16.5 -49.5q0 -12 -5 -62zM221 6.5q-19 -18.5 -46 -18.5q-26 0 -44.5 18.5t-18.5 44.5t18.5 45t44.5 19q27 0 46 -19t19 -45t-19 -44.5z" />
    <glyph glyph-name="quotedbl" unicode="&#x22;" horiz-adv-x="372" 
d="M139 637q-21 -107 -32 -214h-29q-10 93 -30 211q-8 40 -8 51q0 23 14 38t38 15q25 0 39.5 -15t14.5 -38q0 -6 -7 -48zM324 633q-19 -96 -32 -210h-27q-12 115 -31 212q-8 38 -8 50q0 23 14 38t39 15t39 -15t14 -38q0 -10 -8 -52z" />
    <glyph glyph-name="numbersign" unicode="#" horiz-adv-x="551" 
d="M363 403v-179h129v-74h-129v-157h-31v157h-113v-157h-31v157h-129v74h129v179h-129v74h129v150h31v-150h113v150h31v-150h129v-74h-129zM332 403h-113v-179h113v179z" />
    <glyph glyph-name="dollar" unicode="$" horiz-adv-x="472" 
d="M385.5 44.5q-48.5 -49.5 -124.5 -54.5v-132h-28v131q-39 1 -72 13.5t-53 29.5l-29 -41h-27v211h25q28 -78 62.5 -123t93.5 -52v238l-70 32q-43 20 -71.5 53.5t-28.5 94.5q0 50 23 87.5t60.5 57t79.5 19.5h7v128h28v-131q26 -5 50 -16t40 -25l28 42h28v-207h-26
q-22 69 -48.5 111.5t-71.5 56.5v-214q25 -10 51 -23q61 -30 91.5 -63.5t30.5 -95.5q0 -78 -48.5 -127.5zM233 366v208h-10q-37 0 -64.5 -18t-27.5 -67q0 -36 16.5 -58.5t51.5 -46.5q12 -8 34 -18zM336 53.5q24 27.5 24 71.5q0 42 -19 72.5t-57 45.5l-23 9v-227q51 1 75 28.5
z" />
    <glyph glyph-name="percent" unicode="%" horiz-adv-x="834" 
d="M195 -81l406 774l37 -20l-408 -774zM342 380.5q-22 -36.5 -57 -56t-75 -19.5q-39 0 -73 19t-54.5 54t-20.5 82t21.5 83.5t56.5 56.5t74 20q38 0 72.5 -19t56 -54t21.5 -82q0 -48 -22 -84.5zM268.5 556q-20.5 33 -56.5 33q-35 0 -55 -33t-20 -92q0 -60 20 -94t55 -34
q34 0 55.5 30.5t21.5 94.5q0 62 -20.5 95zM750.5 62.5q-21.5 -36.5 -57 -56.5t-75.5 -20q-38 0 -72 19t-55 54.5t-21 81.5q0 47 21.5 83.5t57 56.5t74.5 20q38 0 72 -19t55.5 -54t21.5 -82t-21.5 -83.5zM676.5 237q-20.5 33 -55.5 33t-55 -33t-20 -92q0 -60 19.5 -94
t54.5 -34q34 0 55.5 31t21.5 94q0 62 -20.5 95z" />
    <glyph glyph-name="ampersand" unicode="&#x26;" horiz-adv-x="701" 
d="M127 1.5q-40 17.5 -65.5 55.5t-25.5 96q0 64 36.5 115t118.5 108q-37 63 -51 97t-14 66q0 46 22.5 82t60 56t79.5 20q63 0 95 -40.5t32 -92.5q0 -55 -31 -95t-94 -79l152 -215q32 48 53.5 99.5t21.5 79.5q0 12 -6.5 19t-22.5 12.5t-51 13.5v32h271v-32q-56 -6 -82 -12.5
t-43 -25.5q-10 -12 -24 -39.5t-17 -34.5q-24 -49 -40.5 -80t-38.5 -59q35 -45 64.5 -68.5t64.5 -34t88 -12.5v-33h-218l-63 86q-45 -49 -88 -75.5t-99 -26.5q-45 0 -85 17.5zM340.5 479q20.5 33 20.5 79q0 47 -20 72t-53 25q-41 0 -57 -32.5t-16 -63.5q0 -59 59 -143
q46 30 66.5 63zM322 62.5q33 17.5 56 49.5l-168 239q-79 -51 -79 -161q0 -66 32 -105.5t90 -39.5q36 0 69 17.5z" />
    <glyph glyph-name="quotesingle" unicode="'" horiz-adv-x="187" 
d="M139 637q-21 -107 -32 -214h-29q-13 123 -30 210q-7 46 -7 52q0 23 13.5 38t37.5 15q26 0 40 -15t14 -38q0 -6 -7 -48z" />
    <glyph glyph-name="parenleft" unicode="(" horiz-adv-x="348" 
d="M108.5 557.5q62.5 104.5 168.5 190.5l21 -26q-56 -55 -96.5 -110t-68.5 -134.5t-28 -182.5q0 -150 55 -250.5t138 -178.5l-20 -26q-105 83 -168.5 188t-63.5 267q0 158 62.5 262.5z" />
    <glyph glyph-name="parenright" unicode=")" horiz-adv-x="347" 
d="M239.5 28q-63.5 -105 -168.5 -188l-20 26q83 78 138 178.5t55 250.5q0 103 -28 182.5t-68.5 134.5t-96.5 110l21 26q106 -86 168.5 -190.5t62.5 -262.5q0 -162 -63.5 -267z" />
    <glyph glyph-name="asterisk" unicode="*" horiz-adv-x="420" 
d="M363.5 417.5q-9.5 -11.5 -23.5 -11.5q-9 0 -16 4.5t-14 11.5t-12 11l-62 55q-2 2 -5 2q-4 0 -6.5 -3t-1.5 -7l20 -117q3 -19 -8 -27t-25 -8q-13 0 -23.5 7.5t-7.5 27.5l18 118v1q0 6 -4.5 8t-8.5 -2l-62 -55q-13 -14 -21.5 -20.5t-19.5 -6.5q-14 0 -23.5 11.5t-9.5 23.5
q0 9 5 17t14 12l109 42q5 2 5 7q0 4 -6 7l-108 42q-9 4 -14 12t-5 17q0 12 10 23.5t23 11.5q10 0 19 -6.5t23 -20.5l61 -55q3 -3 6 -3t5.5 3t1.5 7l-18 118q-3 18 7 26.5t24 8.5t25 -8t8 -27l-20 -117v-1q0 -6 4.5 -8.5t8.5 1.5l62 55q4 3 11 10.5t14.5 12t16.5 4.5
q14 0 23.5 -11.5t9.5 -24.5q0 -10 -5 -17t-12 -9l-111 -44q-5 -2 -5 -7q0 -4 5 -7l111 -42q7 -3 12 -11t5 -17q0 -13 -9.5 -24.5z" />
    <glyph glyph-name="plus" unicode="+" horiz-adv-x="552" 
d="M302 19h-52v215h-203v52h203v215h52v-215h203v-52h-203v-215z" />
    <glyph glyph-name="comma" unicode="," horiz-adv-x="237" 
d="M145 -99q-42 -49 -91 -73l-20 33q52 29 79 60.5t27 78.5h-26q-34 0 -50 17.5t-16 40.5q0 24 16 41t46 17q36 0 56.5 -27.5t20.5 -72.5q0 -66 -42 -115z" />
    <glyph glyph-name="hyphen" unicode="-" horiz-adv-x="354" 
d="M38 287h279v-74h-279v74z" />
    <glyph glyph-name="period" unicode="." horiz-adv-x="238" 
d="M165.5 10q-18.5 -18 -44.5 -18q-27 0 -46 18t-19 44q0 27 19 45.5t46 18.5q26 0 44.5 -18.5t18.5 -45.5q0 -26 -18.5 -44z" />
    <glyph glyph-name="slash" unicode="/" horiz-adv-x="399" 
d="M21 -199l296 951l49 -13l-297 -951z" />
    <glyph glyph-name="zero" unicode="0" horiz-adv-x="575" 
d="M494 142q-34 -75 -90 -115.5t-121 -40.5q-74 0 -127.5 41t-81 109.5t-27.5 151.5q0 99 34 174t90.5 115.5t120.5 40.5q74 0 127 -40.5t81 -109.5t28 -152q0 -99 -34 -174zM412.5 450q-17.5 63 -49.5 97.5t-74 34.5q-43 0 -75.5 -35t-50.5 -98.5t-18 -147.5t17.5 -147
t49 -97.5t73.5 -34.5q44 0 76.5 35t50.5 98.5t18 147.5t-17.5 147z" />
    <glyph glyph-name="one" unicode="1" horiz-adv-x="397" 
d="M71 33q41 2 59 5t31.5 14t13.5 36v409h-104v45h30q79 0 126 75h34v-524q0 -33 25 -45t73 -15v-33h-288v33z" />
    <glyph glyph-name="two" unicode="2" horiz-adv-x="526" 
d="M45 0l-1 28q100 79 145 119t83 87q80 99 80 189q0 158 -104 158q-43 0 -68 -27t-24 -65v-45q0 -32 -14 -49t-41 -17q-26 0 -39.5 17.5t-13.5 50.5q0 30 25 71t73.5 71t114.5 30q83 0 134.5 -48.5t51.5 -142.5q0 -57 -39 -125.5t-107.5 -128.5t-150.5 -92v-8h220
q22 0 38 14.5t24.5 31t25.5 53.5l26 -10l-54 -162h-385z" />
    <glyph glyph-name="three" unicode="3" horiz-adv-x="529" 
d="M438 74.5q-34 -48.5 -91 -74.5t-124 -26q-54 0 -98 17.5t-69 49.5t-25 73q0 37 19.5 57.5t49.5 20.5q22 0 34.5 -12t12.5 -31v-74l-1 -21q0 -19 11.5 -31t44.5 -12q46 0 86.5 23.5t65 66t24.5 97.5q0 54 -26 78.5t-85 24.5h-43v36q40 -3 71.5 16t49 54t17.5 78
q0 45 -25.5 71t-73.5 26q-31 0 -49 -11t-25 -25.5t-4 -22.5v-56q0 -19 -9.5 -36.5t-39.5 -17.5q-28 0 -40.5 18.5t-12.5 39.5q0 31 23 65.5t68.5 58t108.5 23.5q62 0 100.5 -23t55 -55t16.5 -60q0 -45 -41 -87t-123 -65h27q64 0 109 -32t45 -108q0 -65 -34 -113.5z" />
    <glyph glyph-name="four" unicode="4" horiz-adv-x="533" 
d="M181 33q6 0 30.5 1t33.5 5q26 9 26 45v122h-248v46l295 375h36v-377h79v-44h-79v-115q0 -36 26 -48q15 -7 64 -10v-33h-263v33zM271 250v257l-201 -257h201z" />
    <glyph glyph-name="five" unicode="5" horiz-adv-x="488" 
d="M114.5 2.5q-38.5 16.5 -60 44.5t-21.5 62q0 30 15.5 42.5t34.5 12.5q20 0 30.5 -14.5t10.5 -48.5v-33q0 -25 20.5 -36.5t49.5 -11.5q56 0 88.5 38t45 87.5t12.5 89.5q0 111 -103 111q-44 0 -77 -19t-44 -56l-38 8l73 338h288q-9 -36 -38 -58.5t-67 -22.5h-164l-44 -192
q21 17 55 27.5t66 10.5q47 0 90 -24t69.5 -67t26.5 -99q0 -62 -32.5 -108.5t-86 -72t-112.5 -25.5q-49 0 -87.5 16.5z" />
    <glyph glyph-name="six" unicode="6" horiz-adv-x="530" 
d="M111 62.5q-56 76.5 -56 204.5q0 118 46.5 217.5t121.5 157.5t156 58q42 0 68 -15.5t37.5 -38t11.5 -42.5q0 -23 -13 -37.5t-34 -14.5q-19 0 -35 12.5t-16 34.5v19q0 38 -49 38q-74 0 -127.5 -80t-71.5 -229l3 -2q27 38 65 57.5t80 19.5q53 0 94 -27.5t63 -74.5t22 -102
q0 -58 -24 -111t-71.5 -87t-114.5 -34q-100 0 -156 76.5zM354 82q26 63 26 135q0 76 -29 118t-82 42q-55 0 -90 -46.5t-35 -130.5q0 -57 16.5 -98t43.5 -62t60 -21q64 0 90 63z" />
    <glyph glyph-name="seven" unicode="7" horiz-adv-x="476" 
d="M362 381q-47 -93 -74.5 -194t-27.5 -213q0 -30 -14.5 -54t-38.5 -24q-29 0 -42 18t-13 62q0 49 22 110.5t54 124t89 164.5q72 132 87 161h-247q-59 0 -94 -118l-29 5l56 250h27l8 -56h362v-16q-78 -127 -125 -220z" />
    <glyph glyph-name="eight" unicode="8" horiz-adv-x="523" 
d="M146 6q-42 20 -65.5 54.5t-23.5 75.5q0 51 33 101.5t81 72.5q-46 23 -69.5 51t-23.5 81q0 56 28 97.5t73 63t96 21.5q48 0 86.5 -18.5t60.5 -51t22 -72.5q0 -46 -28 -87t-69 -64q119 -41 119 -154q0 -59 -32.5 -102t-84.5 -66t-108 -23q-53 0 -95 20zM368.5 403
q16.5 40 16.5 79q0 53 -30 79.5t-81 26.5q-56 0 -88.5 -28.5t-32.5 -79.5q0 -33 18 -55.5t74 -46.5l68 -30q39 15 55.5 55zM345 53q41 31 41 90q0 47 -33 79.5t-112 59.5l-36 13q-35 -19 -58 -63.5t-23 -91.5q0 -52 31 -85t91 -33q58 0 99 31z" />
    <glyph glyph-name="nine" unicode="9" horiz-adv-x="529" 
d="M433 115q-39 -98 -113.5 -158.5t-173.5 -60.5q-39 0 -67 16t-42.5 38.5t-14.5 42.5q0 26 13.5 42t36.5 16t36 -15t13 -40v-16q0 -42 63 -42q53 0 95.5 43.5t69 117.5t33.5 164l-6 1q-62 -82 -153 -82q-44 0 -83 24t-63 71t-24 111q0 57 24.5 110t72 86.5t113.5 33.5
q88 0 148.5 -67t60.5 -228q0 -110 -39 -208zM368 498q-18 43 -46.5 65t-59.5 22q-113 0 -113 -175q0 -90 27.5 -133.5t86.5 -43.5q27 0 55 15.5t48 51.5t20 95q0 60 -18 103z" />
    <glyph glyph-name="colon" unicode=":" horiz-adv-x="317" 
d="M204 343.5q-19 -18.5 -46 -18.5q-26 0 -45 18.5t-19 44.5q0 27 19 46t45 19q27 0 46 -19t19 -46q0 -26 -19 -44.5zM204 11q-19 -18 -46 -18t-45.5 18t-18.5 45q0 26 19 45t45 19q27 0 46 -19t19 -45q0 -27 -19 -45z" />
    <glyph glyph-name="semicolon" unicode=";" horiz-adv-x="316" 
d="M202.5 345.5q-18.5 -18.5 -45.5 -18.5q-29 0 -47 18.5t-18 48.5q0 26 18.5 43t47.5 17q28 0 45.5 -17.5t17.5 -44.5q0 -28 -18.5 -46.5zM183 -99q-42 -49 -91 -73l-20 33q52 29 79 60.5t27 78.5h-26q-34 0 -50 17.5t-16 40.5q0 24 16 41t46 17q36 0 56.5 -27.5
t20.5 -72.5q0 -66 -42 -115z" />
    <glyph glyph-name="less" unicode="&#x3c;" horiz-adv-x="551" 
d="M62 283l420 205v-56l-356 -172l356 -172v-56l-420 205v46z" />
    <glyph glyph-name="equal" unicode="=" horiz-adv-x="552" 
d="M66 377h420v-51h-420v51zM66 194h420v-51h-420v51z" />
    <glyph glyph-name="greater" unicode="&#x3e;" horiz-adv-x="551" 
d="M69 88l356 172l-356 172v56l420 -205v-46l-420 -205v56z" />
    <glyph glyph-name="question" unicode="?" horiz-adv-x="460" 
d="M359 364q-53 -56 -137 -70q-8 -2 -12.5 -7.5t-4.5 -13.5v-94h-39v141q0 19 11 32.5t30 18.5q57 12 85.5 43t28.5 100q0 74 -32 111t-84 37q-21 0 -35.5 -5t-15.5 -15v-41q0 -26 -16 -39.5t-39 -13.5q-24 0 -36.5 14.5t-12.5 35.5q0 27 19.5 50t55.5 37t84 14
q64 0 110 -26.5t69.5 -71t23.5 -97.5q0 -84 -53 -140zM230.5 7q-18.5 -18 -44.5 -18q-27 0 -45.5 18t-18.5 44t18.5 45t45.5 19q26 0 44.5 -19t18.5 -45t-18.5 -44z" />
    <glyph glyph-name="at" unicode="@" horiz-adv-x="1050" 
d="M879.5 -61.5q-62.5 -74.5 -150.5 -114t-194 -39.5q-114 0 -212.5 46.5t-157.5 135t-59 208.5q0 123 62 234t172.5 179t248.5 68q112 0 187 -45t111 -117.5t36 -157.5t-35 -154.5t-92.5 -109t-122.5 -39.5q-47 0 -73.5 19.5t-32.5 50.5q-29 -38 -56.5 -53t-56.5 -15
q-48 0 -79 32t-31 90q0 57 29.5 120t81 106t115.5 43q33 0 47 -12.5t21 -43.5h4l15 50h89l-88 -258q-10 -30 -10 -51q0 -46 46 -46q42 0 87.5 34.5t76 96.5t30.5 139q0 79 -33.5 144t-98.5 103.5t-154 38.5q-104 0 -195 -52t-147 -150.5t-56 -231.5q0 -113 42.5 -194
t119.5 -123t181 -42q146 0 251 79t148 216l25 -9q-29 -101 -91.5 -175.5zM569 395q-34 0 -63.5 -37.5t-46.5 -94t-17 -109.5q0 -42 10.5 -58.5t29.5 -16.5q23 0 41.5 17.5t37.5 48.5l64 180q-10 70 -56 70z" />
    <glyph glyph-name="A" unicode="A" horiz-adv-x="659" 
d="M389 33q49 3 72 9t23 27q0 6 -3 15l-58 155h-234l-37 -107q-9 -28 -9 -46q0 -30 24 -40t82 -13v-33h-271v33q91 4 121 86l220 575h37l221 -595q12 -33 41 -48.5t65 -17.5v-33h-294v33zM204 281h204l-103 274z" />
    <glyph glyph-name="B" unicode="B" horiz-adv-x="631" 
d="M552 82q-34 -41 -83 -61.5t-94 -20.5h-331v33q50 3 74.5 15t24.5 45v491q0 60 -95 66v33h323q66 0 123 -31t57 -113q0 -69 -44 -106t-120 -61v-9q41 -4 86.5 -23.5t79 -58.5t33.5 -98q0 -60 -34 -101zM409 621q-35 26 -89 26h-83v-268h61q75 0 110.5 39.5t35.5 105.5
q0 71 -35 97zM435 305q-39 39 -112 39h-86v-204q0 -63 20 -83.5t60 -20.5q89 0 123 48t34 111q0 71 -39 110z" />
    <glyph glyph-name="C" unicode="C" horiz-adv-x="618" 
d="M510 38.5q-62 -53.5 -161 -53.5q-93 0 -164 43t-109.5 122t-38.5 183q0 100 43.5 183t120 131t169.5 48q37 0 78.5 -16.5t62.5 -38.5l28 53h40v-254h-36q-22 93 -71.5 155.5t-134.5 62.5q-51 0 -95 -33.5t-71 -105t-27 -179.5q0 -82 31.5 -149t85 -106t115.5 -39
q82 0 126 36.5t74 107.5l31 -16q-35 -81 -97 -134.5z" />
    <glyph glyph-name="D" unicode="D" horiz-adv-x="739" 
d="M650 150q-53 -76 -138 -113t-181 -37h-287v33q51 0 75.5 11.5t24.5 46.5v493q0 35 -25.5 49t-70.5 17v33h302q77 0 158 -32t138 -109.5t57 -204.5q0 -111 -53 -187zM559 498q-34 70 -95.5 109t-141.5 39h-84v-530q0 -78 105 -78q125 0 187.5 80t62.5 220q0 90 -34 160z
" />
    <glyph glyph-name="E" unicode="E" horiz-adv-x="632" 
d="M39 0v33q39 2 60 6.5t33 16.5t12 37v491q0 34 -28.5 48.5t-76.5 17.5v33h518v-163h-35q-16 74 -58 100.5t-122 26.5h-104v-274h77q52 0 77.5 28.5t31.5 88.5h35v-277h-35q-4 62 -30.5 92t-78.5 30h-77v-205q0 -42 8.5 -60.5t31 -24.5t73.5 -6q79 0 117 10.5t61 43
t46 106.5h33l-12 -199h-557z" />
    <glyph glyph-name="F" unicode="F" horiz-adv-x="580" 
d="M507 565.5q-17 30.5 -39 53t-41 24.5q-31 4 -78 4h-111v-277h80q50 0 84 31q11 10 18.5 33.5t9.5 53.5h37v-280h-37q-1 23 -10 53t-19 41q-12 12 -33 21.5t-50 9.5h-80v-237q0 -36 29 -49q7 -4 32.5 -8.5t39.5 -5.5v-33h-300v33q4 0 34.5 2t40.5 6q30 12 30 49v494
q0 18 -6.5 30t-23.5 19q-13 6 -37.5 11t-37.5 6v33h524v-170h-34q-5 22 -22 52.5z" />
    <glyph glyph-name="G" unicode="G" horiz-adv-x="708" 
d="M687 268q-25 -3 -38.5 -7.5t-21.5 -16.5t-8 -37v-232h-21l-50 58q-132 -48 -222 -48q-70 0 -137 40.5t-109.5 117.5t-42.5 182q0 100 47 185t129.5 135t181.5 50q38 0 83 -16.5t67 -38.5l31 53h31v-249h-43q-4 52 -28.5 101t-71 80t-111.5 31q-55 0 -102 -37.5
t-75.5 -111.5t-28.5 -178q0 -86 29 -155t79 -108.5t109 -39.5q78 0 120 34t46 89v48q0 35 -16 50.5t-38.5 19t-74.5 6.5v34h314v-34z" />
    <glyph glyph-name="H" unicode="H" horiz-adv-x="810" 
d="M475 33q37 3 55.5 6.5t30 15t11.5 36.5v245h-335v-240q0 -33 26 -46.5t72 -16.5v-33h-288v33q36 2 55 5.5t30 15.5t11 37v493q0 60 -96 66v33h288v-33q-51 -3 -74.5 -14.5t-23.5 -46.5v-212h335v207q0 33 -28.5 48t-68.5 18v33h288v-33q-50 -3 -73.5 -14.5t-23.5 -46.5
v-493q0 -33 26 -46.5t71 -16.5v-33h-288v33z" />
    <glyph glyph-name="I" unicode="I" horiz-adv-x="387" 
d="M47 33q38 2 57 5.5t30.5 15t11.5 36.5v495q0 59 -99 65v33h293v-33q-51 -3 -75.5 -14.5t-24.5 -45.5v-495q0 -33 26.5 -46t73.5 -16v-33h-293v33z" />
    <glyph glyph-name="J" unicode="J" horiz-adv-x="464" 
d="M380.5 643.5q-20.5 -4.5 -32.5 -17t-12 -37.5v-347q0 -72 -23.5 -131t-70 -93.5t-114.5 -34.5q-46 0 -74.5 14.5t-40.5 34.5t-12 39q0 26 18 46t45 20t43 -17t16 -43l-36 -58v-6h15q62 0 92.5 31.5t39 82.5t8.5 135v322q0 35 -28.5 49t-79.5 17v33h304v-33
q-37 -2 -57.5 -6.5z" />
    <glyph glyph-name="K" unicode="K" horiz-adv-x="696" 
d="M382 33q46 2 69.5 9.5t23.5 24.5q0 16 -22 42l-200 228h-16v-241q0 -34 26.5 -47.5t73.5 -15.5v-33h-290v33q36 2 55 5.5t30 15.5t11 37v493q0 60 -96 66v33h288v-33q-51 -3 -74.5 -14.5t-23.5 -46.5v-235h5l232 239q7 9 7 16q0 15 -20 27t-58 14v33h274v-33
q-29 0 -70 -10t-75 -47l-197 -216l236 -265q38 -43 71.5 -59.5t85.5 -19.5v-33h-346v33z" />
    <glyph glyph-name="L" unicode="L" horiz-adv-x="596" 
d="M46 0v33q36 2 55.5 6.5t31 16.5t11.5 37v489q0 34 -28 49.5t-70 18.5v33h291v-33q-51 -3 -75 -15.5t-24 -47.5v-459q0 -45 7 -63t28.5 -23.5t77.5 -5.5q92 0 141 36.5t74 128.5h31l-15 -201h-536z" />
    <glyph glyph-name="M" unicode="M" horiz-adv-x="917" 
d="M566 33q40 2 62 6t37.5 17t15.5 40v491l-245 -576h-20l-52 139l-181 452v-402q0 -61 9 -95t36 -51.5t81 -20.5v-33h-290v33q57 7 81.5 21t31.5 43.5t7 97.5v346q0 55 -28.5 81t-86.5 28v33h222l211 -525l182 440l22 85h212v-33q-52 -3 -76 -14.5t-24 -46.5v-493
q0 -34 26 -47t75 -16v-33h-308v33z" />
    <glyph glyph-name="N" unicode="N" horiz-adv-x="759" 
d="M683.5 631.5q-25.5 -16.5 -33 -48t-7.5 -90.5v-501h-37l-423 565v-356q0 -62 10 -96t38 -51.5t83 -20.5v-33h-295v33q54 2 79.5 19.5t33 50t7.5 93.5v333q0 36 -20 64t-50.5 43t-62.5 14v33h195l398 -535v339q0 61 -9.5 94.5t-37.5 50t-83 18.5v33h294v-33
q-54 -2 -79.5 -18.5z" />
    <glyph glyph-name="O" unicode="O" horiz-adv-x="734" 
d="M198 30.5q-75 46.5 -118 127t-43 176.5q0 105 42.5 188t117.5 130t171 47q94 0 169 -46t117.5 -127t42.5 -180q0 -108 -43 -190t-118.5 -127t-171.5 -45q-91 0 -166 46.5zM532.5 113.5q56.5 87.5 56.5 229.5q0 84 -22.5 155t-72 115t-126.5 44q-105 0 -164.5 -84
t-59.5 -234q0 -89 25 -160t75.5 -112t123.5 -41q108 0 164.5 87.5z" />
    <glyph glyph-name="P" unicode="P" horiz-adv-x="587" 
d="M521 397.5q-34 -43.5 -89 -65t-117 -21.5h-78v-219q0 -26 12.5 -38.5t32 -15.5t60.5 -5v-33h-297v33q36 2 55.5 6.5t31 16.5t11.5 37v494q0 26 -12.5 39.5t-33 17.5t-55.5 6v33h315q54 0 99 -21.5t72 -62.5t27 -96q0 -62 -34 -105.5zM411 601.5q-31 43.5 -106 43.5h-68
v-295h50q91 0 123 48t32 103q0 57 -31 100.5z" />
    <glyph glyph-name="Q" unicode="Q" horiz-adv-x="724" 
d="M728 -22q-13 -52 -42 -85.5t-93 -33.5q-63 0 -94.5 36t-49.5 99q-39 -10 -85 -10q-91 0 -166 46.5t-118 127t-43 176.5q0 105 42.5 188t117.5 130t171 47q94 0 169 -46t117.5 -127t42.5 -180q0 -107 -42.5 -189t-117.5 -127q19 -59 39 -90.5t54 -31.5q28 0 46 24t25 56z
M203.5 573q-59.5 -84 -59.5 -234q0 -73 17 -134t50 -104q45 117 161 117q52 0 82.5 -22.5t48.5 -62.5l15 -39q35 42 53 106t18 143q0 84 -22.5 155t-72 115t-126.5 44q-105 0 -164.5 -84zM438 37q-11 43 -21 69.5t-28 43.5t-48 17t-59 -21.5t-44 -73.5q54 -46 130 -46
q37 0 70 11z" />
    <glyph glyph-name="R" unicode="R" horiz-adv-x="685" 
d="M444 199q-13 42 -37 71.5t-64 58.5h-105v-237q0 -27 12.5 -39t30 -15t59.5 -5v-33h-294v33q36 2 55.5 6.5t31 16.5t11.5 37v495q0 36 -24 47.5t-74 14.5v33h329q48 0 92 -17t72 -53.5t28 -92.5q0 -72 -48 -110t-130 -54v-12q53 -14 93.5 -42t60.5 -85l48 -137
q9 -31 47 -38l65 -9v-33h-193zM419 613.5q-37 31.5 -94 31.5h-87v-278h61q68 0 112.5 42t44.5 110q0 63 -37 94.5z" />
    <glyph glyph-name="S" unicode="S" horiz-adv-x="525" 
d="M460.5 86.5q-28.5 -47.5 -78.5 -73.5t-113 -26q-48 0 -88.5 14.5t-64.5 35.5l-33 -47h-31v241h29q23 -63 47.5 -106.5t63.5 -70t95 -26.5q60 0 88.5 31.5t28.5 83.5q0 47 -21.5 81.5t-64.5 52.5q-20 8 -59.5 25.5t-79.5 36.5q-49 23 -81.5 61.5t-32.5 107.5q0 57 26 99.5
t68.5 65t91.5 22.5q40 0 78.5 -14.5t64.5 -35.5l32 48h32v-236h-30q-30 93 -69.5 145.5t-110.5 52.5q-105 0 -105 -97q0 -41 19 -66.5t58 -52.5q27 -17 72 -35q43 -19 58 -26q46 -22 75 -44t46.5 -55.5t17.5 -82.5q0 -62 -28.5 -109.5z" />
    <glyph glyph-name="T" unicode="T" horiz-adv-x="609" 
d="M533 589.5q-22 31.5 -56.5 44.5t-88.5 13h-37v-548q0 -35 29.5 -49t79.5 -17v-33h-309v33q41 3 61 6.5t33 16t13 38.5v553h-38q-54 0 -88.5 -13t-56.5 -45t-34 -88h-33v182h593v-182h-33q-13 57 -35 88.5z" />
    <glyph glyph-name="U" unicode="U" horiz-adv-x="757" 
d="M246 9.5q-57 25.5 -86 68t-29 90.5v416q0 60 -96 66v33h289v-33q-51 -3 -75 -14.5t-24 -46.5v-385q0 -63 37 -115.5t138 -52.5q71 0 112 29t56.5 68t15.5 74v282q0 62 -9.5 94.5t-37.5 48.5t-84 18v33h296v-33q-55 -2 -80 -18.5t-32 -46.5t-7 -90v-302q0 -76 -40 -122.5
t-96.5 -66.5t-111.5 -20q-79 0 -136 25.5z" />
    <glyph glyph-name="V" unicode="V" horiz-adv-x="648" 
d="M562 569l-236 -577h-34l-204 596q-10 30 -40 45t-66 17v33h288v-33q-5 0 -33.5 -0.5t-42 -8t-13.5 -22.5q0 -7 3 -18l161 -464l147 371q25 63 25 89q0 27 -24.5 38t-85.5 15v33h265v-33q-80 -4 -110 -81z" />
    <glyph glyph-name="W" unicode="W" horiz-adv-x="940" 
d="M894.5 629q-29.5 -19 -41.5 -55l-195 -582h-35l-151 522l-178 -522h-38l-170 593q-10 32 -37.5 47.5t-62.5 17.5v33h286v-33l-21 -1q-38 -2 -55.5 -7.5t-17.5 -25.5q0 -8 3 -17l128 -445l142 417l1 13q-7 35 -36 49t-80 17v33h292v-33q-8 0 -36.5 -1.5t-42 -9
t-13.5 -22.5q0 -7 3 -18l135 -441l113 359q18 62 18 83q0 27 -21.5 36.5t-80.5 13.5v33h259v-33q-38 -2 -67.5 -21z" />
    <glyph glyph-name="X" unicode="X" horiz-adv-x="723" 
d="M388 33q54 3 76 8.5t22 23.5q0 16 -18 42l-130 193l-115 -158q-22 -31 -32.5 -49t-10.5 -29q0 -16 20.5 -22.5t68.5 -8.5v-33h-271v33q52 3 84 19t63 58l165 224l-168 241q-31 44 -60 58t-82 17v33h340v-33q-55 -3 -77.5 -9t-22.5 -25q0 -20 29 -64l104 -151l101 137
q43 57 43 79q0 17 -20.5 24t-68.5 9v33h271v-33q-52 -3 -84.5 -19.5t-63.5 -57.5l-151 -203l183 -260q24 -33 43 -48.5t40.5 -21t60.5 -7.5v-33h-339v33z" />
    <glyph glyph-name="Y" unicode="Y" horiz-adv-x="587" 
d="M558 631q-30 -17 -47 -46l-147 -253q-13 -24 -22 -54t-9 -51v-128q0 -36 28.5 -49.5t78.5 -16.5v-33h-309v33q42 3 61.5 6.5t32.5 16t13 38.5v172q0 20 -23 68l-121 232q-22 42 -52 62t-71 22v33h298v-33q-39 -2 -65.5 -6.5t-26.5 -19.5l2 -8l139 -280l125 215
q27 47 27 65q0 19 -20 24.5t-78 9.5v33h247v-33q-31 -2 -61 -19z" />
    <glyph glyph-name="Z" unicode="Z" horiz-adv-x="590" 
d="M5 0v9l440 638h-163q-81 0 -128 -36.5t-78 -118.5h-32l20 191h506v-9l-441 -638h184q70 0 112 16t70.5 53t55.5 107h31l-22 -212h-555z" />
    <glyph glyph-name="bracketleft" unicode="[" horiz-adv-x="452" 
d="M76 713h319v-44h-236v-761h236v-44h-319v849z" />
    <glyph glyph-name="backslash" unicode="\" horiz-adv-x="399" 
d="M33 739l48 13l297 -951l-48 -13z" />
    <glyph glyph-name="bracketright" unicode="]" horiz-adv-x="452" 
d="M57 -92h235v761h-235v44h319v-849h-319v44z" />
    <glyph glyph-name="underscore" unicode="_" horiz-adv-x="571" 
d="M-5 -108h580v-48h-580v48z" />
    <glyph glyph-name="grave" unicode="`" horiz-adv-x="475" 
d="M186 649q-20 16 -27 26t-7 28q0 14 11 25t27 11q19 0 31.5 -9t26.5 -33q48 -85 92 -152l-13 -11q-83 69 -141 115z" />
    <glyph glyph-name="a" unicode="a" horiz-adv-x="459" 
d="M68 18.5q-30 29.5 -30 82.5q0 65 43 98.5t125 56.5l39 12q27 8 37.5 24t10.5 44q0 42 -19.5 63t-63.5 21q-28 0 -47 -9t-19 -26v-36q0 -51 -41 -51q-24 0 -33.5 14t-9.5 33q0 27 20.5 51.5t59 40t91.5 15.5q69 0 106.5 -32t37.5 -113v-190q0 -39 6.5 -60t27.5 -21l38 42
l23 -19l-47 -59q-19 -9 -47 -9q-32 0 -51.5 15t-31.5 49h-3q-26 -31 -64 -48.5t-77 -17.5q-51 0 -81 29.5zM265 68q28 32 28 105v75l-67 -19q-58 -15 -80 -42.5t-22 -68.5q0 -40 18 -61t53 -21q42 0 70 32z" />
    <glyph glyph-name="b" unicode="b" horiz-adv-x="527" 
d="M462.5 100q-30.5 -53 -80.5 -83t-105 -30q-64 0 -139 40l-32 -51h-25v663q0 38 -22.5 51.5t-65.5 16.5v28l163 11h6v-353l3 -1q21 23 55 41.5t75 18.5q54 0 99.5 -29.5t72 -82.5t26.5 -122q0 -65 -30.5 -118zM367 348.5q-34 54.5 -103 54.5q-60 0 -102 -45v-221
q0 -53 30 -85t80 -32q56 0 92.5 52.5t36.5 144.5q0 77 -34 131.5z" />
    <glyph glyph-name="c" unicode="c" horiz-adv-x="424" 
d="M345.5 19q-47.5 -30 -110.5 -30q-61 0 -107 29.5t-70.5 80.5t-24.5 115q0 67 26.5 121t76 85.5t115.5 31.5q70 0 109 -33.5t39 -81.5q0 -28 -13.5 -43t-35.5 -15q-21 0 -37.5 13t-16.5 43v38q0 46 -48 46q-33 0 -61.5 -20.5t-46 -62.5t-17.5 -104q0 -91 38 -143.5
t105 -52.5q43 0 73 21t56 63l29 -20q-31 -51 -78.5 -81z" />
    <glyph glyph-name="d" unicode="d" horiz-adv-x="540" 
d="M368 45l-5 1q-21 -23 -53.5 -41t-71.5 -18q-57 0 -103.5 29.5t-74 83.5t-27.5 126q0 64 30.5 115.5t81 81t106.5 29.5q59 0 115 -28v209q-3 30 -15.5 45.5t-33.5 21t-60 8.5v27l183 11h7v-653q0 -32 20 -42.5t61 -13.5v-28l-150 -11zM336 389q-30 30 -81 30
q-37 0 -66.5 -24.5t-47 -71t-17.5 -109.5q0 -77 35.5 -128.5t107.5 -51.5q32 0 54.5 13t44.5 37v227q0 48 -30 78z" />
    <glyph glyph-name="e" unicode="e" horiz-adv-x="443" 
d="M352.5 20.5q-47.5 -31.5 -105.5 -31.5q-106 0 -160 66t-54 169q0 58 25 110.5t70.5 85t105.5 32.5q94 0 137.5 -52.5t43.5 -134.5v-25h-295q0 -97 36.5 -151t113.5 -54q45 0 72 20.5t54 65.5l28 -18q-24 -51 -71.5 -82.5zM318.5 283.5q9.5 8.5 9.5 24.5q0 44 -23 77.5
t-70 33.5q-48 0 -80.5 -40t-34.5 -106l173 2q16 0 25.5 8.5z" />
    <glyph glyph-name="f" unicode="f" horiz-adv-x="303" 
d="M385.5 631q-14.5 -15 -36.5 -15q-20 0 -36 12t-16 39v43q0 5 -16 5q-46 0 -70.5 -43t-26.5 -151l-1 -82h117v-36h-117v-321q0 -29 21 -39.5t65 -13.5v-29h-236v29q9 1 30 3.5t29.5 12.5t8.5 32v326h-95v36h95v54q0 128 65 196q29 29 64.5 43t69.5 14q49 0 74.5 -23.5
t25.5 -54.5q0 -22 -14.5 -37z" />
    <glyph glyph-name="g" unicode="g" horiz-adv-x="453" 
d="M449 397h-100q28 -36 28 -86q0 -45 -23 -77.5t-59 -49.5t-73 -17q-33 0 -60 7q-27 -11 -39 -21t-12 -29q0 -32 29.5 -41t72.5 -9h37q100 0 145 -36.5t45 -108.5l-144 -105q-49 -36 -105 -36q-12 0 -18 1q-154 17 -154 113q0 46 34 78t103 33v3q-51 10 -79 27.5t-28 53.5
q0 22 10.5 37.5t23 25t38.5 25.5v4q-35 18 -54.5 49t-19.5 74q0 63 48 101.5t121 38.5q50 0 88 -19h145v-36zM273.5 229.5q20.5 31.5 20.5 79.5q0 47 -21 79t-64 32q-42 0 -60.5 -30.5t-18.5 -76.5q0 -54 22.5 -84.5t61.5 -30.5t59.5 31.5zM193 0q-47 -9 -73 -32t-26 -58
q0 -25 13 -46.5t40 -33.5q21 -9 41 -9q43 0 103 41l78 57q0 47 -32.5 64t-91.5 17h-52z" />
    <glyph glyph-name="h" unicode="h" horiz-adv-x="549" 
d="M305 29q39 3 55 11t16 37v221q0 47 -23.5 74.5t-56.5 27.5q-47 0 -79 -22.5t-44 -46.5v-249q0 -50 73 -53v-29h-222v29q37 3 52.5 11.5t15.5 36.5v562q-3 29 -13.5 43t-27.5 18.5t-48 6.5v28l163 11h7v-372h2q29 28 45.5 42t44.5 25t66 11q64 0 96 -40t32 -111v-220
q0 -49 66 -52v-29h-220v29z" />
    <glyph glyph-name="i" unicode="i" horiz-adv-x="273" 
d="M175.5 584.5q-16.5 -17.5 -40.5 -17.5q-23 0 -39.5 16.5t-16.5 38.5q0 23 16.5 40t39.5 17q25 0 41 -15.5t16 -37.5q0 -24 -16.5 -41.5zM34 29q38 3 53.5 11.5t15.5 36.5v266q-5 57 -82 62v28l156 12h7v-362q0 -27 19 -39.5t48 -14.5v-29h-217v29z" />
    <glyph glyph-name="j" unicode="j" horiz-adv-x="274" 
d="M104.5 583q-16.5 16 -16.5 39t16.5 40t40.5 17q23 0 39.5 -16t16.5 -38q0 -23 -17 -40.5t-41 -17.5q-22 0 -38.5 16zM-54.5 -195.5q-26.5 19.5 -26.5 47.5q0 22 14.5 37t36.5 15q20 0 33 -13.5t13 -34.5v-39h19q29 0 46 19t24.5 61.5t7.5 117.5v324q0 64 -104 68v27
l179 11h7v-406q0 -68 -12.5 -113.5t-47.5 -82.5q-54 -58 -121 -58q-42 0 -68.5 19.5z" />
    <glyph glyph-name="k" unicode="k" horiz-adv-x="508" 
d="M246 207h-72v-125q0 -27 18 -39t53 -14v-29h-221v29q37 3 52.5 11.5t15.5 36.5v561q0 39 -22.5 52.5t-66.5 16.5v28l163 11h8v-523l145 142q11 11 11 20q0 18 -58 26v28h197v-27q-57 -16 -97.5 -45.5t-106.5 -94.5q33 -16 51.5 -30.5t41.5 -49.5l79 -126q11 -18 34 -27.5
t44 -9.5v-29h-146z" />
    <glyph glyph-name="l" unicode="l" horiz-adv-x="267" 
d="M26 29q37 3 52 11.5t15 36.5v559q0 37 -24 53t-68 18v28l167 11h6v-663q0 -27 19 -39.5t49 -14.5v-29h-216v29z" />
    <glyph glyph-name="m" unicode="m" horiz-adv-x="831" 
d="M760 43q17 -12 52 -14v-29h-220v29q36 2 52.5 11t16.5 37v221q0 48 -23.5 75t-55.5 27q-47 0 -75.5 -21t-44.5 -46v-251q0 -50 68 -53v-29h-216v29q35 2 50 11t15 37v221q0 48 -22 75t-55 27q-47 0 -76 -22t-45 -48v-247q0 -26 19 -39t52 -15v-29h-219v29q37 3 52 11.5
t15 36.5v268q-3 30 -23.5 44.5t-50.5 16.5v28l147 11h8v-73h2q7 6 31 30t54.5 37t68.5 13q42 0 74.5 -23.5t48.5 -59.5q9 8 17 17q34 33 63 49.5t76 16.5q65 0 96 -42.5t31 -113.5v-214q0 -27 17 -39z" />
    <glyph glyph-name="n" unicode="n" horiz-adv-x="558" 
d="M534 29v-29h-221v29q40 3 56.5 11t16.5 37v221q0 46 -24.5 74t-55.5 28q-48 0 -80 -22.5t-44 -45.5v-250q0 -48 71 -53v-29h-220v29q37 3 52.5 11.5t15.5 36.5v266q-3 33 -21.5 47t-50.5 16v28l147 11h6v-71h2q4 4 28.5 28t56 37t69.5 13q64 0 97 -40.5t33 -110.5v-220
q0 -49 66 -52z" />
    <glyph glyph-name="o" unicode="o" horiz-adv-x="544" 
d="M478 104q-28 -54 -83 -85.5t-130 -31.5q-60 0 -113 28.5t-85 81t-32 121.5q0 68 30 121.5t84.5 83t124.5 29.5t122.5 -30t81 -81.5t28.5 -116.5q0 -66 -28 -120zM380.5 361.5q-33.5 57.5 -106.5 57.5q-79 0 -113 -58t-34 -136q0 -88 37 -147t110 -59q69 0 104.5 57.5
t35.5 145.5q0 82 -33.5 139.5z" />
    <glyph glyph-name="p" unicode="p" horiz-adv-x="538" 
d="M473 100q-30 -52 -80 -81.5t-106 -29.5q-69 0 -109 29h-4v-146q0 -30 23.5 -42t68.5 -15v-30h-250v30q44 2 60.5 11.5t16.5 39.5v479q0 32 -20 45.5t-57 15.5v28l151 11h5v-55l4 -1q24 25 57 44t72 19q55 0 100 -29.5t71.5 -83.5t26.5 -123q0 -64 -30 -116zM378.5 348.5
q-33.5 54.5 -102.5 54.5q-60 0 -102 -48v-262q9 -28 37 -50t71 -22q58 0 94 51t36 144q0 78 -33.5 132.5z" />
    <glyph glyph-name="q" unicode="q" horiz-adv-x="527" 
d="M288 -185q45 2 61.5 11.5t16.5 39.5v177l-2 1q-20 -21 -53 -38t-73 -17q-56 0 -103 29.5t-74.5 83t-27.5 123.5q0 64 31 116t81.5 81.5t105.5 29.5q45 0 74 -11.5t44.5 -22t20.5 -13.5l30 48h27v-579q0 -31 19.5 -43t62.5 -16v-30h-241v30zM329 395.5q-28 22.5 -73 22.5
q-37 0 -67 -24.5t-47.5 -71t-17.5 -108.5q0 -77 35.5 -128t107.5 -51q32 0 55 11.5t44 33.5v264q-9 29 -37 51.5z" />
    <glyph glyph-name="r" unicode="r" horiz-adv-x="375" 
d="M353 432.5q18 -17.5 18 -43.5t-14 -45t-37 -19q-48 0 -48 46v24h-7q-12 0 -32 -30t-35.5 -86t-15.5 -130v-67q0 -30 21.5 -40t66.5 -13v-29h-237v29q38 3 53 11t15 37v266q-3 33 -21.5 47t-50.5 16v28l147 11h6v-111h2q29 65 60.5 90.5t65.5 25.5q25 0 43 -17.5z" />
    <glyph glyph-name="s" unicode="s" horiz-adv-x="386" 
d="M304.5 24.5q-44.5 -38.5 -109.5 -38.5q-37 0 -71 12.5t-49 27.5l-9 -31h-32v153h30q12 -47 45.5 -87.5t95.5 -40.5q40 0 61 20t21 56q0 29 -13.5 45.5t-32.5 25t-64 22.5q-58 19 -94.5 48.5t-36.5 85.5t39 92.5t103 36.5q28 0 56 -7t45 -19l7 26h31v-137h-30
q-7 45 -35.5 74t-78.5 29q-36 0 -55 -17t-19 -49q0 -23 11 -37.5t33 -25t66 -25.5q64 -21 97 -52.5t33 -83.5q0 -65 -44.5 -103.5z" />
    <glyph glyph-name="t" unicode="t" horiz-adv-x="328" 
d="M119.5 24.5q-29.5 33.5 -29.5 96.5v282h-88v36h2q51 0 78 33t35 103h53v-136h129v-36h-128v-270q0 -45 10.5 -66.5t46.5 -21.5q62 0 69 74l28 -9q-8 -52 -37 -85.5t-85 -33.5q-54 0 -83.5 33.5z" />
    <glyph glyph-name="u" unicode="u" horiz-adv-x="541" 
d="M367 -2v64h-3q-27 -27 -43 -40.5t-43 -23.5t-65 -10q-63 0 -93.5 42t-30.5 113v202q0 55 -72 60v28l148 12h6v-309q0 -47 22 -73.5t56 -26.5q46 0 74 21t43 45v246q-2 26 -13 37.5t-26.5 15t-47.5 4.5v28l163 12h5v-353q3 -31 20.5 -42t50.5 -13v-28l-143 -11h-8z" />
    <glyph glyph-name="v" unicode="v" horiz-adv-x="449" 
d="M422.5 394.5q-19.5 -13.5 -29.5 -36.5l-110 -261l-40 -104h-31l-152 370q-7 18 -27.5 31t-42.5 16v29h205v-32q-29 -2 -40.5 -5.5t-11.5 -13.5t5 -20l102 -256h5l98 238q4 9 4 19q0 34 -64 42v28h171v-27q-22 -4 -41.5 -17.5z" />
    <glyph glyph-name="w" unicode="w" horiz-adv-x="703" 
d="M719 439v-29q-21 -2 -44 -18t-32 -39l-139 -360h-25l-117 307l-118 -307h-28l-152 369q-7 18 -27.5 32t-41.5 16v29h203v-32q-30 -2 -41 -5.5t-11 -14.5q0 -8 4 -19l102 -253h3l87 231l-12 25q-16 34 -63 39v29h192v-30q-26 -1 -36.5 -5t-10.5 -14q0 -11 5 -22l96 -254h4
l86 240q4 11 4 20q0 19 -16.5 28t-41.5 9v28h170z" />
    <glyph glyph-name="x" unicode="x" horiz-adv-x="448" 
d="M3 28q60 21 84 53l100 130l-108 161q-17 25 -32.5 31.5t-37.5 6.5v29h190v-29q-25 0 -34 -1.5t-9 -9.5q0 -5 8 -19l75 -116l73 107q5 6 5 13q0 10 -10.5 15.5t-22 8t-14.5 3.5v28h164v-27q-35 -11 -56.5 -24.5t-30.5 -25.5l-91 -119l115 -170q15 -22 28 -30t46 -14v-29
h-201v29q8 1 24 2t21.5 3.5t5.5 7.5q0 9 -14 29l-76 117l-83 -113q-9 -12 -9 -20q0 -22 56 -26v-29h-166v28z" />
    <glyph glyph-name="y" unicode="y" horiz-adv-x="445" 
d="M15 -199.5q-23 15.5 -23 48.5q0 19 15 35.5t38 16.5q18 0 32.5 -10.5t14.5 -35.5v-23q26 6 52 44t52 96.5t11 28.5l-146 362q-8 19 -28 31.5t-42 15.5v29h201v-32q-28 -2 -39 -6t-11 -15q0 -8 4 -17l105 -256h3l92 237q6 15 6 24q0 17 -14 25t-43 12v28h167v-27
q-15 -3 -39 -19.5t-32 -34.5l-156 -373q-38 -89 -70 -133t-55.5 -55.5t-49.5 -11.5q-22 0 -45 15.5z" />
    <glyph glyph-name="z" unicode="z" horiz-adv-x="417" 
d="M25 23l261 383h-115q-38 0 -57 -8.5t-28.5 -28.5t-17.5 -62h-26v132h345v-18l-264 -387h157q27 0 42 12t23 34t21 72h24v-152h-365v23z" />
    <glyph glyph-name="braceleft" unicode="{" horiz-adv-x="410" 
d="M45 319q69 8 103.5 34t30.5 91l-8 129l-1 21q0 60 24 93t68.5 45t115.5 12v-33q-41 -3 -65 -9t-41 -29t-15 -70l4 -114q2 -69 -18 -109.5t-51.5 -59t-76.5 -30.5v-5q47 -13 77 -30.5t50.5 -57.5t18.5 -111l-4 -114q-1 -48 14.5 -70.5t38.5 -28.5t68 -9v-33
q-70 0 -114.5 12t-69 45t-24.5 93l1 21l8 129q4 67 -32 92t-102 33v63z" />
    <glyph glyph-name="bar" unicode="|" horiz-adv-x="301" 
d="M126 746h49v-953h-49v953z" />
    <glyph glyph-name="braceright" unicode="}" horiz-adv-x="395" 
d="M262 223q-36 -25 -32 -92l8 -129l1 -21q0 -60 -24.5 -93t-69 -45t-114.5 -12v33q45 3 68 9t38.5 28.5t14.5 70.5l-4 114q-2 71 18.5 111t50.5 57.5t77 30.5v5q-45 12 -76.5 30.5t-51.5 59t-18 109.5l4 114q2 47 -15 70t-41 29t-65 9v33q71 0 115.5 -12t68.5 -45t24 -93
l-1 -21l-8 -129q-4 -65 30.5 -91t103.5 -34v-63q-66 -8 -102 -33z" />
    <glyph glyph-name="asciitilde" unicode="~" horiz-adv-x="514" 
d="M408.5 242q-37.5 -38 -79.5 -38q-28 0 -50 6.5t-52 19.5q-24 10 -36.5 14t-26.5 4q-35 0 -55.5 -12.5t-36.5 -44.5l-20 7q9 26 28.5 53.5t47 46.5t56.5 19q25 0 47 -6.5t50 -18.5q22 -9 37 -14t30 -5q36 0 56.5 12.5t36.5 44.5l20 -7q-15 -43 -52.5 -81z" />
    <glyph glyph-name="uni00A0" unicode="&#xa0;" horiz-adv-x="114" 
 />
    <glyph glyph-name="exclamdown" unicode="&#xa1;" horiz-adv-x="346" 
d="M217 590q-19 -19 -46 -19q-26 0 -44.5 19t-18.5 45t18.5 44.5t44.5 18.5q27 0 46 -18.5t19 -44.5t-19 -45zM213.5 2.5q-16.5 -18.5 -42.5 -18.5t-42.5 19.5t-16.5 47.5q0 8 5 51l6 55l31 319h34l33 -315q2 -14 4 -47q5 -50 5 -62q0 -31 -16.5 -49.5z" />
    <glyph glyph-name="cent" unicode="&#xa2;" horiz-adv-x="424" 
d="M349 93.5q-45 -29.5 -104 -32.5v-185h-40v187q-79 10 -125.5 72t-46.5 151t46 154t126 80v156h40v-152h6q70 0 109 -33.5t39 -82.5q0 -28 -13.5 -42.5t-35.5 -14.5q-21 0 -37.5 13t-16.5 43v38q0 46 -48 46h-3v-381q14 -2 21 -2q43 0 73 21t56 63l29 -20
q-30 -49 -75 -78.5zM148 190.5q20 -46.5 57 -67.5v358q-35 -18 -56 -62.5t-21 -114.5q0 -67 20 -113.5z" />
    <glyph glyph-name="sterling" unicode="&#xa3;" horiz-adv-x="661" 
d="M605 149l-63 -128q-15 -32 -43 -51.5t-60 -18.5q-49 1 -84 11t-56.5 22t-61.5 39q-25 -31 -62.5 -49.5t-80.5 -18.5q-44 0 -70.5 19.5t-26.5 54.5q0 38 31 65t84 27q33 0 70 -9.5t64 -22.5q-1 44 -17 172h-143v46h138q-10 80 -10 124q0 66 25 123.5t73.5 92.5t116.5 35
q53 0 90 -21.5t55.5 -56t18.5 -73.5q0 -35 -15 -59t-49 -24q-25 0 -36.5 13t-11.5 32q0 17 8.5 28t19 20t16.5 14q1 34 -18.5 64t-80.5 30q-55 0 -88.5 -42t-33.5 -158q0 -37 6 -101l3 -41h184v-46h-181q2 -51 -8 -94.5t-38 -85.5q47 -28 78 -41t71 -13q48 0 83 43l74 94z
M164 3q30 12 50 33q-30 18 -62.5 30t-59.5 12q-33 0 -49 -15.5t-16 -30.5q0 -16 20.5 -28.5t53.5 -12.5t63 12z" />
    <glyph glyph-name="currency" unicode="&#xa4;" horiz-adv-x="409" 
d="M61 136l35 50q-22 35 -22 76q0 39 22 76l-35 50l23 25l48 -38q35 25 74 25q38 0 72 -24l47 37l24 -25l-35 -49q23 -34 23 -77q0 -44 -24 -77l34 -49l-21 -25l-47 37q-34 -24 -73 -24q-37 0 -74 25l-48 -38zM265.5 198q25.5 27 25.5 64t-25.5 64t-59.5 27q-35 0 -60.5 -27
t-25.5 -64t25.5 -64t60.5 -27q34 0 59.5 27z" />
    <glyph glyph-name="yen" unicode="&#xa5;" horiz-adv-x="576" 
d="M545 610v-30q-26 -2 -51 -17t-39 -41l-123 -226q-2 -4 -4.5 -9.5t-5.5 -12.5h145v-42h-157q-4 -15 -4 -29v-115q0 -31 24 -43.5t66 -15.5v-29h-259v29q35 3 52 6t27.5 14t10.5 35v148h-143v42h134q-6 16 -10 24l-101 207q-19 38 -44 55.5t-59 19.5v30h249v-30
q-36 -2 -60 -7t-15 -23l116 -250l104 192q23 41 23 58q0 16 -17.5 21.5t-64.5 8.5v30h206z" />
    <glyph glyph-name="brokenbar" unicode="&#xa6;" horiz-adv-x="301" 
d="M126 746h49v-382h-49v382zM126 185h49v-392h-49v392z" />
    <glyph glyph-name="section" unicode="&#xa7;" horiz-adv-x="538" 
d="M432 84.5q-34 -25.5 -90 -32.5q17 -28 28 -62t11 -66q0 -42 -19 -76.5t-53.5 -54.5t-78.5 -20q-55 0 -91.5 28.5t-36.5 68.5q0 25 16 41.5t39 16.5q21 0 34 -14t13 -39v-36q0 -17 6 -25t26 -8q37 0 58 27.5t21 84.5q0 35 -10.5 60t-41.5 64l-122 150q-70 84 -70 158
q0 58 35.5 88.5t85.5 35.5q-16 25 -26 55t-10 59q0 41 20.5 75.5t55 54.5t74.5 20q36 0 64.5 -15.5t44 -39.5t15.5 -49q0 -24 -13.5 -39.5t-35.5 -15.5q-20 0 -34 14.5t-14 38.5v43q0 16 -5.5 23t-26.5 7q-40 0 -61 -27t-21 -76q0 -31 11 -55.5t44 -66.5l118 -151
q38 -48 56 -83.5t18 -76.5q0 -59 -34 -84.5zM389 205q-9 21 -30 47l-147 193q-77 -13 -77 -78q0 -48 41 -102l146 -186q37 10 56.5 29.5t19.5 53.5q0 22 -9 43z" />
    <glyph glyph-name="dieresis" unicode="&#xa8;" horiz-adv-x="475" 
d="M173.5 620q-16.5 -17 -40.5 -17q-22 0 -38 16t-16 38q0 23 16 39.5t38 16.5q24 0 40.5 -15.5t16.5 -36.5q0 -24 -16.5 -41zM380 620q-16 -17 -40 -17q-23 0 -39 16t-16 38q0 23 16.5 39.5t38.5 16.5q24 0 40 -15.5t16 -36.5q0 -24 -16 -41z" />
    <glyph glyph-name="copyright" unicode="&#xa9;" horiz-adv-x="895" 
d="M802.5 35q-55.5 -99 -149.5 -157.5t-205 -58.5t-205.5 58t-150 157.5t-55.5 216.5q0 116 55.5 215t150 157t205.5 58t205 -58t149.5 -157t55.5 -215q0 -117 -55.5 -216zM771 449q-50 91 -135.5 144.5t-187.5 53.5t-188 -53.5t-136.5 -144.5t-50.5 -198
q0 -109 50.5 -200.5t136.5 -145t188 -53.5t187.5 53.5t135.5 145t50 200.5q0 107 -50 198zM454 13q-68 0 -119.5 28.5t-80 81.5t-28.5 124q0 68 31 123.5t86 87.5t124 32q26 0 56 -8.5t46 -21.5l21 39l28 -2l3 -181h-24q-22 65 -53.5 102.5t-93.5 37.5q-53 0 -89.5 -51.5
t-36.5 -153.5q0 -56 19.5 -99t53.5 -67t76 -24q53 0 84 27.5t56 78.5l23 -10q-63 -144 -182 -144z" />
    <glyph glyph-name="ordfeminine" unicode="&#xaa;" horiz-adv-x="425" 
d="M78 302q-22 21 -22 57q0 38 20.5 60t52.5 35q-4 -1 42 16l48 19q8 4 12.5 11.5t4.5 15.5q0 76 -58 76q-25 0 -31 -10t-5.5 -19.5t0.5 -12.5q0 -22 -10.5 -33.5t-28.5 -11.5q-16 0 -24 11t-8 26q0 32 35.5 55.5t75.5 23.5q57 0 86.5 -21.5t29.5 -86.5v-158q0 -11 4 -21
t17 -10q10 0 16 7t10 22l20 -11q-12 -60 -70 -60q-41 0 -60 47q-18 -22 -44 -35t-56 -13q-35 0 -57 21zM203.5 326.5q14.5 9.5 32.5 29.5l-1 111q-59 -20 -87 -40.5t-28 -60.5q0 -49 47 -49q22 0 36.5 9.5z" />
    <glyph glyph-name="guillemotleft" unicode="&#xab;" horiz-adv-x="533" 
d="M71 177q-25 19 -25 44q0 13 6 23.5t19 21.5l195 166l19 -18l-148 -192l148 -189l-19 -18zM270 177q-25 19 -25 44q0 13 6 23.5t19 21.5l195 166l19 -18l-148 -192l148 -189l-19 -18z" />
    <glyph glyph-name="logicalnot" unicode="&#xac;" horiz-adv-x="552" 
d="M438 254h-391v52h445v-267h-54v215z" />
    <glyph glyph-name="registered" unicode="&#xae;" horiz-adv-x="599" 
d="M515 313q-34 -60 -91.5 -95.5t-124.5 -35.5t-124.5 35.5t-91 95.5t-33.5 130t33.5 129.5t91 95t124.5 35.5t124.5 -35.5t91.5 -95t34 -129.5t-34 -130zM492 561q-30 54 -81.5 86t-111.5 32t-111 -32t-81 -86t-30 -118t30 -118.5t81 -86.5t111 -32t111.5 32t81.5 86.5
t30 118.5t-30 118zM342 391q-7 23 -24 37.5t-36 14.5h-18v-95q0 -14 10 -18t32 -4v-20h-132v20q22 0 32 4.5t10 17.5v207q0 13 -7.5 17t-19 5.5t-15.5 1.5v20h142q36 0 61 -17.5t25 -52.5q0 -32 -19.5 -47t-57.5 -26v-2q49 -10 67 -53q5 -11 10.5 -29t6.5 -21q4 -14 16 -20
t34 -5v-20h-92zM333 564.5q-15 12.5 -38 12.5h-31v-111h22q26 0 44 17t18 44q0 25 -15 37.5z" />
    <glyph glyph-name="macron" unicode="&#xaf;" horiz-adv-x="475" 
d="M81 656h314v-59h-314v59z" />
    <glyph glyph-name="degree" unicode="&#xb0;" horiz-adv-x="390" 
d="M324 472q-22 -36 -57.5 -57t-73.5 -21q-39 0 -73.5 18t-55 53t-20.5 84q0 45 21.5 82t56 58t71.5 21q40 0 75 -18t56.5 -54t21.5 -88q0 -42 -22 -78zM255.5 637q-22.5 32 -61.5 32q-38 0 -60.5 -32.5t-22.5 -83.5q0 -53 22.5 -85.5t62.5 -32.5q34 0 58 30.5t24 82.5
q0 57 -22.5 89z" />
    <glyph glyph-name="acute" unicode="&#xb4;" horiz-adv-x="475" 
d="M135 545q71 110 92 152q13 24 26 33t32 9q16 0 27 -11t11 -25q0 -18 -7 -27.5t-27 -26.5l-36 -29q-15 -13 -40 -33t-65 -53z" />
    <glyph glyph-name="uni00B5" unicode="&#xb5;" horiz-adv-x="554" 
d="M455 -9q-34 0 -54.5 17t-30.5 50h-3q-52 -70 -133 -70q-28 0 -56 16t-45 42h-2v-44q0 -22 4 -41.5t13 -54.5q15 -54 15 -83q0 -23 -9.5 -36t-28.5 -13t-28 13.5t-9 32.5v642h87v-315q0 -49 26 -79t60 -30q44 0 69.5 16t36.5 37v371h87v-367q0 -22 10 -37t32 -15
q19 0 25.5 20t8.5 55h30q-4 -127 -105 -127z" />
    <glyph glyph-name="paragraph" unicode="&#xb6;" horiz-adv-x="588" 
d="M407 -125v777h-82v-777h-36v467h-24q-115 0 -162.5 48t-47.5 120q0 41 18 81t57.5 66t101.5 26h210v-808h-35z" />
    <glyph glyph-name="periodcentered" unicode="&#xb7;" horiz-adv-x="276" 
d="M184.5 227q-19.5 -19 -46.5 -19q-26 0 -45 19t-19 45t19 45.5t45 19.5q27 0 46.5 -19.5t19.5 -45.5t-19.5 -45z" />
    <glyph glyph-name="cedilla" unicode="&#xb8;" horiz-adv-x="475" 
d="M301.5 -201q-35.5 -23 -94.5 -23q-37 0 -72 7v36q47 -15 73 -15q61 0 61 47q0 24 -24.5 30.5t-65.5 6.5v120h33v-64q51 0 88 -16t37 -59q0 -47 -35.5 -70z" />
    <glyph glyph-name="ordmasculine" unicode="&#xba;" horiz-adv-x="425" 
d="M345.5 366q-18.5 -40 -54 -63.5t-83.5 -23.5q-39 0 -73 21t-54 59.5t-20 88.5q0 75 42.5 123t110.5 48q67 0 108.5 -47t41.5 -118q0 -48 -18.5 -88zM276.5 550q-19.5 40 -63.5 40q-45 0 -64 -40t-19 -97q0 -63 20 -104t63 -41q41 0 62 41t21 103q0 58 -19.5 98z" />
    <glyph glyph-name="guillemotright" unicode="&#xbb;" horiz-adv-x="532" 
d="M248 33l148 189l-148 192l19 18l195 -166q13 -11 19 -21.5t6 -23.5q0 -25 -25 -44l-195 -162zM49 33l148 189l-148 192l19 18l195 -166q13 -11 19 -21.5t6 -23.5q0 -25 -25 -44l-195 -162z" />
    <glyph glyph-name="questiondown" unicode="&#xbf;" horiz-adv-x="458" 
d="M247.5 676q18.5 18 44.5 18q27 0 45.5 -18t18.5 -44t-18.5 -45t-45.5 -19q-26 0 -44.5 19t-18.5 45t18.5 44zM119 319q53 56 137 70q8 2 12.5 7.5t4.5 13.5v94h39v-141q0 -19 -11 -32.5t-30 -18.5q-57 -12 -85.5 -43t-28.5 -100q0 -74 32 -111t84 -37q21 0 35.5 5
t15.5 15v41q0 26 16 39.5t39 13.5q24 0 36.5 -14.5t12.5 -35.5q0 -27 -19.5 -50t-55.5 -37t-84 -14q-64 0 -110 26.5t-69.5 71t-23.5 97.5q0 84 53 140z" />
    <glyph glyph-name="Agrave" unicode="&#xc0;" horiz-adv-x="659" 
d="M389 33q49 3 72 9t23 27q0 6 -3 15l-58 155h-234l-37 -107q-9 -28 -9 -46q0 -30 24 -40t82 -13v-33h-271v33q91 4 121 86l220 575h37l221 -595q12 -33 41 -48.5t65 -17.5v-33h-294v33zM204 281h204l-103 274zM251 870q-20 16 -27 26t-7 28q0 14 11 25t27 11q19 0 31.5 -9
t26.5 -33q48 -85 92 -152l-13 -11q-83 69 -141 115z" />
    <glyph glyph-name="Aacute" unicode="&#xc1;" horiz-adv-x="659" 
d="M389 33q49 3 72 9t23 27q0 6 -3 15l-58 155h-234l-37 -107q-9 -28 -9 -46q0 -30 24 -40t82 -13v-33h-271v33q91 4 121 86l220 575h37l221 -595q12 -33 41 -48.5t65 -17.5v-33h-294v33zM204 281h204l-103 274zM255 766q71 110 92 152q13 24 26 33t32 9q16 0 27 -11t11 -25
q0 -18 -7 -27.5t-27 -26.5l-36 -29q-15 -13 -40 -33t-65 -53z" />
    <glyph glyph-name="Acircumflex" unicode="&#xc2;" horiz-adv-x="659" 
d="M389 33q49 3 72 9t23 27q0 6 -3 15l-58 155h-234l-37 -107q-9 -28 -9 -46q0 -30 24 -40t82 -13v-33h-271v33q91 4 121 86l220 575h37l221 -595q12 -33 41 -48.5t65 -17.5v-33h-294v33zM204 281h204l-103 274zM329 895l-132 -136l-19 12l110 172q13 21 42 21q28 0 40 -19
l111 -174l-19 -12z" />
    <glyph glyph-name="Atilde" unicode="&#xc3;" horiz-adv-x="659" 
d="M389 33q49 3 72 9t23 27q0 6 -3 15l-58 155h-234l-37 -107q-9 -28 -9 -46q0 -30 24 -40t82 -13v-33h-271v33q91 4 121 86l220 575h37l221 -595q12 -33 41 -48.5t65 -17.5v-33h-294v33zM204 281h204l-103 274zM489.5 835.5q-17.5 -28.5 -43 -48t-53.5 -19.5q-29 0 -49 8
t-43 23q-18 12 -31.5 17.5t-29.5 5.5q-24 0 -35.5 -11t-27.5 -41q-2 -3 -4.5 -8t-5.5 -10l-22 10q13 43 45.5 82.5t72.5 39.5q28 0 48 -8t45 -24q18 -11 30 -16.5t25 -5.5q35 0 48.5 12.5t21 31t10.5 25.5l23 -9q-7 -26 -24.5 -54.5z" />
    <glyph glyph-name="Adieresis" unicode="&#xc4;" horiz-adv-x="659" 
d="M389 33q49 3 72 9t23 27q0 6 -3 15l-58 155h-234l-37 -107q-9 -28 -9 -46q0 -30 24 -40t82 -13v-33h-271v33q91 4 121 86l220 575h37l221 -595q12 -33 41 -48.5t65 -17.5v-33h-294v33zM204 281h204l-103 274zM265.5 821q-16.5 -17 -40.5 -17q-22 0 -38 16t-16 38
q0 23 16 39.5t38 16.5q24 0 40.5 -15.5t16.5 -36.5q0 -24 -16.5 -41zM472 821q-16 -17 -40 -17q-23 0 -39 16t-16 38q0 23 16.5 39.5t38.5 16.5q24 0 40 -15.5t16 -36.5q0 -24 -16 -41z" />
    <glyph glyph-name="Aring" unicode="&#xc5;" horiz-adv-x="693" 
d="M618 50.5q29 -15.5 65 -17.5v-33h-294v33q49 3 72 9t23 27q0 6 -3 15l-58 155h-234l-37 -107q-9 -28 -9 -46q0 -30 24 -40t82 -13v-33h-271v33q91 4 121 86l211 553q-42 6 -66 34.5t-24 69.5q0 46 32.5 76t80.5 30q50 0 82 -30t32 -76q0 -38 -23 -66t-60 -37l213 -574
q12 -33 41 -48.5zM290 720q15 -21 43 -21t43.5 20.5t15.5 56.5q0 35 -15.5 56.5t-43.5 21.5q-27 0 -42.5 -20.5t-15.5 -57.5q0 -35 15 -56zM408 281l-103 274l-101 -274h204z" />
    <glyph glyph-name="AE" unicode="&#xc6;" horiz-adv-x="922" 
d="M344 0v33q39 3 59.5 6.5t33 16t12.5 37.5v177h-214l-70 -138q-15 -30 -15 -49q0 -23 21.5 -35t66.5 -15v-33h-260v33q48 3 79 24t53 62l285 522l-74 10v32h526v-163h-35q-12 51 -35.5 79t-58 38t-87.5 10h-88v-274h78q52 0 77 27.5t32 89.5h35v-277h-35q-4 64 -30.5 93
t-78.5 29h-78v-205q0 -42 8.5 -60.5t31 -24.5t74.5 -6q69 0 105 11.5t58.5 44.5t44.5 104h33l-12 -199h-542zM437 641l-178 -331h190v331h-12z" />
    <glyph glyph-name="Ccedilla" unicode="&#xc7;" horiz-adv-x="618" 
d="M345 -15v-41q51 0 88 -16t37 -59q0 -47 -35.5 -70t-94.5 -23q-37 0 -72 7v36q47 -15 73 -15q61 0 61 47q0 24 -24.5 30.5t-65.5 6.5v99q-83 8 -145 53t-96 120.5t-34 172.5q0 100 43.5 183t120 131t169.5 48q37 0 78.5 -16.5t62.5 -38.5l28 53h40v-254h-36
q-22 93 -71.5 155.5t-134.5 62.5q-51 0 -95 -33.5t-71 -105t-27 -179.5q0 -82 31.5 -149t85 -106t115.5 -39q82 0 126 36.5t74 107.5l31 -16q-35 -81 -97 -134.5t-161 -53.5h-4z" />
    <glyph glyph-name="Egrave" unicode="&#xc8;" horiz-adv-x="632" 
d="M39 0v33q39 2 60 6.5t33 16.5t12 37v491q0 34 -28.5 48.5t-76.5 17.5v33h518v-163h-35q-16 74 -58 100.5t-122 26.5h-104v-274h77q52 0 77.5 28.5t31.5 88.5h35v-277h-35q-4 62 -30.5 92t-78.5 30h-77v-205q0 -42 8.5 -60.5t31 -24.5t73.5 -6q79 0 117 10.5t61 43
t46 106.5h33l-12 -199h-557zM238 870q-20 16 -27 26t-7 28q0 14 11 25t27 11q19 0 31.5 -9t26.5 -33q48 -85 92 -152l-13 -11q-83 69 -141 115z" />
    <glyph glyph-name="Eacute" unicode="&#xc9;" horiz-adv-x="632" 
d="M39 0v33q39 2 60 6.5t33 16.5t12 37v491q0 34 -28.5 48.5t-76.5 17.5v33h518v-163h-35q-16 74 -58 100.5t-122 26.5h-104v-274h77q52 0 77.5 28.5t31.5 88.5h35v-277h-35q-4 62 -30.5 92t-78.5 30h-77v-205q0 -42 8.5 -60.5t31 -24.5t73.5 -6q79 0 117 10.5t61 43
t46 106.5h33l-12 -199h-557zM242 766q71 110 92 152q13 24 26 33t32 9q16 0 27 -11t11 -25q0 -18 -7 -27.5t-27 -26.5l-36 -29q-15 -13 -40 -33t-65 -53z" />
    <glyph glyph-name="Ecircumflex" unicode="&#xca;" horiz-adv-x="632" 
d="M39 0v33q39 2 60 6.5t33 16.5t12 37v491q0 34 -28.5 48.5t-76.5 17.5v33h518v-163h-35q-16 74 -58 100.5t-122 26.5h-104v-274h77q52 0 77.5 28.5t31.5 88.5h35v-277h-35q-4 62 -30.5 92t-78.5 30h-77v-205q0 -42 8.5 -60.5t31 -24.5t73.5 -6q79 0 117 10.5t61 43
t46 106.5h33l-12 -199h-557zM316 895l-132 -136l-19 12l110 172q13 21 42 21q28 0 40 -19l111 -174l-19 -12z" />
    <glyph glyph-name="Edieresis" unicode="&#xcb;" horiz-adv-x="632" 
d="M39 0v33q39 2 60 6.5t33 16.5t12 37v491q0 34 -28.5 48.5t-76.5 17.5v33h518v-163h-35q-16 74 -58 100.5t-122 26.5h-104v-274h77q52 0 77.5 28.5t31.5 88.5h35v-277h-35q-4 62 -30.5 92t-78.5 30h-77v-205q0 -42 8.5 -60.5t31 -24.5t73.5 -6q79 0 117 10.5t61 43
t46 106.5h33l-12 -199h-557zM252.5 821q-16.5 -17 -40.5 -17q-22 0 -38 16t-16 38q0 23 16 39.5t38 16.5q24 0 40.5 -15.5t16.5 -36.5q0 -24 -16.5 -41zM459 821q-16 -17 -40 -17q-23 0 -39 16t-16 38q0 23 16.5 39.5t38.5 16.5q24 0 40 -15.5t16 -36.5q0 -24 -16 -41z" />
    <glyph glyph-name="Igrave" unicode="&#xcc;" horiz-adv-x="387" 
d="M47 33q38 2 57 5.5t30.5 15t11.5 36.5v495q0 59 -99 65v33h293v-33q-51 -3 -75.5 -14.5t-24.5 -45.5v-495q0 -33 26.5 -46t73.5 -16v-33h-293v33zM114 870q-20 16 -27 26t-7 28q0 14 11 25t27 11q19 0 31.5 -9t26.5 -33q48 -85 92 -152l-13 -11q-83 69 -141 115z" />
    <glyph glyph-name="Iacute" unicode="&#xcd;" horiz-adv-x="387" 
d="M47 33q38 2 57 5.5t30.5 15t11.5 36.5v495q0 59 -99 65v33h293v-33q-51 -3 -75.5 -14.5t-24.5 -45.5v-495q0 -33 26.5 -46t73.5 -16v-33h-293v33zM118 766q71 110 92 152q13 24 26 33t32 9q16 0 27 -11t11 -25q0 -18 -7 -27.5t-27 -26.5l-36 -29q-15 -13 -40 -33t-65 -53
z" />
    <glyph glyph-name="Icircumflex" unicode="&#xce;" horiz-adv-x="387" 
d="M47 33q38 2 57 5.5t30.5 15t11.5 36.5v495q0 59 -99 65v33h293v-33q-51 -3 -75.5 -14.5t-24.5 -45.5v-495q0 -33 26.5 -46t73.5 -16v-33h-293v33zM192 895l-132 -136l-19 12l110 172q13 21 42 21q28 0 40 -19l111 -174l-19 -12z" />
    <glyph glyph-name="Idieresis" unicode="&#xcf;" horiz-adv-x="387" 
d="M47 33q38 2 57 5.5t30.5 15t11.5 36.5v495q0 59 -99 65v33h293v-33q-51 -3 -75.5 -14.5t-24.5 -45.5v-495q0 -33 26.5 -46t73.5 -16v-33h-293v33zM128.5 821q-16.5 -17 -40.5 -17q-22 0 -38 16t-16 38q0 23 16 39.5t38 16.5q24 0 40.5 -15.5t16.5 -36.5q0 -24 -16.5 -41z
M335 821q-16 -17 -40 -17q-23 0 -39 16t-16 38q0 23 16.5 39.5t38.5 16.5q24 0 40 -15.5t16 -36.5q0 -24 -16 -41z" />
    <glyph glyph-name="Eth" unicode="&#xd0;" horiz-adv-x="777" 
d="M508 651q81 -32 138 -109.5t57 -204.5q0 -111 -53 -187t-138 -113t-181 -37h-287v33q51 0 75.5 11.5t24.5 46.5v242h-115v46h115v205q0 35 -25.5 49t-70.5 17v33h302q77 0 158 -32zM530.5 118q62.5 80 62.5 220q0 90 -34 160t-95.5 109t-141.5 39h-84v-267h167v-46h-167
v-217q0 -78 105 -78q125 0 187.5 80z" />
    <glyph glyph-name="Ntilde" unicode="&#xd1;" horiz-adv-x="759" 
d="M683.5 631.5q-25.5 -16.5 -33 -48t-7.5 -90.5v-501h-37l-423 565v-356q0 -62 10 -96t38 -51.5t83 -20.5v-33h-295v33q54 2 79.5 19.5t33 50t7.5 93.5v333q0 36 -20 64t-50.5 43t-62.5 14v33h195l398 -535v339q0 61 -9.5 94.5t-37.5 50t-83 18.5v33h294v-33
q-54 -2 -79.5 -18.5zM538.5 835.5q-17.5 -28.5 -43 -48t-53.5 -19.5q-29 0 -49 8t-43 23q-18 12 -31.5 17.5t-29.5 5.5q-24 0 -35.5 -11t-27.5 -41q-2 -3 -4.5 -8t-5.5 -10l-22 10q13 43 45.5 82.5t72.5 39.5q28 0 48 -8t45 -24q18 -11 30 -16.5t25 -5.5q35 0 48.5 12.5
t21 31t10.5 25.5l23 -9q-7 -26 -24.5 -54.5z" />
    <glyph glyph-name="Ograve" unicode="&#xd2;" horiz-adv-x="734" 
d="M198 30.5q-75 46.5 -118 127t-43 176.5q0 105 42.5 188t117.5 130t171 47q94 0 169 -46t117.5 -127t42.5 -180q0 -108 -43 -190t-118.5 -127t-171.5 -45q-91 0 -166 46.5zM532.5 113.5q56.5 87.5 56.5 229.5q0 84 -22.5 155t-72 115t-126.5 44q-105 0 -164.5 -84
t-59.5 -234q0 -89 25 -160t75.5 -112t123.5 -41q108 0 164.5 87.5zM289 870q-20 16 -27 26t-7 28q0 14 11 25t27 11q19 0 31.5 -9t26.5 -33q48 -85 92 -152l-13 -11q-83 69 -141 115z" />
    <glyph glyph-name="Oacute" unicode="&#xd3;" horiz-adv-x="734" 
d="M198 30.5q-75 46.5 -118 127t-43 176.5q0 105 42.5 188t117.5 130t171 47q94 0 169 -46t117.5 -127t42.5 -180q0 -108 -43 -190t-118.5 -127t-171.5 -45q-91 0 -166 46.5zM532.5 113.5q56.5 87.5 56.5 229.5q0 84 -22.5 155t-72 115t-126.5 44q-105 0 -164.5 -84
t-59.5 -234q0 -89 25 -160t75.5 -112t123.5 -41q108 0 164.5 87.5zM293 766q71 110 92 152q13 24 26 33t32 9q16 0 27 -11t11 -25q0 -18 -7 -27.5t-27 -26.5l-36 -29q-15 -13 -40 -33t-65 -53z" />
    <glyph glyph-name="Ocircumflex" unicode="&#xd4;" horiz-adv-x="734" 
d="M198 30.5q-75 46.5 -118 127t-43 176.5q0 105 42.5 188t117.5 130t171 47q94 0 169 -46t117.5 -127t42.5 -180q0 -108 -43 -190t-118.5 -127t-171.5 -45q-91 0 -166 46.5zM532.5 113.5q56.5 87.5 56.5 229.5q0 84 -22.5 155t-72 115t-126.5 44q-105 0 -164.5 -84
t-59.5 -234q0 -89 25 -160t75.5 -112t123.5 -41q108 0 164.5 87.5zM367 895l-132 -136l-19 12l110 172q13 21 42 21q28 0 40 -19l111 -174l-19 -12z" />
    <glyph glyph-name="Otilde" unicode="&#xd5;" horiz-adv-x="734" 
d="M198 30.5q-75 46.5 -118 127t-43 176.5q0 105 42.5 188t117.5 130t171 47q94 0 169 -46t117.5 -127t42.5 -180q0 -108 -43 -190t-118.5 -127t-171.5 -45q-91 0 -166 46.5zM532.5 113.5q56.5 87.5 56.5 229.5q0 84 -22.5 155t-72 115t-126.5 44q-105 0 -164.5 -84
t-59.5 -234q0 -89 25 -160t75.5 -112t123.5 -41q108 0 164.5 87.5zM527.5 835.5q-17.5 -28.5 -43 -48t-53.5 -19.5q-29 0 -49 8t-43 23q-18 12 -31.5 17.5t-29.5 5.5q-24 0 -35.5 -11t-27.5 -41q-2 -3 -4.5 -8t-5.5 -10l-22 10q13 43 45.5 82.5t72.5 39.5q28 0 48 -8t45 -24
q18 -11 30 -16.5t25 -5.5q35 0 48.5 12.5t21 31t10.5 25.5l23 -9q-7 -26 -24.5 -54.5z" />
    <glyph glyph-name="Odieresis" unicode="&#xd6;" horiz-adv-x="734" 
d="M198 30.5q-75 46.5 -118 127t-43 176.5q0 105 42.5 188t117.5 130t171 47q94 0 169 -46t117.5 -127t42.5 -180q0 -108 -43 -190t-118.5 -127t-171.5 -45q-91 0 -166 46.5zM532.5 113.5q56.5 87.5 56.5 229.5q0 84 -22.5 155t-72 115t-126.5 44q-105 0 -164.5 -84
t-59.5 -234q0 -89 25 -160t75.5 -112t123.5 -41q108 0 164.5 87.5zM303.5 821q-16.5 -17 -40.5 -17q-22 0 -38 16t-16 38q0 23 16 39.5t38 16.5q24 0 40.5 -15.5t16.5 -36.5q0 -24 -16.5 -41zM510 821q-16 -17 -40 -17q-23 0 -39 16t-16 38q0 23 16.5 39.5t38.5 16.5
q24 0 40 -15.5t16 -36.5q0 -24 -16 -41z" />
    <glyph glyph-name="multiply" unicode="&#xd7;" horiz-adv-x="551" 
d="M275 227l-186 -199l-36 37l189 196l-189 197l37 38l187 -199l185 199l36 -37l-189 -196l189 -197l-36 -38z" />
    <glyph glyph-name="Oslash" unicode="&#xd8;" horiz-adv-x="734" 
d="M615 585q39 -47 60.5 -108t21.5 -131q0 -108 -43 -190t-118.5 -127t-171.5 -45q-61 0 -116.5 22t-98.5 62l-101 -113l-31 29l103 115q-40 47 -61.5 107.5t-21.5 127.5q0 105 42.5 188t117.5 130t171 47q63 0 118.5 -21t98.5 -61l100 112l32 -30zM176 161l360 402
q-58 94 -168 94q-105 0 -164.5 -84t-59.5 -234q0 -104 32 -178zM558 522l-361 -401q29 -46 72 -70.5t99 -24.5q108 0 164.5 87.5t56.5 229.5q0 101 -31 179z" />
    <glyph glyph-name="Ugrave" unicode="&#xd9;" horiz-adv-x="757" 
d="M246 9.5q-57 25.5 -86 68t-29 90.5v416q0 60 -96 66v33h289v-33q-51 -3 -75 -14.5t-24 -46.5v-385q0 -63 37 -115.5t138 -52.5q71 0 112 29t56.5 68t15.5 74v282q0 62 -9.5 94.5t-37.5 48.5t-84 18v33h296v-33q-55 -2 -80 -18.5t-32 -46.5t-7 -90v-302q0 -76 -40 -122.5
t-96.5 -66.5t-111.5 -20q-79 0 -136 25.5zM299 870q-20 16 -27 26t-7 28q0 14 11 25t27 11q19 0 31.5 -9t26.5 -33q48 -85 92 -152l-13 -11q-83 69 -141 115z" />
    <glyph glyph-name="Uacute" unicode="&#xda;" horiz-adv-x="757" 
d="M246 9.5q-57 25.5 -86 68t-29 90.5v416q0 60 -96 66v33h289v-33q-51 -3 -75 -14.5t-24 -46.5v-385q0 -63 37 -115.5t138 -52.5q71 0 112 29t56.5 68t15.5 74v282q0 62 -9.5 94.5t-37.5 48.5t-84 18v33h296v-33q-55 -2 -80 -18.5t-32 -46.5t-7 -90v-302q0 -76 -40 -122.5
t-96.5 -66.5t-111.5 -20q-79 0 -136 25.5zM303 766q71 110 92 152q13 24 26 33t32 9q16 0 27 -11t11 -25q0 -18 -7 -27.5t-27 -26.5l-36 -29q-15 -13 -40 -33t-65 -53z" />
    <glyph glyph-name="Ucircumflex" unicode="&#xdb;" horiz-adv-x="757" 
d="M246 9.5q-57 25.5 -86 68t-29 90.5v416q0 60 -96 66v33h289v-33q-51 -3 -75 -14.5t-24 -46.5v-385q0 -63 37 -115.5t138 -52.5q71 0 112 29t56.5 68t15.5 74v282q0 62 -9.5 94.5t-37.5 48.5t-84 18v33h296v-33q-55 -2 -80 -18.5t-32 -46.5t-7 -90v-302q0 -76 -40 -122.5
t-96.5 -66.5t-111.5 -20q-79 0 -136 25.5zM377 895l-132 -136l-19 12l110 172q13 21 42 21q28 0 40 -19l111 -174l-19 -12z" />
    <glyph glyph-name="Udieresis" unicode="&#xdc;" horiz-adv-x="757" 
d="M246 9.5q-57 25.5 -86 68t-29 90.5v416q0 60 -96 66v33h289v-33q-51 -3 -75 -14.5t-24 -46.5v-385q0 -63 37 -115.5t138 -52.5q71 0 112 29t56.5 68t15.5 74v282q0 62 -9.5 94.5t-37.5 48.5t-84 18v33h296v-33q-55 -2 -80 -18.5t-32 -46.5t-7 -90v-302q0 -76 -40 -122.5
t-96.5 -66.5t-111.5 -20q-79 0 -136 25.5zM313.5 821q-16.5 -17 -40.5 -17q-22 0 -38 16t-16 38q0 23 16 39.5t38 16.5q24 0 40.5 -15.5t16.5 -36.5q0 -24 -16.5 -41zM520 821q-16 -17 -40 -17q-23 0 -39 16t-16 38q0 23 16.5 39.5t38.5 16.5q24 0 40 -15.5t16 -36.5
q0 -24 -16 -41z" />
    <glyph glyph-name="Yacute" unicode="&#xdd;" horiz-adv-x="587" 
d="M558 631q-30 -17 -47 -46l-147 -253q-13 -24 -22 -54t-9 -51v-128q0 -36 28.5 -49.5t78.5 -16.5v-33h-309v33q42 3 61.5 6.5t32.5 16t13 38.5v172q0 20 -23 68l-121 232q-22 42 -52 62t-71 22v33h298v-33q-39 -2 -65.5 -6.5t-26.5 -19.5l2 -8l139 -280l125 215
q27 47 27 65q0 19 -20 24.5t-78 9.5v33h247v-33q-31 -2 -61 -19zM219 766q71 110 92 152q13 24 26 33t32 9q16 0 27 -11t11 -25q0 -18 -7 -27.5t-27 -26.5l-36 -29q-15 -13 -40 -33t-65 -53z" />
    <glyph glyph-name="Thorn" unicode="&#xde;" horiz-adv-x="598" 
d="M521 250q-34 -43 -88.5 -64.5t-117.5 -21.5h-77v-72q0 -26 12.5 -38.5t32.5 -15.5t61 -5v-33h-297v33q36 2 55.5 6.5t31 16.5t11.5 37v492q0 59 -99 65v33h291v-33q-52 -3 -75.5 -14t-23.5 -45v-55h120q54 0 99 -22t71.5 -63t26.5 -96q0 -62 -34 -105zM412 455
q-32 44 -106 44h-68v-296h50q91 0 123.5 48.5t32.5 102.5q0 57 -32 101z" />
    <glyph glyph-name="germandbls" unicode="&#xdf;" horiz-adv-x="554" 
d="M285.5 16q-34.5 30 -34.5 71q0 28 11.5 43t34.5 15q28 0 35 -16.5t7 -57.5q0 -29 10 -41t40 -12q79 0 79 82q0 27 -8.5 45.5t-26 35.5t-56.5 49q-46 38 -68 66.5t-22 69.5q0 31 11.5 51t26 34t19.5 20q45 49 45 115q0 68 -26.5 98t-67.5 30q-108 0 -109 -203l-4 -511
h-152v31q28 2 41.5 5t21.5 13.5t8 33.5l2 416q0 70 24.5 126.5t70 89t105.5 32.5q64 0 108.5 -36t44.5 -107q0 -58 -26 -94t-54 -55q-14 -10 -19 -19t-5 -25q0 -27 17 -49.5t64 -63.5q37 -31 55.5 -51t28.5 -43.5t10 -56.5q0 -70 -41.5 -115.5t-109.5 -45.5q-56 0 -90.5 30z
" />
    <glyph glyph-name="agrave" unicode="&#xe0;" horiz-adv-x="459" 
d="M68 18.5q-30 29.5 -30 82.5q0 65 43 98.5t125 56.5l39 12q27 8 37.5 24t10.5 44q0 42 -19.5 63t-63.5 21q-28 0 -47 -9t-19 -26v-36q0 -51 -41 -51q-24 0 -33.5 14t-9.5 33q0 27 20.5 51.5t59 40t91.5 15.5q69 0 106.5 -32t37.5 -113v-190q0 -39 6.5 -60t27.5 -21l38 42
l23 -19l-47 -59q-19 -9 -47 -9q-32 0 -51.5 15t-31.5 49h-3q-26 -31 -64 -48.5t-77 -17.5q-51 0 -81 29.5zM265 68q28 32 28 105v75l-67 -19q-58 -15 -80 -42.5t-22 -68.5q0 -40 18 -61t53 -21q42 0 70 32zM156 626q-20 16 -27 26t-7 28q0 14 11 25t27 11q19 0 31.5 -9
t26.5 -33q48 -85 92 -152l-13 -11q-83 69 -141 115z" />
    <glyph glyph-name="aacute" unicode="&#xe1;" horiz-adv-x="459" 
d="M68 18.5q-30 29.5 -30 82.5q0 65 43 98.5t125 56.5l39 12q27 8 37.5 24t10.5 44q0 42 -19.5 63t-63.5 21q-28 0 -47 -9t-19 -26v-36q0 -51 -41 -51q-24 0 -33.5 14t-9.5 33q0 27 20.5 51.5t59 40t91.5 15.5q69 0 106.5 -32t37.5 -113v-190q0 -39 6.5 -60t27.5 -21l38 42
l23 -19l-47 -59q-19 -9 -47 -9q-32 0 -51.5 15t-31.5 49h-3q-26 -31 -64 -48.5t-77 -17.5q-51 0 -81 29.5zM265 68q28 32 28 105v75l-67 -19q-58 -15 -80 -42.5t-22 -68.5q0 -40 18 -61t53 -21q42 0 70 32zM160 522q71 110 92 152q13 24 26 33t32 9q16 0 27 -11t11 -25
q0 -18 -7 -27.5t-27 -26.5l-36 -29q-15 -13 -40 -33t-65 -53z" />
    <glyph glyph-name="acircumflex" unicode="&#xe2;" horiz-adv-x="459" 
d="M68 18.5q-30 29.5 -30 82.5q0 65 43 98.5t125 56.5l39 12q27 8 37.5 24t10.5 44q0 42 -19.5 63t-63.5 21q-28 0 -47 -9t-19 -26v-36q0 -51 -41 -51q-24 0 -33.5 14t-9.5 33q0 27 20.5 51.5t59 40t91.5 15.5q69 0 106.5 -32t37.5 -113v-190q0 -39 6.5 -60t27.5 -21l38 42
l23 -19l-47 -59q-19 -9 -47 -9q-32 0 -51.5 15t-31.5 49h-3q-26 -31 -64 -48.5t-77 -17.5q-51 0 -81 29.5zM265 68q28 32 28 105v75l-67 -19q-58 -15 -80 -42.5t-22 -68.5q0 -40 18 -61t53 -21q42 0 70 32zM234 651l-132 -136l-19 12l110 172q13 21 42 21q28 0 40 -19
l111 -174l-19 -12z" />
    <glyph glyph-name="atilde" unicode="&#xe3;" horiz-adv-x="459" 
d="M68 18.5q-30 29.5 -30 82.5q0 65 43 98.5t125 56.5l39 12q27 8 37.5 24t10.5 44q0 42 -19.5 63t-63.5 21q-28 0 -47 -9t-19 -26v-36q0 -51 -41 -51q-24 0 -33.5 14t-9.5 33q0 27 20.5 51.5t59 40t91.5 15.5q69 0 106.5 -32t37.5 -113v-190q0 -39 6.5 -60t27.5 -21l38 42
l23 -19l-47 -59q-19 -9 -47 -9q-32 0 -51.5 15t-31.5 49h-3q-26 -31 -64 -48.5t-77 -17.5q-51 0 -81 29.5zM265 68q28 32 28 105v75l-67 -19q-58 -15 -80 -42.5t-22 -68.5q0 -40 18 -61t53 -21q42 0 70 32zM394.5 591.5q-17.5 -28.5 -43 -48t-53.5 -19.5q-29 0 -49 8t-43 23
q-18 12 -31.5 17.5t-29.5 5.5q-24 0 -35.5 -11t-27.5 -41q-2 -3 -4.5 -8t-5.5 -10l-22 10q13 43 45.5 82.5t72.5 39.5q28 0 48 -8t45 -24q18 -11 30 -16.5t25 -5.5q35 0 48.5 12.5t21 31t10.5 25.5l23 -9q-7 -26 -24.5 -54.5z" />
    <glyph glyph-name="adieresis" unicode="&#xe4;" horiz-adv-x="459" 
d="M68 18.5q-30 29.5 -30 82.5q0 65 43 98.5t125 56.5l39 12q27 8 37.5 24t10.5 44q0 42 -19.5 63t-63.5 21q-28 0 -47 -9t-19 -26v-36q0 -51 -41 -51q-24 0 -33.5 14t-9.5 33q0 27 20.5 51.5t59 40t91.5 15.5q69 0 106.5 -32t37.5 -113v-190q0 -39 6.5 -60t27.5 -21l38 42
l23 -19l-47 -59q-19 -9 -47 -9q-32 0 -51.5 15t-31.5 49h-3q-26 -31 -64 -48.5t-77 -17.5q-51 0 -81 29.5zM265 68q28 32 28 105v75l-67 -19q-58 -15 -80 -42.5t-22 -68.5q0 -40 18 -61t53 -21q42 0 70 32zM170.5 577q-16.5 -17 -40.5 -17q-22 0 -38 16t-16 38q0 23 16 39.5
t38 16.5q24 0 40.5 -15.5t16.5 -36.5q0 -24 -16.5 -41zM377 577q-16 -17 -40 -17q-23 0 -39 16t-16 38q0 23 16.5 39.5t38.5 16.5q24 0 40 -15.5t16 -36.5q0 -24 -16 -41z" />
    <glyph glyph-name="aring" unicode="&#xe5;" horiz-adv-x="459" 
d="M68 18.5q-30 29.5 -30 82.5q0 65 43 98.5t125 56.5l39 12q27 8 37.5 24t10.5 44q0 42 -19.5 63t-63.5 21q-28 0 -47 -9t-19 -26v-36q0 -51 -41 -51q-24 0 -33.5 14t-9.5 33q0 27 20.5 51.5t59 40t91.5 15.5q69 0 106.5 -32t37.5 -113v-190q0 -39 6.5 -60t27.5 -21l38 42
l23 -19l-47 -59q-19 -9 -47 -9q-32 0 -51.5 15t-31.5 49h-3q-26 -31 -64 -48.5t-77 -17.5q-51 0 -81 29.5zM265 68q28 32 28 105v75l-67 -19q-58 -15 -80 -42.5t-22 -68.5q0 -40 18 -61t53 -21q42 0 70 32zM316 534q-32 -30 -82 -30q-52 0 -82.5 29.5t-30.5 76.5
q0 46 32.5 76t80.5 30q50 0 82 -30t32 -76t-32 -76zM277.5 666.5q-15.5 21.5 -43.5 21.5q-27 0 -42.5 -20.5t-15.5 -57.5q0 -35 15 -56t43 -21t43.5 20.5t15.5 56.5q0 35 -15.5 56.5z" />
    <glyph glyph-name="ae" unicode="&#xe6;" horiz-adv-x="691" 
d="M601 20.5q-46 -31.5 -110 -31.5q-107 0 -168 89h-3q-61 -89 -163 -89q-56 0 -87.5 28t-31.5 81q0 52 26 80t67 43q30 12 76.5 27t64.5 20q10 3 16 10t6 16v30q0 29 -17.5 61.5t-72.5 32.5q-39 0 -52 -19v-53q0 -21 -14.5 -35t-35.5 -14q-22 0 -32 14t-10 34q0 29 22 54
t59.5 39.5t81.5 14.5q42 0 80 -14t54 -42q30 28 61.5 42t73.5 14q83 0 125.5 -52.5t42.5 -130.5v-25h-286q0 -209 144 -209q45 0 72 20.5t51 63.5l31 -17q-25 -51 -71 -82.5zM556.5 375.5q-18.5 42.5 -70.5 42.5q-34 0 -59.5 -20.5t-39.5 -53t-13 -66.5l201 2
q0 53 -18.5 95.5zM169 193.5q-45 -31.5 -45 -88.5q0 -70 71 -70q58 0 100 50v154q-81 -14 -126 -45.5z" />
    <glyph glyph-name="ccedilla" unicode="&#xe7;" horiz-adv-x="424" 
d="M351 22.5q-44 -29.5 -102 -33.5v-45q51 0 88 -16t37 -59q0 -47 -35.5 -70t-94.5 -23q-37 0 -72 7v36q47 -15 73 -15q61 0 61 47q0 24 -24.5 30.5t-65.5 6.5v102q-84 7 -133.5 69.5t-49.5 154.5q0 67 26.5 121t76 85.5t115.5 31.5q70 0 109 -33.5t39 -81.5
q0 -28 -13.5 -43t-35.5 -15q-21 0 -37.5 13t-16.5 43v38q0 46 -48 46q-33 0 -61.5 -20.5t-46 -62.5t-17.5 -104q0 -91 38 -143.5t105 -52.5q43 0 73 21t56 63l29 -20q-29 -48 -73 -77.5z" />
    <glyph glyph-name="egrave" unicode="&#xe8;" horiz-adv-x="443" 
d="M352.5 20.5q-47.5 -31.5 -105.5 -31.5q-106 0 -160 66t-54 169q0 58 25 110.5t70.5 85t105.5 32.5q94 0 137.5 -52.5t43.5 -134.5v-25h-295q0 -97 36.5 -151t113.5 -54q45 0 72 20.5t54 65.5l28 -18q-24 -51 -71.5 -82.5zM318.5 283.5q9.5 8.5 9.5 24.5q0 44 -23 77.5
t-70 33.5q-48 0 -80.5 -40t-34.5 -106l173 2q16 0 25.5 8.5zM157 626q-20 16 -27 26t-7 28q0 14 11 25t27 11q19 0 31.5 -9t26.5 -33q48 -85 92 -152l-13 -11q-83 69 -141 115z" />
    <glyph glyph-name="eacute" unicode="&#xe9;" horiz-adv-x="443" 
d="M352.5 20.5q-47.5 -31.5 -105.5 -31.5q-106 0 -160 66t-54 169q0 58 25 110.5t70.5 85t105.5 32.5q94 0 137.5 -52.5t43.5 -134.5v-25h-295q0 -97 36.5 -151t113.5 -54q45 0 72 20.5t54 65.5l28 -18q-24 -51 -71.5 -82.5zM318.5 283.5q9.5 8.5 9.5 24.5q0 44 -23 77.5
t-70 33.5q-48 0 -80.5 -40t-34.5 -106l173 2q16 0 25.5 8.5zM161 522q71 110 92 152q13 24 26 33t32 9q16 0 27 -11t11 -25q0 -18 -7 -27.5t-27 -26.5l-36 -29q-15 -13 -40 -33t-65 -53z" />
    <glyph glyph-name="ecircumflex" unicode="&#xea;" horiz-adv-x="443" 
d="M352.5 20.5q-47.5 -31.5 -105.5 -31.5q-106 0 -160 66t-54 169q0 58 25 110.5t70.5 85t105.5 32.5q94 0 137.5 -52.5t43.5 -134.5v-25h-295q0 -97 36.5 -151t113.5 -54q45 0 72 20.5t54 65.5l28 -18q-24 -51 -71.5 -82.5zM318.5 283.5q9.5 8.5 9.5 24.5q0 44 -23 77.5
t-70 33.5q-48 0 -80.5 -40t-34.5 -106l173 2q16 0 25.5 8.5zM235 651l-132 -136l-19 12l110 172q13 21 42 21q28 0 40 -19l111 -174l-19 -12z" />
    <glyph glyph-name="edieresis" unicode="&#xeb;" horiz-adv-x="443" 
d="M352.5 20.5q-47.5 -31.5 -105.5 -31.5q-106 0 -160 66t-54 169q0 58 25 110.5t70.5 85t105.5 32.5q94 0 137.5 -52.5t43.5 -134.5v-25h-295q0 -97 36.5 -151t113.5 -54q45 0 72 20.5t54 65.5l28 -18q-24 -51 -71.5 -82.5zM318.5 283.5q9.5 8.5 9.5 24.5q0 44 -23 77.5
t-70 33.5q-48 0 -80.5 -40t-34.5 -106l173 2q16 0 25.5 8.5zM171.5 577q-16.5 -17 -40.5 -17q-22 0 -38 16t-16 38q0 23 16 39.5t38 16.5q24 0 40.5 -15.5t16.5 -36.5q0 -24 -16.5 -41zM378 577q-16 -17 -40 -17q-23 0 -39 16t-16 38q0 23 16.5 39.5t38.5 16.5
q24 0 40 -15.5t16 -36.5q0 -24 -16 -41z" />
    <glyph glyph-name="igrave" unicode="&#xec;" horiz-adv-x="273" 
d="M34 31q39 3 54 11.5t15 38.5v280q0 60 -82 66v30l156 11l7 -7v-374q0 -52 67 -56v-31h-217v31zM59 649q-20 16 -27 26t-7 28q0 14 11 25t27 11q19 0 31.5 -9t26.5 -33q48 -85 92 -152l-13 -11q-83 69 -141 115z" />
    <glyph glyph-name="iacute" unicode="&#xed;" horiz-adv-x="273" 
d="M34 31q39 3 54 11.5t15 38.5v280q0 60 -82 66v30l156 11l7 -7v-374q0 -52 67 -56v-31h-217v31zM63 545q71 110 92 152q13 24 26 33t32 9q16 0 27 -11t11 -25q0 -18 -7 -27.5t-27 -26.5l-36 -29q-15 -13 -40 -33t-65 -53z" />
    <glyph glyph-name="icircumflex" unicode="&#xee;" horiz-adv-x="273" 
d="M34 31q39 3 54 11.5t15 38.5v280q0 60 -82 66v30l156 11l7 -7v-374q0 -52 67 -56v-31h-217v31zM137 674l-132 -136l-19 12l110 172q13 21 42 21q28 0 40 -19l111 -174l-19 -12z" />
    <glyph glyph-name="idieresis" unicode="&#xef;" horiz-adv-x="273" 
d="M34 31q39 3 54 11.5t15 38.5v280q0 60 -82 66v30l156 11l7 -7v-374q0 -52 67 -56v-31h-217v31zM73.5 600q-16.5 -17 -40.5 -17q-22 0 -38 16t-16 38q0 23 16 39.5t38 16.5q24 0 40.5 -15.5t16.5 -36.5q0 -24 -16.5 -41zM280 600q-16 -17 -40 -17q-23 0 -39 16t-16 38
q0 23 16.5 39.5t38.5 16.5q24 0 40 -15.5t16 -36.5q0 -24 -16 -41z" />
    <glyph glyph-name="eth" unicode="&#xf0;" horiz-adv-x="499" 
d="M406.5 71q-57.5 -85 -162.5 -85q-55 0 -104 29.5t-78.5 86t-29.5 133.5q0 71 26.5 125.5t74.5 84.5t110 30q40 0 74.5 -21.5t50.5 -51.5l4 1q-6 61 -27 120t-50 104l-112 -72l-21 34l110 68q-28 36 -78 71l19 22q22 -12 50.5 -33.5t47.5 -38.5l92 60l22 -34l-86 -54
q125 -127 125 -355q0 -139 -57.5 -224zM341 386.5q-32 54.5 -91 54.5q-69 0 -99 -57.5t-30 -141.5q0 -106 32 -164t96 -58q63 0 93.5 67t30.5 163q0 82 -32 136.5z" />
    <glyph glyph-name="ntilde" unicode="&#xf1;" horiz-adv-x="558" 
d="M534 29v-29h-221v29q40 3 56.5 11t16.5 37v221q0 46 -24.5 74t-55.5 28q-48 0 -80 -22.5t-44 -45.5v-250q0 -48 71 -53v-29h-220v29q37 3 52.5 11.5t15.5 36.5v266q-3 33 -21.5 47t-50.5 16v28l147 11h6v-71h2q4 4 28.5 28t56 37t69.5 13q64 0 97 -40.5t33 -110.5v-220
q0 -49 66 -52zM438.5 591.5q-17.5 -28.5 -43 -48t-53.5 -19.5q-29 0 -49 8t-43 23q-18 12 -31.5 17.5t-29.5 5.5q-24 0 -35.5 -11t-27.5 -41q-2 -3 -4.5 -8t-5.5 -10l-22 10q13 43 45.5 82.5t72.5 39.5q28 0 48 -8t45 -24q18 -11 30 -16.5t25 -5.5q35 0 48.5 12.5t21 31
t10.5 25.5l23 -9q-7 -26 -24.5 -54.5z" />
    <glyph glyph-name="ograve" unicode="&#xf2;" horiz-adv-x="544" 
d="M478 104q-28 -54 -83 -85.5t-130 -31.5q-60 0 -113 28.5t-85 81t-32 121.5q0 68 30 121.5t84.5 83t124.5 29.5t122.5 -30t81 -81.5t28.5 -116.5q0 -66 -28 -120zM380.5 361.5q-33.5 57.5 -106.5 57.5q-79 0 -113 -58t-34 -136q0 -88 37 -147t110 -59q69 0 104.5 57.5
t35.5 145.5q0 82 -33.5 139.5zM194 626q-20 16 -27 26t-7 28q0 14 11 25t27 11q19 0 31.5 -9t26.5 -33q48 -85 92 -152l-13 -11q-83 69 -141 115z" />
    <glyph glyph-name="oacute" unicode="&#xf3;" horiz-adv-x="544" 
d="M478 104q-28 -54 -83 -85.5t-130 -31.5q-60 0 -113 28.5t-85 81t-32 121.5q0 68 30 121.5t84.5 83t124.5 29.5t122.5 -30t81 -81.5t28.5 -116.5q0 -66 -28 -120zM380.5 361.5q-33.5 57.5 -106.5 57.5q-79 0 -113 -58t-34 -136q0 -88 37 -147t110 -59q69 0 104.5 57.5
t35.5 145.5q0 82 -33.5 139.5zM198 522q71 110 92 152q13 24 26 33t32 9q16 0 27 -11t11 -25q0 -18 -7 -27.5t-27 -26.5l-36 -29q-15 -13 -40 -33t-65 -53z" />
    <glyph glyph-name="ocircumflex" unicode="&#xf4;" horiz-adv-x="544" 
d="M478 104q-28 -54 -83 -85.5t-130 -31.5q-60 0 -113 28.5t-85 81t-32 121.5q0 68 30 121.5t84.5 83t124.5 29.5t122.5 -30t81 -81.5t28.5 -116.5q0 -66 -28 -120zM380.5 361.5q-33.5 57.5 -106.5 57.5q-79 0 -113 -58t-34 -136q0 -88 37 -147t110 -59q69 0 104.5 57.5
t35.5 145.5q0 82 -33.5 139.5zM272 651l-132 -136l-19 12l110 172q13 21 42 21q28 0 40 -19l111 -174l-19 -12z" />
    <glyph glyph-name="otilde" unicode="&#xf5;" horiz-adv-x="544" 
d="M478 104q-28 -54 -83 -85.5t-130 -31.5q-60 0 -113 28.5t-85 81t-32 121.5q0 68 30 121.5t84.5 83t124.5 29.5t122.5 -30t81 -81.5t28.5 -116.5q0 -66 -28 -120zM380.5 361.5q-33.5 57.5 -106.5 57.5q-79 0 -113 -58t-34 -136q0 -88 37 -147t110 -59q69 0 104.5 57.5
t35.5 145.5q0 82 -33.5 139.5zM432.5 591.5q-17.5 -28.5 -43 -48t-53.5 -19.5q-29 0 -49 8t-43 23q-18 12 -31.5 17.5t-29.5 5.5q-24 0 -35.5 -11t-27.5 -41q-2 -3 -4.5 -8t-5.5 -10l-22 10q13 43 45.5 82.5t72.5 39.5q28 0 48 -8t45 -24q18 -11 30 -16.5t25 -5.5
q35 0 48.5 12.5t21 31t10.5 25.5l23 -9q-7 -26 -24.5 -54.5z" />
    <glyph glyph-name="odieresis" unicode="&#xf6;" horiz-adv-x="544" 
d="M478 104q-28 -54 -83 -85.5t-130 -31.5q-60 0 -113 28.5t-85 81t-32 121.5q0 68 30 121.5t84.5 83t124.5 29.5t122.5 -30t81 -81.5t28.5 -116.5q0 -66 -28 -120zM380.5 361.5q-33.5 57.5 -106.5 57.5q-79 0 -113 -58t-34 -136q0 -88 37 -147t110 -59q69 0 104.5 57.5
t35.5 145.5q0 82 -33.5 139.5zM208.5 577q-16.5 -17 -40.5 -17q-22 0 -38 16t-16 38q0 23 16 39.5t38 16.5q24 0 40.5 -15.5t16.5 -36.5q0 -24 -16.5 -41zM415 577q-16 -17 -40 -17q-23 0 -39 16t-16 38q0 23 16.5 39.5t38.5 16.5q24 0 40 -15.5t16 -36.5q0 -24 -16 -41z
" />
    <glyph glyph-name="divide" unicode="&#xf7;" horiz-adv-x="552" 
d="M321 398.5q-19 -19.5 -45 -19.5t-45 19.5t-19 47.5q0 27 19 46t45 19t45 -19t19 -46q0 -28 -19 -47.5zM47 286h458v-52h-458v52zM321 27q-19 -19 -45 -19t-45 19t-19 46q0 28 19 47.5t45 19.5t45 -19.5t19 -47.5q0 -27 -19 -46z" />
    <glyph glyph-name="oslash" unicode="&#xf8;" horiz-adv-x="544" 
d="M444 386q30 -31 46 -72.5t16 -89.5q0 -66 -28 -120t-83 -85.5t-130 -31.5q-78 0 -140 45l-96 -107l-24 22l96 106q-31 31 -48.5 73t-17.5 92q0 68 30 121.5t84.5 83t124.5 29.5q85 0 145 -44l96 107l24 -23zM148 107l231 257q-37 55 -105 55q-79 0 -113 -58t-34 -136
q0 -67 21 -118zM395 332l-230 -256q39 -57 109 -57q69 0 104.5 57.5t35.5 145.5q0 62 -19 110z" />
    <glyph glyph-name="ugrave" unicode="&#xf9;" horiz-adv-x="541" 
d="M367 -2v64h-3q-27 -27 -43 -40.5t-43 -23.5t-65 -10q-63 0 -93.5 42t-30.5 113v202q0 55 -72 60v28l148 12h6v-309q0 -47 22 -73.5t56 -26.5q46 0 74 21t43 45v246q-2 26 -13 37.5t-26.5 15t-47.5 4.5v28l163 12h5v-353q3 -31 20.5 -42t50.5 -13v-28l-143 -11h-8z
M192 626q-20 16 -27 26t-7 28q0 14 11 25t27 11q19 0 31.5 -9t26.5 -33q48 -85 92 -152l-13 -11q-83 69 -141 115z" />
    <glyph glyph-name="uacute" unicode="&#xfa;" horiz-adv-x="541" 
d="M367 -2v64h-3q-27 -27 -43 -40.5t-43 -23.5t-65 -10q-63 0 -93.5 42t-30.5 113v202q0 55 -72 60v28l148 12h6v-309q0 -47 22 -73.5t56 -26.5q46 0 74 21t43 45v246q-2 26 -13 37.5t-26.5 15t-47.5 4.5v28l163 12h5v-353q3 -31 20.5 -42t50.5 -13v-28l-143 -11h-8z
M196 522q71 110 92 152q13 24 26 33t32 9q16 0 27 -11t11 -25q0 -18 -7 -27.5t-27 -26.5l-36 -29q-15 -13 -40 -33t-65 -53z" />
    <glyph glyph-name="ucircumflex" unicode="&#xfb;" horiz-adv-x="541" 
d="M367 -2v64h-3q-27 -27 -43 -40.5t-43 -23.5t-65 -10q-63 0 -93.5 42t-30.5 113v202q0 55 -72 60v28l148 12h6v-309q0 -47 22 -73.5t56 -26.5q46 0 74 21t43 45v246q-2 26 -13 37.5t-26.5 15t-47.5 4.5v28l163 12h5v-353q3 -31 20.5 -42t50.5 -13v-28l-143 -11h-8z
M270 651l-132 -136l-19 12l110 172q13 21 42 21q28 0 40 -19l111 -174l-19 -12z" />
    <glyph glyph-name="udieresis" unicode="&#xfc;" horiz-adv-x="541" 
d="M367 -2v64h-3q-27 -27 -43 -40.5t-43 -23.5t-65 -10q-63 0 -93.5 42t-30.5 113v202q0 55 -72 60v28l148 12h6v-309q0 -47 22 -73.5t56 -26.5q46 0 74 21t43 45v246q-2 26 -13 37.5t-26.5 15t-47.5 4.5v28l163 12h5v-353q3 -31 20.5 -42t50.5 -13v-28l-143 -11h-8z
M206.5 577q-16.5 -17 -40.5 -17q-22 0 -38 16t-16 38q0 23 16 39.5t38 16.5q24 0 40.5 -15.5t16.5 -36.5q0 -24 -16.5 -41zM413 577q-16 -17 -40 -17q-23 0 -39 16t-16 38q0 23 16.5 39.5t38.5 16.5q24 0 40 -15.5t16 -36.5q0 -24 -16 -41z" />
    <glyph glyph-name="yacute" unicode="&#xfd;" horiz-adv-x="445" 
d="M15 -199.5q-23 15.5 -23 48.5q0 19 15 35.5t38 16.5q18 0 32.5 -10.5t14.5 -35.5v-23q26 6 52 44t52 96.5t11 28.5l-146 362q-8 19 -28 31.5t-42 15.5v29h201v-32q-28 -2 -39 -6t-11 -15q0 -8 4 -17l105 -256h3l92 237q6 15 6 24q0 17 -14 25t-43 12v28h167v-27
q-15 -3 -39 -19.5t-32 -34.5l-156 -373q-38 -89 -70 -133t-55.5 -55.5t-49.5 -11.5q-22 0 -45 15.5zM147 522q71 110 92 152q13 24 26 33t32 9q16 0 27 -11t11 -25q0 -18 -7 -27.5t-27 -26.5l-36 -29q-15 -13 -40 -33t-65 -53z" />
    <glyph glyph-name="thorn" unicode="&#xfe;" horiz-adv-x="527" 
d="M462.5 105.5q-30.5 -55.5 -81 -87t-106.5 -31.5q-68 0 -109 32h-4v-154q0 -32 24.5 -44.5t67.5 -15.5v-31h-250v31q44 2 60.5 12.5t16.5 41.5v775q0 40 -22.5 54t-65.5 17v30l163 11l6 -7v-325l3 -1q21 24 55 43t75 19q54 0 99.5 -30.5t72 -86.5t26.5 -129
q0 -68 -30.5 -123.5zM367 367.5q-34 57.5 -103 57.5q-60 0 -102 -47v-280q10 -30 38 -54.5t72 -24.5q37 0 66 24.5t46 72t17 113.5q0 81 -34 138.5z" />
    <glyph glyph-name="ydieresis" unicode="&#xff;" horiz-adv-x="445" 
d="M15 -199.5q-23 15.5 -23 48.5q0 19 15 35.5t38 16.5q18 0 32.5 -10.5t14.5 -35.5v-23q26 6 52 44t52 96.5t11 28.5l-146 362q-8 19 -28 31.5t-42 15.5v29h201v-32q-28 -2 -39 -6t-11 -15q0 -8 4 -17l105 -256h3l92 237q6 15 6 24q0 17 -14 25t-43 12v28h167v-27
q-15 -3 -39 -19.5t-32 -34.5l-156 -373q-38 -89 -70 -133t-55.5 -55.5t-49.5 -11.5q-22 0 -45 15.5zM157.5 577q-16.5 -17 -40.5 -17q-22 0 -38 16t-16 38q0 23 16 39.5t38 16.5q24 0 40.5 -15.5t16.5 -36.5q0 -24 -16.5 -41zM364 577q-16 -17 -40 -17q-23 0 -39 16t-16 38
q0 23 16.5 39.5t38.5 16.5q24 0 40 -15.5t16 -36.5q0 -24 -16 -41z" />
    <glyph glyph-name="Amacron" unicode="&#x100;" horiz-adv-x="659" 
d="M389 33q49 3 72 9t23 27q0 6 -3 15l-58 155h-234l-37 -107q-9 -28 -9 -46q0 -30 24 -40t82 -13v-33h-271v33q91 4 121 86l220 575h37l221 -595q12 -33 41 -48.5t65 -17.5v-33h-294v33zM204 281h204l-103 274zM173 877h314v-59h-314v59z" />
    <glyph glyph-name="amacron" unicode="&#x101;" horiz-adv-x="459" 
d="M68 18.5q-30 29.5 -30 82.5q0 65 43 98.5t125 56.5l39 12q27 8 37.5 24t10.5 44q0 42 -19.5 63t-63.5 21q-28 0 -47 -9t-19 -26v-36q0 -51 -41 -51q-24 0 -33.5 14t-9.5 33q0 27 20.5 51.5t59 40t91.5 15.5q69 0 106.5 -32t37.5 -113v-190q0 -39 6.5 -60t27.5 -21l38 42
l23 -19l-47 -59q-19 -9 -47 -9q-32 0 -51.5 15t-31.5 49h-3q-26 -31 -64 -48.5t-77 -17.5q-51 0 -81 29.5zM265 68q28 32 28 105v75l-67 -19q-58 -15 -80 -42.5t-22 -68.5q0 -40 18 -61t53 -21q42 0 70 32zM78 633h314v-59h-314v59z" />
    <glyph glyph-name="Abreve" unicode="&#x102;" horiz-adv-x="659" 
d="M389 33q49 3 72 9t23 27q0 6 -3 15l-58 155h-234l-37 -107q-9 -28 -9 -46q0 -30 24 -40t82 -13v-33h-271v33q91 4 121 86l220 575h37l221 -595q12 -33 41 -48.5t65 -17.5v-33h-294v33zM204 281h204l-103 274zM414 793.5q-38 -33.5 -85 -33.5t-84.5 33.5t-61.5 127.5l18 6
q21 -50 52.5 -72t75.5 -22q45 0 76 22t53 72l18 -6q-24 -94 -62 -127.5z" />
    <glyph glyph-name="abreve" unicode="&#x103;" horiz-adv-x="459" 
d="M68 18.5q-30 29.5 -30 82.5q0 65 43 98.5t125 56.5l39 12q27 8 37.5 24t10.5 44q0 42 -19.5 63t-63.5 21q-28 0 -47 -9t-19 -26v-36q0 -51 -41 -51q-24 0 -33.5 14t-9.5 33q0 27 20.5 51.5t59 40t91.5 15.5q69 0 106.5 -32t37.5 -113v-190q0 -39 6.5 -60t27.5 -21l38 42
l23 -19l-47 -59q-19 -9 -47 -9q-32 0 -51.5 15t-31.5 49h-3q-26 -31 -64 -48.5t-77 -17.5q-51 0 -81 29.5zM265 68q28 32 28 105v75l-67 -19q-58 -15 -80 -42.5t-22 -68.5q0 -40 18 -61t53 -21q42 0 70 32zM319 549.5q-38 -33.5 -85 -33.5t-84.5 33.5t-61.5 127.5l18 6
q21 -50 52.5 -72t75.5 -22q45 0 76 22t53 72l18 -6q-24 -94 -62 -127.5z" />
    <glyph glyph-name="Aogonek" unicode="&#x104;" horiz-adv-x="659" 
d="M389 33q49 3 72 9t23 27q0 6 -3 15l-58 155h-234l-37 -107q-9 -28 -9 -46q0 -30 24 -40t82 -13v-33h-271v33q91 4 121 86l220 575h37l221 -595q12 -33 41 -48.5t65 -17.5v-33h-294v33zM204 281h204l-103 274zM641 -223q-53 0 -84 20.5t-31 59.5q0 41 28.5 75t88.5 68h40
q-82 -75 -82 -137q0 -26 13.5 -38t45.5 -12q19 0 48 6v-35q-34 -7 -67 -7z" />
    <glyph glyph-name="aogonek" unicode="&#x105;" horiz-adv-x="459" 
d="M354.5 -175q13.5 -12 45.5 -12q20 0 48 6v-35q-34 -7 -67 -7q-53 0 -84 20.5t-31 59.5q0 38 25 70.5t77 63.5q-29 2 -46.5 17.5t-28.5 46.5h-3q-26 -31 -64 -48.5t-77 -17.5q-51 0 -81 29.5t-30 82.5q0 65 43 98.5t125 56.5l39 12q27 8 37.5 24t10.5 44q0 42 -19.5 63
t-63.5 21q-28 0 -47 -9t-19 -26v-36q0 -51 -41 -51q-24 0 -33.5 14t-9.5 33q0 27 20.5 51.5t59 40t91.5 15.5q69 0 106.5 -32t37.5 -113v-190q0 -39 6.5 -60t27.5 -21l38 42l23 -19l-47 -59q-82 -75 -82 -137q0 -26 13.5 -38zM293 248l-67 -19q-58 -15 -80 -42.5t-22 -68.5
q0 -40 18 -61t53 -21q42 0 70 32t28 105v75z" />
    <glyph glyph-name="Cacute" unicode="&#x106;" horiz-adv-x="618" 
d="M510 38.5q-62 -53.5 -161 -53.5q-93 0 -164 43t-109.5 122t-38.5 183q0 100 43.5 183t120 131t169.5 48q37 0 78.5 -16.5t62.5 -38.5l28 53h40v-254h-36q-22 93 -71.5 155.5t-134.5 62.5q-51 0 -95 -33.5t-71 -105t-27 -179.5q0 -82 31.5 -149t85 -106t115.5 -39
q82 0 126 36.5t74 107.5l31 -16q-35 -81 -97 -134.5zM254 766q71 110 92 152q13 24 26 33t32 9q16 0 27 -11t11 -25q0 -18 -7 -27.5t-27 -26.5l-36 -29q-15 -13 -40 -33t-65 -53z" />
    <glyph glyph-name="cacute" unicode="&#x107;" horiz-adv-x="424" 
d="M345.5 19q-47.5 -30 -110.5 -30q-61 0 -107 29.5t-70.5 80.5t-24.5 115q0 67 26.5 121t76 85.5t115.5 31.5q70 0 109 -33.5t39 -81.5q0 -28 -13.5 -43t-35.5 -15q-21 0 -37.5 13t-16.5 43v38q0 46 -48 46q-33 0 -61.5 -20.5t-46 -62.5t-17.5 -104q0 -91 38 -143.5
t105 -52.5q43 0 73 21t56 63l29 -20q-31 -51 -78.5 -81zM158 522q71 110 92 152q13 24 26 33t32 9q16 0 27 -11t11 -25q0 -18 -7 -27.5t-27 -26.5l-36 -29q-15 -13 -40 -33t-65 -53z" />
    <glyph glyph-name="Ccaron" unicode="&#x10c;" horiz-adv-x="618" 
d="M510 38.5q-62 -53.5 -161 -53.5q-93 0 -164 43t-109.5 122t-38.5 183q0 100 43.5 183t120 131t169.5 48q37 0 78.5 -16.5t62.5 -38.5l28 53h40v-254h-36q-22 93 -71.5 155.5t-134.5 62.5q-51 0 -95 -33.5t-71 -105t-27 -179.5q0 -82 31.5 -149t85 -106t115.5 -39
q82 0 126 36.5t74 107.5l31 -16q-35 -81 -97 -134.5zM369 782q-9 -15 -15 -18.5t-26 -3.5t-25.5 3t-14.5 17q-5 7 -40 62q-34 56 -71 111l19 12l134 -136l132 136l17 -12z" />
    <glyph glyph-name="ccaron" unicode="&#x10d;" horiz-adv-x="424" 
d="M345.5 19q-47.5 -30 -110.5 -30q-61 0 -107 29.5t-70.5 80.5t-24.5 115q0 67 26.5 121t76 85.5t115.5 31.5q70 0 109 -33.5t39 -81.5q0 -28 -13.5 -43t-35.5 -15q-21 0 -37.5 13t-16.5 43v38q0 46 -48 46q-33 0 -61.5 -20.5t-46 -62.5t-17.5 -104q0 -91 38 -143.5
t105 -52.5q43 0 73 21t56 63l29 -20q-31 -51 -78.5 -81zM273 538q-9 -15 -15 -18.5t-26 -3.5t-25.5 3t-14.5 17q-5 7 -40 62q-34 56 -71 111l19 12l134 -136l132 136l17 -12z" />
    <glyph glyph-name="Dcaron" unicode="&#x10e;" horiz-adv-x="739" 
d="M650 150q-53 -76 -138 -113t-181 -37h-287v33q51 0 75.5 11.5t24.5 46.5v493q0 35 -25.5 49t-70.5 17v33h302q77 0 158 -32t138 -109.5t57 -204.5q0 -111 -53 -187zM559 498q-34 70 -95.5 109t-141.5 39h-84v-530q0 -78 105 -78q125 0 187.5 80t62.5 220q0 90 -34 160z
M409 782q-9 -15 -15 -18.5t-26 -3.5t-25.5 3t-14.5 17q-5 7 -40 62q-34 56 -71 111l19 12l134 -136l132 136l17 -12z" />
    <glyph glyph-name="dcaron" unicode="&#x10f;" horiz-adv-x="533" 
d="M368 45l-5 1q-21 -23 -53.5 -41t-71.5 -18q-57 0 -103.5 29.5t-74 83.5t-27.5 126q0 64 30.5 115.5t81 81t106.5 29.5q59 0 115 -28v209q-3 30 -15.5 45.5t-33.5 21t-60 8.5v27l183 11h7v-653q0 -32 20 -42.5t61 -13.5v-28l-150 -11zM336 389q-30 30 -81 30
q-37 0 -66.5 -24.5t-47 -71t-17.5 -109.5q0 -77 35.5 -128.5t107.5 -51.5q32 0 54.5 13t44.5 37v227q0 48 -30 78zM593 541q-42 -49 -91 -73l-20 33q52 29 79 60.5t27 78.5h-26q-34 0 -50 17.5t-16 40.5q0 24 16 41t46 17q36 0 56.5 -27.5t20.5 -72.5q0 -66 -42 -115z" />
    <glyph glyph-name="Emacron" unicode="&#x112;" horiz-adv-x="632" 
d="M39 0v33q39 2 60 6.5t33 16.5t12 37v491q0 34 -28.5 48.5t-76.5 17.5v33h518v-163h-35q-16 74 -58 100.5t-122 26.5h-104v-274h77q52 0 77.5 28.5t31.5 88.5h35v-277h-35q-4 62 -30.5 92t-78.5 30h-77v-205q0 -42 8.5 -60.5t31 -24.5t73.5 -6q79 0 117 10.5t61 43
t46 106.5h33l-12 -199h-557zM160 877h314v-59h-314v59z" />
    <glyph glyph-name="emacron" unicode="&#x113;" horiz-adv-x="443" 
d="M352.5 20.5q-47.5 -31.5 -105.5 -31.5q-106 0 -160 66t-54 169q0 58 25 110.5t70.5 85t105.5 32.5q94 0 137.5 -52.5t43.5 -134.5v-25h-295q0 -97 36.5 -151t113.5 -54q45 0 72 20.5t54 65.5l28 -18q-24 -51 -71.5 -82.5zM318.5 283.5q9.5 8.5 9.5 24.5q0 44 -23 77.5
t-70 33.5q-48 0 -80.5 -40t-34.5 -106l173 2q16 0 25.5 8.5zM79 633h314v-59h-314v59z" />
    <glyph glyph-name="Edotaccent" unicode="&#x116;" horiz-adv-x="632" 
d="M39 0v33q39 2 60 6.5t33 16.5t12 37v491q0 34 -28.5 48.5t-76.5 17.5v33h518v-163h-35q-16 74 -58 100.5t-122 26.5h-104v-274h77q52 0 77.5 28.5t31.5 88.5h35v-277h-35q-4 62 -30.5 92t-78.5 30h-77v-205q0 -42 8.5 -60.5t31 -24.5t73.5 -6q79 0 117 10.5t61 43
t46 106.5h33l-12 -199h-557zM355.5 841.5q-16.5 -17.5 -39.5 -17.5t-39 16t-16 38q0 23 16.5 39.5t38.5 16.5q24 0 40 -15.5t16 -36.5q0 -23 -16.5 -40.5z" />
    <glyph glyph-name="edotaccent" unicode="&#x117;" horiz-adv-x="443" 
d="M352.5 20.5q-47.5 -31.5 -105.5 -31.5q-106 0 -160 66t-54 169q0 58 25 110.5t70.5 85t105.5 32.5q94 0 137.5 -52.5t43.5 -134.5v-25h-295q0 -97 36.5 -151t113.5 -54q45 0 72 20.5t54 65.5l28 -18q-24 -51 -71.5 -82.5zM318.5 283.5q9.5 8.5 9.5 24.5q0 44 -23 77.5
t-70 33.5q-48 0 -80.5 -40t-34.5 -106l173 2q16 0 25.5 8.5zM274.5 597.5q-16.5 -17.5 -39.5 -17.5t-39 16t-16 38q0 23 16.5 39.5t38.5 16.5q24 0 40 -15.5t16 -36.5q0 -23 -16.5 -40.5z" />
    <glyph glyph-name="Eogonek" unicode="&#x118;" horiz-adv-x="632" 
d="M39 0v33q39 2 60 6.5t33 16.5t12 37v491q0 34 -28.5 48.5t-76.5 17.5v33h518v-163h-35q-16 74 -58 100.5t-122 26.5h-104v-274h77q52 0 77.5 28.5t31.5 88.5h35v-277h-35q-4 62 -30.5 92t-78.5 30h-77v-205q0 -42 8.5 -60.5t31 -24.5t73.5 -6q79 0 117 10.5t61 43
t46 106.5h33l-12 -199h-557zM554 -223q-53 0 -84 20.5t-31 59.5q0 41 28.5 75t88.5 68h40q-82 -75 -82 -137q0 -26 13.5 -38t45.5 -12q19 0 48 6v-35q-34 -7 -67 -7z" />
    <glyph glyph-name="eogonek" unicode="&#x119;" horiz-adv-x="443" 
d="M308.5 -129q13.5 -12 45.5 -12q19 0 48 6v-35q-34 -7 -67 -7q-53 0 -84 20.5t-31 59.5q0 47 39 86h-12q-106 0 -160 66t-54 169q0 58 25 110.5t70.5 85t105.5 32.5q94 0 137.5 -52.5t43.5 -134.5v-25h-295q0 -97 36.5 -151t113.5 -54q45 0 72 20.5t54 65.5l28 -18
q-24 -53 -75 -85q-54 -59 -54 -109q0 -26 13.5 -38zM154.5 379q-32.5 -40 -34.5 -106l173 2q16 0 25.5 8.5t9.5 24.5q0 44 -23 77.5t-70 33.5q-48 0 -80.5 -40z" />
    <glyph glyph-name="Ecaron" unicode="&#x11a;" horiz-adv-x="632" 
d="M39 0v33q39 2 60 6.5t33 16.5t12 37v491q0 34 -28.5 48.5t-76.5 17.5v33h518v-163h-35q-16 74 -58 100.5t-122 26.5h-104v-274h77q52 0 77.5 28.5t31.5 88.5h35v-277h-35q-4 62 -30.5 92t-78.5 30h-77v-205q0 -42 8.5 -60.5t31 -24.5t73.5 -6q79 0 117 10.5t61 43
t46 106.5h33l-12 -199h-557zM357 782q-9 -15 -15 -18.5t-26 -3.5t-25.5 3t-14.5 17q-5 7 -40 62q-34 56 -71 111l19 12l134 -136l132 136l17 -12z" />
    <glyph glyph-name="ecaron" unicode="&#x11b;" horiz-adv-x="443" 
d="M352.5 20.5q-47.5 -31.5 -105.5 -31.5q-106 0 -160 66t-54 169q0 58 25 110.5t70.5 85t105.5 32.5q94 0 137.5 -52.5t43.5 -134.5v-25h-295q0 -97 36.5 -151t113.5 -54q45 0 72 20.5t54 65.5l28 -18q-24 -51 -71.5 -82.5zM318.5 283.5q9.5 8.5 9.5 24.5q0 44 -23 77.5
t-70 33.5q-48 0 -80.5 -40t-34.5 -106l173 2q16 0 25.5 8.5zM276 538q-9 -15 -15 -18.5t-26 -3.5t-25.5 3t-14.5 17q-5 7 -40 62q-34 56 -71 111l19 12l134 -136l132 136l17 -12z" />
    <glyph glyph-name="Imacron" unicode="&#x12a;" horiz-adv-x="387" 
d="M47 33q38 2 57 5.5t30.5 15t11.5 36.5v495q0 59 -99 65v33h293v-33q-51 -3 -75.5 -14.5t-24.5 -45.5v-495q0 -33 26.5 -46t73.5 -16v-33h-293v33zM36 877h314v-59h-314v59z" />
    <glyph glyph-name="imacron" unicode="&#x12b;" horiz-adv-x="273" 
d="M34 31q39 3 54 11.5t15 38.5v280q0 60 -82 66v30l156 11l7 -7v-374q0 -52 67 -56v-31h-217v31zM-19 656h314v-59h-314v59z" />
    <glyph glyph-name="Iogonek" unicode="&#x12e;" horiz-adv-x="387" 
d="M47 33q38 2 57 5.5t30.5 15t11.5 36.5v495q0 59 -99 65v33h293v-33q-51 -3 -75.5 -14.5t-24.5 -45.5v-495q0 -33 26.5 -46t73.5 -16v-33h-293v33zM298 -223q-53 0 -84 20.5t-31 59.5q0 41 28.5 75t88.5 68h40q-82 -75 -82 -137q0 -26 13.5 -38t45.5 -12q19 0 48 6v-35
q-34 -7 -67 -7z" />
    <glyph glyph-name="iogonek" unicode="&#x12f;" horiz-adv-x="273" 
d="M34 31q39 3 54 11.5t15 38.5v280q0 60 -82 66v30l156 11l7 -7v-374q0 -52 67 -56v-31h-217v31zM176.5 620.5q-16.5 -17.5 -39.5 -17.5t-39 16t-16 38q0 23 16.5 39.5t38.5 16.5q24 0 40 -15.5t16 -36.5q0 -23 -16.5 -40.5zM209 -223q-53 0 -84 20.5t-31 59.5
q0 41 28.5 75t88.5 68h40q-82 -75 -82 -137q0 -26 13.5 -38t45.5 -12q19 0 48 6v-35q-34 -7 -67 -7z" />
    <glyph glyph-name="dotlessi" unicode="&#x131;" horiz-adv-x="273" 
d="M34 31q39 3 54 11.5t15 38.5v280q0 60 -82 66v30l156 11l7 -7v-374q0 -52 67 -56v-31h-217v31z" />
    <glyph glyph-name="Lacute" unicode="&#x139;" horiz-adv-x="596" 
d="M46 0v33q36 2 55.5 6.5t31 16.5t11.5 37v489q0 34 -28 49.5t-70 18.5v33h291v-33q-51 -3 -75 -15.5t-24 -47.5v-459q0 -45 7 -63t28.5 -23.5t77.5 -5.5q92 0 141 36.5t74 128.5h31l-15 -201h-536zM117 766q71 110 92 152q13 24 26 33t32 9q16 0 27 -11t11 -25
q0 -18 -7 -27.5t-27 -26.5l-36 -29q-15 -13 -40 -33t-65 -53z" />
    <glyph glyph-name="lacute" unicode="&#x13a;" horiz-adv-x="267" 
d="M26 29q37 3 52 11.5t15 36.5v559q0 37 -24 53t-68 18v28l167 11h6v-663q0 -27 19 -39.5t49 -14.5v-29h-216v29zM58 829q71 110 92 152q13 24 26 33t32 9q16 0 27 -11t11 -25q0 -18 -7 -27.5t-27 -26.5l-36 -29q-15 -13 -40 -33t-65 -53z" />
    <glyph glyph-name="Lcaron" unicode="&#x13d;" horiz-adv-x="588" 
d="M46 0v33q36 2 55.5 6.5t31 16.5t11.5 37v489q0 34 -28 49.5t-70 18.5v33h291v-33q-51 -3 -75 -15.5t-24 -47.5v-459q0 -45 7 -63t28.5 -23.5t77.5 -5.5q92 0 141 36.5t74 128.5h31l-15 -201h-536zM503 478q-42 -49 -91 -73l-20 33q52 29 79 60.5t27 78.5h-26
q-34 0 -50 17.5t-16 40.5q0 24 16 41t46 17q36 0 56.5 -27.5t20.5 -72.5q0 -66 -42 -115z" />
    <glyph glyph-name="lcaron" unicode="&#x13e;" horiz-adv-x="264" 
d="M26 29q37 3 52 11.5t15 36.5v559q0 37 -24 53t-68 18v28l167 11h6v-663q0 -27 19 -39.5t49 -14.5v-29h-216v29zM318 541q-42 -49 -91 -73l-20 33q52 29 79 60.5t27 78.5h-26q-34 0 -50 17.5t-16 40.5q0 24 16 41t46 17q36 0 56.5 -27.5t20.5 -72.5q0 -66 -42 -115z" />
    <glyph glyph-name="Lslash" unicode="&#x141;" horiz-adv-x="626" 
d="M597 201l-15 -201h-536v33q36 2 55.5 6.5t31 16.5t11.5 37v199l-82 -31l-13 39l95 36v246q0 34 -28 49.5t-70 18.5v33h291v-33q-51 -3 -75 -15.5t-24 -47.5v-215l156 60l13 -40l-169 -64v-200q0 -45 7 -63t28.5 -23.5t77.5 -5.5q92 0 141 36.5t74 128.5h31z" />
    <glyph glyph-name="lslash" unicode="&#x142;" horiz-adv-x="267" 
d="M193 43.5q19 -12.5 49 -14.5v-29h-216v29q37 3 52 11.5t15 36.5v181l-76 -28l-14 39l90 33v334q0 37 -24 53t-68 18v28l167 11h6v-414l75 28l14 -40l-89 -33v-204q0 -27 19 -39.5z" />
    <glyph glyph-name="Nacute" unicode="&#x143;" horiz-adv-x="759" 
d="M683.5 631.5q-25.5 -16.5 -33 -48t-7.5 -90.5v-501h-37l-423 565v-356q0 -62 10 -96t38 -51.5t83 -20.5v-33h-295v33q54 2 79.5 19.5t33 50t7.5 93.5v333q0 36 -20 64t-50.5 43t-62.5 14v33h195l398 -535v339q0 61 -9.5 94.5t-37.5 50t-83 18.5v33h294v-33
q-54 -2 -79.5 -18.5zM304 766q71 110 92 152q13 24 26 33t32 9q16 0 27 -11t11 -25q0 -18 -7 -27.5t-27 -26.5l-36 -29q-15 -13 -40 -33t-65 -53z" />
    <glyph glyph-name="nacute" unicode="&#x144;" horiz-adv-x="558" 
d="M534 29v-29h-221v29q40 3 56.5 11t16.5 37v221q0 46 -24.5 74t-55.5 28q-48 0 -80 -22.5t-44 -45.5v-250q0 -48 71 -53v-29h-220v29q37 3 52.5 11.5t15.5 36.5v266q-3 33 -21.5 47t-50.5 16v28l147 11h6v-71h2q4 4 28.5 28t56 37t69.5 13q64 0 97 -40.5t33 -110.5v-220
q0 -49 66 -52zM204 522q71 110 92 152q13 24 26 33t32 9q16 0 27 -11t11 -25q0 -18 -7 -27.5t-27 -26.5l-36 -29q-15 -13 -40 -33t-65 -53z" />
    <glyph glyph-name="Ncaron" unicode="&#x147;" horiz-adv-x="759" 
d="M683.5 631.5q-25.5 -16.5 -33 -48t-7.5 -90.5v-501h-37l-423 565v-356q0 -62 10 -96t38 -51.5t83 -20.5v-33h-295v33q54 2 79.5 19.5t33 50t7.5 93.5v333q0 36 -20 64t-50.5 43t-62.5 14v33h195l398 -535v339q0 61 -9.5 94.5t-37.5 50t-83 18.5v33h294v-33
q-54 -2 -79.5 -18.5zM419 782q-9 -15 -15 -18.5t-26 -3.5t-25.5 3t-14.5 17q-5 7 -40 62q-34 56 -71 111l19 12l134 -136l132 136l17 -12z" />
    <glyph glyph-name="ncaron" unicode="&#x148;" horiz-adv-x="558" 
d="M534 29v-29h-221v29q40 3 56.5 11t16.5 37v221q0 46 -24.5 74t-55.5 28q-48 0 -80 -22.5t-44 -45.5v-250q0 -48 71 -53v-29h-220v29q37 3 52.5 11.5t15.5 36.5v266q-3 33 -21.5 47t-50.5 16v28l147 11h6v-71h2q4 4 28.5 28t56 37t69.5 13q64 0 97 -40.5t33 -110.5v-220
q0 -49 66 -52zM319 538q-9 -15 -15 -18.5t-26 -3.5t-25.5 3t-14.5 17q-5 7 -40 62q-34 56 -71 111l19 12l134 -136l132 136l17 -12z" />
    <glyph glyph-name="Omacron" unicode="&#x14c;" horiz-adv-x="734" 
d="M198 30.5q-75 46.5 -118 127t-43 176.5q0 105 42.5 188t117.5 130t171 47q94 0 169 -46t117.5 -127t42.5 -180q0 -108 -43 -190t-118.5 -127t-171.5 -45q-91 0 -166 46.5zM532.5 113.5q56.5 87.5 56.5 229.5q0 84 -22.5 155t-72 115t-126.5 44q-105 0 -164.5 -84
t-59.5 -234q0 -89 25 -160t75.5 -112t123.5 -41q108 0 164.5 87.5zM211 877h314v-59h-314v59z" />
    <glyph glyph-name="omacron" unicode="&#x14d;" horiz-adv-x="544" 
d="M478 104q-28 -54 -83 -85.5t-130 -31.5q-60 0 -113 28.5t-85 81t-32 121.5q0 68 30 121.5t84.5 83t124.5 29.5t122.5 -30t81 -81.5t28.5 -116.5q0 -66 -28 -120zM380.5 361.5q-33.5 57.5 -106.5 57.5q-79 0 -113 -58t-34 -136q0 -88 37 -147t110 -59q69 0 104.5 57.5
t35.5 145.5q0 82 -33.5 139.5zM116 633h314v-59h-314v59z" />
    <glyph glyph-name="OE" unicode="&#x152;" horiz-adv-x="966" 
d="M184 44.5q-69 44.5 -108 122.5t-39 174q0 95 38.5 173t108 123.5t158.5 45.5h550l-1 -163h-34q-17 75 -59.5 101t-119.5 26h-90v-274h59q51 0 76.5 28t32.5 89h35v-277h-35q-4 65 -30.5 93.5t-78.5 28.5h-59v-205q0 -42 8 -60.5t29.5 -24.5t69.5 -6q73 0 109.5 12
t57 44.5t42.5 103.5h35l-13 -199h-587q-86 0 -155 44.5zM460 66q31 36 38 96.5t8 181.5v57q0 83 -9.5 135.5t-41.5 84t-95 31.5q-108 0 -162 -87t-54 -223q0 -129 50.5 -220.5t166.5 -91.5q68 0 99 36z" />
    <glyph glyph-name="oe" unicode="&#x153;" horiz-adv-x="825" 
d="M805 103q-24 -51 -71.5 -82.5t-105.5 -31.5q-59 0 -102.5 21.5t-69.5 60.5q-32 -40 -80 -62t-111 -22q-60 0 -113 28.5t-85 81t-32 121.5q0 68 30 121.5t84.5 83t124.5 29.5q59 0 106.5 -22t78.5 -61q28 39 67.5 61t88.5 22q94 0 137.5 -52.5t43.5 -134.5v-25h-290v-16
q0 -13 -2 -35q9 -73 45 -113.5t102 -40.5q45 0 72 20.5t54 65.5zM378.5 76.5q35.5 57.5 35.5 145.5q0 82 -33.5 139.5t-106.5 57.5q-79 0 -113 -58t-34 -136q0 -88 37 -147t110 -59q69 0 104.5 57.5zM536.5 379.5q-32.5 -39.5 -35.5 -104.5v-2l173 2q16 0 25.5 8.5t9.5 24.5
q0 44 -23 77.5t-70 33.5t-79.5 -39.5z" />
    <glyph glyph-name="Racute" unicode="&#x154;" horiz-adv-x="685" 
d="M444 199q-13 42 -37 71.5t-64 58.5h-105v-237q0 -27 12.5 -39t30 -15t59.5 -5v-33h-294v33q36 2 55.5 6.5t31 16.5t11.5 37v495q0 36 -24 47.5t-74 14.5v33h329q48 0 92 -17t72 -53.5t28 -92.5q0 -72 -48 -110t-130 -54v-12q53 -14 93.5 -42t60.5 -85l48 -137
q9 -31 47 -38l65 -9v-33h-193zM419 613.5q-37 31.5 -94 31.5h-87v-278h61q68 0 112.5 42t44.5 110q0 63 -37 94.5zM267 766q71 110 92 152q13 24 26 33t32 9q16 0 27 -11t11 -25q0 -18 -7 -27.5t-27 -26.5l-36 -29q-15 -13 -40 -33t-65 -53z" />
    <glyph glyph-name="racute" unicode="&#x155;" horiz-adv-x="375" 
d="M353 432.5q18 -17.5 18 -43.5t-14 -45t-37 -19q-48 0 -48 46v24h-7q-12 0 -32 -30t-35.5 -86t-15.5 -130v-67q0 -30 21.5 -40t66.5 -13v-29h-237v29q38 3 53 11t15 37v266q-3 33 -21.5 47t-50.5 16v28l147 11h6v-111h2q29 65 60.5 90.5t65.5 25.5q25 0 43 -17.5zM113 522
q71 110 92 152q13 24 26 33t32 9q16 0 27 -11t11 -25q0 -18 -7 -27.5t-27 -26.5l-36 -29q-15 -13 -40 -33t-65 -53z" />
    <glyph glyph-name="Rcaron" unicode="&#x158;" horiz-adv-x="685" 
d="M444 199q-13 42 -37 71.5t-64 58.5h-105v-237q0 -27 12.5 -39t30 -15t59.5 -5v-33h-294v33q36 2 55.5 6.5t31 16.5t11.5 37v495q0 36 -24 47.5t-74 14.5v33h329q48 0 92 -17t72 -53.5t28 -92.5q0 -72 -48 -110t-130 -54v-12q53 -14 93.5 -42t60.5 -85l48 -137
q9 -31 47 -38l65 -9v-33h-193zM419 613.5q-37 31.5 -94 31.5h-87v-278h61q68 0 112.5 42t44.5 110q0 63 -37 94.5zM382 782q-9 -15 -15 -18.5t-26 -3.5t-25.5 3t-14.5 17q-5 7 -40 62q-34 56 -71 111l19 12l134 -136l132 136l17 -12z" />
    <glyph glyph-name="rcaron" unicode="&#x159;" horiz-adv-x="375" 
d="M353 432.5q18 -17.5 18 -43.5t-14 -45t-37 -19q-48 0 -48 46v24h-7q-12 0 -32 -30t-35.5 -86t-15.5 -130v-67q0 -30 21.5 -40t66.5 -13v-29h-237v29q38 3 53 11t15 37v266q-3 33 -21.5 47t-50.5 16v28l147 11h6v-111h2q29 65 60.5 90.5t65.5 25.5q25 0 43 -17.5zM228 538
q-9 -15 -15 -18.5t-26 -3.5t-25.5 3t-14.5 17q-5 7 -40 62q-34 56 -71 111l19 12l134 -136l132 136l17 -12z" />
    <glyph glyph-name="Sacute" unicode="&#x15a;" horiz-adv-x="525" 
d="M460.5 86.5q-28.5 -47.5 -78.5 -73.5t-113 -26q-48 0 -88.5 14.5t-64.5 35.5l-33 -47h-31v241h29q23 -63 47.5 -106.5t63.5 -70t95 -26.5q60 0 88.5 31.5t28.5 83.5q0 47 -21.5 81.5t-64.5 52.5q-20 8 -59.5 25.5t-79.5 36.5q-49 23 -81.5 61.5t-32.5 107.5q0 57 26 99.5
t68.5 65t91.5 22.5q40 0 78.5 -14.5t64.5 -35.5l32 48h32v-236h-30q-30 93 -69.5 145.5t-110.5 52.5q-105 0 -105 -97q0 -41 19 -66.5t58 -52.5q27 -17 72 -35q43 -19 58 -26q46 -22 75 -44t46.5 -55.5t17.5 -82.5q0 -62 -28.5 -109.5zM188 766q71 110 92 152q13 24 26 33
t32 9q16 0 27 -11t11 -25q0 -18 -7 -27.5t-27 -26.5l-36 -29q-15 -13 -40 -33t-65 -53z" />
    <glyph glyph-name="sacute" unicode="&#x15b;" horiz-adv-x="386" 
d="M304.5 24.5q-44.5 -38.5 -109.5 -38.5q-37 0 -71 12.5t-49 27.5l-9 -31h-32v153h30q12 -47 45.5 -87.5t95.5 -40.5q40 0 61 20t21 56q0 29 -13.5 45.5t-32.5 25t-64 22.5q-58 19 -94.5 48.5t-36.5 85.5t39 92.5t103 36.5q28 0 56 -7t45 -19l7 26h31v-137h-30
q-7 45 -35.5 74t-78.5 29q-36 0 -55 -17t-19 -49q0 -23 11 -37.5t33 -25t66 -25.5q64 -21 97 -52.5t33 -83.5q0 -65 -44.5 -103.5zM118 522q71 110 92 152q13 24 26 33t32 9q16 0 27 -11t11 -25q0 -18 -7 -27.5t-27 -26.5l-36 -29q-15 -13 -40 -33t-65 -53z" />
    <glyph glyph-name="Scedilla" unicode="&#x15e;" horiz-adv-x="525" 
d="M462 88.5q-27 -46.5 -75 -73t-108 -28.5v-43q51 0 88 -16t37 -59q0 -47 -35.5 -70t-94.5 -23q-37 0 -72 7v36q47 -15 73 -15q61 0 61 47q0 24 -24.5 30.5t-65.5 6.5v100q-41 4 -75 17.5t-55 31.5l-33 -47h-31v241h29q23 -63 47.5 -106.5t63.5 -70t95 -26.5
q60 0 88.5 31.5t28.5 83.5q0 47 -21.5 81.5t-64.5 52.5q-20 8 -59.5 25.5t-79.5 36.5q-49 23 -81.5 61.5t-32.5 107.5q0 57 26 99.5t68.5 65t91.5 22.5q40 0 78.5 -14.5t64.5 -35.5l32 48h32v-236h-30q-30 93 -69.5 145.5t-110.5 52.5q-105 0 -105 -97q0 -41 19 -66.5
t58 -52.5q27 -17 72 -35q43 -19 58 -26q46 -22 75 -44t46.5 -55.5t17.5 -82.5q0 -61 -27 -107.5z" />
    <glyph glyph-name="scedilla" unicode="&#x15f;" horiz-adv-x="386" 
d="M297 -72q37 -16 37 -59q0 -47 -35.5 -70t-94.5 -23q-37 0 -72 7v36q47 -15 73 -15q61 0 61 47q0 24 -24.5 30.5t-65.5 6.5v99q-32 3 -60 14.5t-41 24.5l-9 -31h-32v153h30q12 -47 45.5 -87.5t95.5 -40.5q40 0 61 20t21 56q0 29 -13.5 45.5t-32.5 25t-64 22.5
q-58 19 -94.5 48.5t-36.5 85.5t39 92.5t103 36.5q28 0 56 -7t45 -19l7 26h31v-137h-30q-7 45 -35.5 74t-78.5 29q-36 0 -55 -17t-19 -49q0 -23 11 -37.5t33 -25t66 -25.5q64 -21 97 -52.5t33 -83.5q0 -61 -40 -99t-100 -42v-43q51 0 88 -16z" />
    <glyph glyph-name="Scaron" unicode="&#x160;" horiz-adv-x="525" 
d="M460.5 86.5q-28.5 -47.5 -78.5 -73.5t-113 -26q-48 0 -88.5 14.5t-64.5 35.5l-33 -47h-31v241h29q23 -63 47.5 -106.5t63.5 -70t95 -26.5q60 0 88.5 31.5t28.5 83.5q0 47 -21.5 81.5t-64.5 52.5q-20 8 -59.5 25.5t-79.5 36.5q-49 23 -81.5 61.5t-32.5 107.5q0 57 26 99.5
t68.5 65t91.5 22.5q40 0 78.5 -14.5t64.5 -35.5l32 48h32v-236h-30q-30 93 -69.5 145.5t-110.5 52.5q-105 0 -105 -97q0 -41 19 -66.5t58 -52.5q27 -17 72 -35q43 -19 58 -26q46 -22 75 -44t46.5 -55.5t17.5 -82.5q0 -62 -28.5 -109.5zM303 782q-9 -15 -15 -18.5t-26 -3.5
t-25.5 3t-14.5 17q-5 7 -40 62q-34 56 -71 111l19 12l134 -136l132 136l17 -12z" />
    <glyph glyph-name="scaron" unicode="&#x161;" horiz-adv-x="386" 
d="M304.5 24.5q-44.5 -38.5 -109.5 -38.5q-37 0 -71 12.5t-49 27.5l-9 -31h-32v153h30q12 -47 45.5 -87.5t95.5 -40.5q40 0 61 20t21 56q0 29 -13.5 45.5t-32.5 25t-64 22.5q-58 19 -94.5 48.5t-36.5 85.5t39 92.5t103 36.5q28 0 56 -7t45 -19l7 26h31v-137h-30
q-7 45 -35.5 74t-78.5 29q-36 0 -55 -17t-19 -49q0 -23 11 -37.5t33 -25t66 -25.5q64 -21 97 -52.5t33 -83.5q0 -65 -44.5 -103.5zM233 538q-9 -15 -15 -18.5t-26 -3.5t-25.5 3t-14.5 17q-5 7 -40 62q-34 56 -71 111l19 12l134 -136l132 136l17 -12z" />
    <glyph glyph-name="uni0162" unicode="&#x162;" horiz-adv-x="609" 
d="M601 683v-182h-33q-13 57 -35 88.5t-56.5 44.5t-88.5 13h-37v-548q0 -35 29.5 -49t79.5 -17v-33h-140v-56q51 0 88 -16t37 -59q0 -47 -35.5 -70t-94.5 -23q-37 0 -72 7v36q47 -15 73 -15q61 0 61 47q0 24 -24.5 30.5t-65.5 6.5v112h-136v33q41 3 61 6.5t33 16t13 38.5
v553h-38q-54 0 -88.5 -13t-56.5 -45t-34 -88h-33v182h593z" />
    <glyph glyph-name="uni0163" unicode="&#x163;" horiz-adv-x="328" 
d="M268 -72q37 -16 37 -59q0 -47 -35.5 -70t-94.5 -23q-37 0 -72 7v36q47 -15 73 -15q61 0 61 47q0 24 -24.5 30.5t-65.5 6.5v115q-57 28 -57 118v282h-88v36h2q51 0 78 33t35 103h53v-136h129v-36h-128v-270q0 -45 10.5 -66.5t46.5 -21.5q62 0 69 74l28 -9
q-8 -52 -37 -85.5t-85 -33.5q-9 0 -23 2v-49q51 0 88 -16z" />
    <glyph glyph-name="Tcaron" unicode="&#x164;" horiz-adv-x="609" 
d="M533 589.5q-22 31.5 -56.5 44.5t-88.5 13h-37v-548q0 -35 29.5 -49t79.5 -17v-33h-309v33q41 3 61 6.5t33 16t13 38.5v553h-38q-54 0 -88.5 -13t-56.5 -45t-34 -88h-33v182h593v-182h-33q-13 57 -35 88.5zM344 782q-9 -15 -15 -18.5t-26 -3.5t-25.5 3t-14.5 17
q-5 7 -40 62q-34 56 -71 111l19 12l134 -136l132 136l17 -12z" />
    <glyph glyph-name="tcaron" unicode="&#x165;" horiz-adv-x="324" 
d="M119.5 24.5q-29.5 33.5 -29.5 96.5v282h-88v36h2q51 0 78 33t35 103h53v-136h129v-36h-128v-270q0 -45 10.5 -66.5t46.5 -21.5q62 0 69 74l28 -9q-8 -52 -37 -85.5t-85 -33.5q-54 0 -83.5 33.5zM322 551q-42 -49 -91 -73l-20 33q52 29 79 60.5t27 78.5h-26
q-34 0 -50 17.5t-16 40.5q0 24 16 41t46 17q36 0 56.5 -27.5t20.5 -72.5q0 -66 -42 -115z" />
    <glyph glyph-name="Umacron" unicode="&#x16a;" horiz-adv-x="757" 
d="M246 9.5q-57 25.5 -86 68t-29 90.5v416q0 60 -96 66v33h289v-33q-51 -3 -75 -14.5t-24 -46.5v-385q0 -63 37 -115.5t138 -52.5q71 0 112 29t56.5 68t15.5 74v282q0 62 -9.5 94.5t-37.5 48.5t-84 18v33h296v-33q-55 -2 -80 -18.5t-32 -46.5t-7 -90v-302q0 -76 -40 -122.5
t-96.5 -66.5t-111.5 -20q-79 0 -136 25.5zM221 877h314v-59h-314v59z" />
    <glyph glyph-name="umacron" unicode="&#x16b;" horiz-adv-x="541" 
d="M367 -2v64h-3q-27 -27 -43 -40.5t-43 -23.5t-65 -10q-63 0 -93.5 42t-30.5 113v202q0 55 -72 60v28l148 12h6v-309q0 -47 22 -73.5t56 -26.5q46 0 74 21t43 45v246q-2 26 -13 37.5t-26.5 15t-47.5 4.5v28l163 12h5v-353q3 -31 20.5 -42t50.5 -13v-28l-143 -11h-8z
M114 633h314v-59h-314v59z" />
    <glyph glyph-name="Uring" unicode="&#x16e;" horiz-adv-x="757" 
d="M246 9.5q-57 25.5 -86 68t-29 90.5v416q0 60 -96 66v33h289v-33q-51 -3 -75 -14.5t-24 -46.5v-385q0 -63 37 -115.5t138 -52.5q71 0 112 29t56.5 68t15.5 74v282q0 62 -9.5 94.5t-37.5 48.5t-84 18v33h296v-33q-55 -2 -80 -18.5t-32 -46.5t-7 -90v-302q0 -76 -40 -122.5
t-96.5 -66.5t-111.5 -20q-79 0 -136 25.5zM459 778q-32 -30 -82 -30q-52 0 -82.5 29.5t-30.5 76.5q0 46 32.5 76t80.5 30q50 0 82 -30t32 -76t-32 -76zM420.5 910.5q-15.5 21.5 -43.5 21.5q-27 0 -42.5 -20.5t-15.5 -57.5q0 -35 15 -56t43 -21t43.5 20.5t15.5 56.5
q0 35 -15.5 56.5z" />
    <glyph glyph-name="uring" unicode="&#x16f;" horiz-adv-x="541" 
d="M367 -2v64h-3q-27 -27 -43 -40.5t-43 -23.5t-65 -10q-63 0 -93.5 42t-30.5 113v202q0 55 -72 60v28l148 12h6v-309q0 -47 22 -73.5t56 -26.5q46 0 74 21t43 45v246q-2 26 -13 37.5t-26.5 15t-47.5 4.5v28l163 12h5v-353q3 -31 20.5 -42t50.5 -13v-28l-143 -11h-8z
M352 534q-32 -30 -82 -30q-52 0 -82.5 29.5t-30.5 76.5q0 46 32.5 76t80.5 30q50 0 82 -30t32 -76t-32 -76zM313.5 666.5q-15.5 21.5 -43.5 21.5q-27 0 -42.5 -20.5t-15.5 -57.5q0 -35 15 -56t43 -21t43.5 20.5t15.5 56.5q0 35 -15.5 56.5z" />
    <glyph glyph-name="Uogonek" unicode="&#x172;" horiz-adv-x="757" 
d="M749 683v-33q-55 -2 -80 -18.5t-32 -46.5t-7 -90v-302q0 -65 -30 -109t-80 -69q-58 -61 -58 -113q0 -26 13.5 -38t45.5 -12q20 0 48 6v-35q-34 -7 -67 -7q-53 0 -84 20.5t-31 59.5q0 50 44 92q-23 -4 -49 -4q-79 0 -136 25.5t-86 68t-29 90.5v416q0 60 -96 66v33h289v-33
q-51 -3 -75 -14.5t-24 -46.5v-385q0 -63 37 -115.5t138 -52.5q71 0 112 29t56.5 68t15.5 74v282q0 62 -9.5 94.5t-37.5 48.5t-84 18v33h296z" />
    <glyph glyph-name="uogonek" unicode="&#x173;" horiz-adv-x="541" 
d="M543 -172v-35q-34 -7 -67 -7q-53 0 -84 20.5t-31 59.5q0 40 27.5 73.5t83.5 65.5l-97 -7h-8v64h-3q-27 -27 -43 -40.5t-43 -23.5t-65 -10q-63 0 -93.5 42t-30.5 113v202q0 55 -72 60v28l148 12h6v-309q0 -47 22 -73.5t56 -26.5q46 0 74 21t43 45v246q-2 26 -13 37.5
t-26.5 15t-47.5 4.5v28l163 12h5v-353q3 -31 20.5 -42t50.5 -13v-28q-82 -75 -82 -137q0 -26 13.5 -38t45.5 -12q20 0 48 6z" />
    <glyph glyph-name="Wcircumflex" unicode="&#x174;" horiz-adv-x="940" 
d="M894.5 629q-29.5 -19 -41.5 -55l-195 -582h-35l-151 522l-178 -522h-38l-170 593q-10 32 -37.5 47.5t-62.5 17.5v33h286v-33l-21 -1q-38 -2 -55.5 -7.5t-17.5 -25.5q0 -8 3 -17l128 -445l142 417l1 13q-7 35 -36 49t-80 17v33h292v-33q-8 0 -36.5 -1.5t-42 -9
t-13.5 -22.5q0 -7 3 -18l135 -441l113 359q18 62 18 83q0 27 -21.5 36.5t-80.5 13.5v33h259v-33q-38 -2 -67.5 -21zM469 895l-132 -136l-19 12l110 172q13 21 42 21q28 0 40 -19l111 -174l-19 -12z" />
    <glyph glyph-name="wcircumflex" unicode="&#x175;" horiz-adv-x="703" 
d="M719 439v-29q-21 -2 -44 -18t-32 -39l-139 -360h-25l-117 307l-118 -307h-28l-152 369q-7 18 -27.5 32t-41.5 16v29h203v-32q-30 -2 -41 -5.5t-11 -14.5q0 -8 4 -19l102 -253h3l87 231l-12 25q-16 34 -63 39v29h192v-30q-26 -1 -36.5 -5t-10.5 -14q0 -11 5 -22l96 -254h4
l86 240q4 11 4 20q0 19 -16.5 28t-41.5 9v28h170zM351 651l-132 -136l-19 12l110 172q13 21 42 21q28 0 40 -19l111 -174l-19 -12z" />
    <glyph glyph-name="Ycircumflex" unicode="&#x176;" horiz-adv-x="587" 
d="M558 631q-30 -17 -47 -46l-147 -253q-13 -24 -22 -54t-9 -51v-128q0 -36 28.5 -49.5t78.5 -16.5v-33h-309v33q42 3 61.5 6.5t32.5 16t13 38.5v172q0 20 -23 68l-121 232q-22 42 -52 62t-71 22v33h298v-33q-39 -2 -65.5 -6.5t-26.5 -19.5l2 -8l139 -280l125 215
q27 47 27 65q0 19 -20 24.5t-78 9.5v33h247v-33q-31 -2 -61 -19zM293 895l-132 -136l-19 12l110 172q13 21 42 21q28 0 40 -19l111 -174l-19 -12z" />
    <glyph glyph-name="ycircumflex" unicode="&#x177;" horiz-adv-x="445" 
d="M15 -199.5q-23 15.5 -23 48.5q0 19 15 35.5t38 16.5q18 0 32.5 -10.5t14.5 -35.5v-23q26 6 52 44t52 96.5t11 28.5l-146 362q-8 19 -28 31.5t-42 15.5v29h201v-32q-28 -2 -39 -6t-11 -15q0 -8 4 -17l105 -256h3l92 237q6 15 6 24q0 17 -14 25t-43 12v28h167v-27
q-15 -3 -39 -19.5t-32 -34.5l-156 -373q-38 -89 -70 -133t-55.5 -55.5t-49.5 -11.5q-22 0 -45 15.5zM221 651l-132 -136l-19 12l110 172q13 21 42 21q28 0 40 -19l111 -174l-19 -12z" />
    <glyph glyph-name="Ydieresis" unicode="&#x178;" horiz-adv-x="587" 
d="M558 631q-30 -17 -47 -46l-147 -253q-13 -24 -22 -54t-9 -51v-128q0 -36 28.5 -49.5t78.5 -16.5v-33h-309v33q42 3 61.5 6.5t32.5 16t13 38.5v172q0 20 -23 68l-121 232q-22 42 -52 62t-71 22v33h298v-33q-39 -2 -65.5 -6.5t-26.5 -19.5l2 -8l139 -280l125 215
q27 47 27 65q0 19 -20 24.5t-78 9.5v33h247v-33q-31 -2 -61 -19zM229.5 821q-16.5 -17 -40.5 -17q-22 0 -38 16t-16 38q0 23 16 39.5t38 16.5q24 0 40.5 -15.5t16.5 -36.5q0 -24 -16.5 -41zM436 821q-16 -17 -40 -17q-23 0 -39 16t-16 38q0 23 16.5 39.5t38.5 16.5
q24 0 40 -15.5t16 -36.5q0 -24 -16 -41z" />
    <glyph glyph-name="Zacute" unicode="&#x179;" horiz-adv-x="590" 
d="M5 0v9l440 638h-163q-81 0 -128 -36.5t-78 -118.5h-32l20 191h506v-9l-441 -638h184q70 0 112 16t70.5 53t55.5 107h31l-22 -212h-555zM220 766q71 110 92 152q13 24 26 33t32 9q16 0 27 -11t11 -25q0 -18 -7 -27.5t-27 -26.5l-36 -29q-15 -13 -40 -33t-65 -53z" />
    <glyph glyph-name="zacute" unicode="&#x17a;" horiz-adv-x="417" 
d="M25 23l261 383h-115q-38 0 -57 -8.5t-28.5 -28.5t-17.5 -62h-26v132h345v-18l-264 -387h157q27 0 42 12t23 34t21 72h24v-152h-365v23zM133 522q71 110 92 152q13 24 26 33t32 9q16 0 27 -11t11 -25q0 -18 -7 -27.5t-27 -26.5l-36 -29q-15 -13 -40 -33t-65 -53z" />
    <glyph glyph-name="Zdotaccent" unicode="&#x17b;" horiz-adv-x="590" 
d="M5 0v9l440 638h-163q-81 0 -128 -36.5t-78 -118.5h-32l20 191h506v-9l-441 -638h184q70 0 112 16t70.5 53t55.5 107h31l-22 -212h-555zM333.5 841.5q-16.5 -17.5 -39.5 -17.5t-39 16t-16 38q0 23 16.5 39.5t38.5 16.5q24 0 40 -15.5t16 -36.5q0 -23 -16.5 -40.5z" />
    <glyph glyph-name="zdotaccent" unicode="&#x17c;" horiz-adv-x="417" 
d="M25 23l261 383h-115q-38 0 -57 -8.5t-28.5 -28.5t-17.5 -62h-26v132h345v-18l-264 -387h157q27 0 42 12t23 34t21 72h24v-152h-365v23zM246.5 597.5q-16.5 -17.5 -39.5 -17.5t-39 16t-16 38q0 23 16.5 39.5t38.5 16.5q24 0 40 -15.5t16 -36.5q0 -23 -16.5 -40.5z" />
    <glyph glyph-name="Zcaron" unicode="&#x17d;" horiz-adv-x="590" 
d="M5 0v9l440 638h-163q-81 0 -128 -36.5t-78 -118.5h-32l20 191h506v-9l-441 -638h184q70 0 112 16t70.5 53t55.5 107h31l-22 -212h-555zM335 782q-9 -15 -15 -18.5t-26 -3.5t-25.5 3t-14.5 17q-5 7 -40 62q-34 56 -71 111l19 12l134 -136l132 136l17 -12z" />
    <glyph glyph-name="zcaron" unicode="&#x17e;" horiz-adv-x="417" 
d="M25 23l261 383h-115q-38 0 -57 -8.5t-28.5 -28.5t-17.5 -62h-26v132h345v-18l-264 -387h157q27 0 42 12t23 34t21 72h24v-152h-365v23zM248 538q-9 -15 -15 -18.5t-26 -3.5t-25.5 3t-14.5 17q-5 7 -40 62q-34 56 -71 111l19 12l134 -136l132 136l17 -12z" />
    <glyph glyph-name="florin" unicode="&#x192;" horiz-adv-x="480" 
d="M-106 -167q-25 26 -25 56q0 21 11.5 33.5t30.5 12.5q22 0 32.5 -15t10.5 -38v-33q2 -8 6.5 -11.5t15.5 -3.5q100 0 134 208l41 255h-101l7 40h99q20 124 75.5 205.5t142.5 81.5q36 0 61.5 -13.5t38.5 -33.5t13 -39q0 -17 -10 -31t-31 -14t-35 12.5t-14 32.5v44
q-3 7 -8 10t-17 3q-44 0 -74 -46.5t-47 -149.5l-11 -62h120l-10 -40h-116l-40 -245q-11 -63 -42.5 -119t-78.5 -91t-102 -35q-52 0 -77 26z" />
    <glyph glyph-name="circumflex" unicode="&#x2c6;" horiz-adv-x="475" 
d="M237 674l-132 -136l-19 12l110 172q14 21 42 21t40 -19l111 -174l-19 -12z" />
    <glyph glyph-name="caron" unicode="&#x2c7;" horiz-adv-x="475" 
d="M278 561q-9 -15 -15 -18.5t-26 -3.5t-25.5 3t-14.5 17q-5 7 -40 62q-34 56 -71 111l19 12l134 -136l132 136l17 -12z" />
    <glyph glyph-name="breve" unicode="&#x2d8;" horiz-adv-x="475" 
d="M322 592.5q-38 -33.5 -85 -33.5t-84.5 33.5t-61.5 127.5l18 6q21 -50 52.5 -72t75.5 -22q45 0 76 22t53 72l18 -6q-24 -94 -62 -127.5z" />
    <glyph glyph-name="dotaccent" unicode="&#x2d9;" horiz-adv-x="475" 
d="M276.5 620.5q-16.5 -17.5 -39.5 -17.5t-39 16t-16 38q0 23 16.5 39.5t38.5 16.5q24 0 40 -15.5t16 -36.5q0 -23 -16.5 -40.5z" />
    <glyph glyph-name="ring" unicode="&#x2da;" horiz-adv-x="475" 
d="M319 557q-32 -30 -82 -30q-52 0 -82.5 29.5t-30.5 76.5q0 46 32.5 76t80.5 30q50 0 82 -30t32 -76t-32 -76zM280.5 689.5q-15.5 21.5 -43.5 21.5q-27 0 -42.5 -20.5t-15.5 -57.5q0 -35 15 -56t43 -21t43.5 20.5t15.5 56.5q0 35 -15.5 56.5z" />
    <glyph glyph-name="ogonek" unicode="&#x2db;" horiz-adv-x="475" 
d="M255 -223q-53 0 -84 20.5t-31 59.5q0 41 28.5 75t88.5 68h40q-82 -75 -82 -137q0 -26 13.5 -38t45.5 -12q20 0 48 6v-35q-34 -7 -67 -7z" />
    <glyph glyph-name="tilde" unicode="&#x2dc;" horiz-adv-x="475" 
d="M397.5 644.5q-17.5 -28.5 -43 -48t-53.5 -19.5q-29 0 -49 8t-43 23q-18 12 -31.5 17.5t-29.5 5.5q-24 0 -35.5 -11t-27.5 -41q-2 -3 -4.5 -8t-5.5 -10l-22 10q13 43 45.5 82.5t72.5 39.5q28 0 48 -8t45 -24q18 -11 30 -16.5t25 -5.5q35 0 48.5 12.5t21 31t10.5 25.5
l23 -9q-7 -26 -24.5 -54.5z" />
    <glyph glyph-name="hungarumlaut" unicode="&#x2dd;" horiz-adv-x="475" 
d="M223.5 676q-7.5 -10 -26.5 -27l-35 -31q-35 -29 -97 -84l-12 11q42 65 81 136l10 17q14 24 26 33.5t29 9.5q14 0 23 -11.5t9 -26.5q0 -17 -7.5 -27zM395.5 676.5q-7.5 -10.5 -27.5 -27.5l-35 -31l-96 -84l-11 11q40 63 79 133l4.5 9t6.5 11q14 24 26 33.5t29 9.5
q14 0 23 -11.5t9 -26.5q0 -16 -7.5 -26.5z" />
    <glyph glyph-name="gravecomb" unicode="&#x300;" 
d="M-289 649q-20 16 -27 26t-7 28q0 14 11 25t27 11q19 0 31.5 -9t26.5 -33q48 -85 92 -152l-13 -11q-83 69 -141 115z" />
    <glyph glyph-name="acutecomb" unicode="&#x301;" 
d="M-340 545q71 110 92 152q13 24 26 33t32 9q16 0 27 -11t11 -25q0 -18 -7 -27.5t-27 -26.5l-36 -29q-15 -13 -40 -33t-65 -53z" />
    <glyph glyph-name="uni0302" unicode="&#x302;" 
d="M-238 674l-132 -136l-19 12l110 172q13 21 42 21q28 0 40 -19l111 -174l-19 -12z" />
    <glyph glyph-name="tildecomb" unicode="&#x303;" 
d="M-77.5 614.5q-17.5 -28.5 -43 -48t-53.5 -19.5q-29 0 -49 8t-43 23q-18 12 -31.5 17.5t-29.5 5.5q-24 0 -35.5 -11t-27.5 -41q-2 -3 -4.5 -8t-5.5 -10l-22 10q13 43 45.5 82.5t72.5 39.5q28 0 48 -8t45 -24q18 -11 30 -16.5t25 -5.5q35 0 48.5 12.5t21 31t10.5 25.5
l23 -9q-7 -26 -24.5 -54.5z" />
    <glyph glyph-name="uni0304" unicode="&#x304;" 
d="M-394 656h314v-59h-314v59z" />
    <glyph glyph-name="uni0306" unicode="&#x306;" 
d="M-153 572.5q-38 -33.5 -85 -33.5t-84.5 33.5t-61.5 127.5l18 6q21 -50 52.5 -72t75.5 -22q45 0 76 22t53 72l18 -6q-24 -94 -62 -127.5z" />
    <glyph glyph-name="uni0307" unicode="&#x307;" 
d="M-198.5 620.5q-16.5 -17.5 -39.5 -17.5t-39 16t-16 38q0 23 16.5 39.5t38.5 16.5q24 0 40 -15.5t16 -36.5q0 -23 -16.5 -40.5z" />
    <glyph glyph-name="uni0308" unicode="&#x308;" 
d="M-301.5 600q-16.5 -17 -40.5 -17q-22 0 -38 16t-16 38q0 23 16 39.5t38 16.5q24 0 40.5 -15.5t16.5 -36.5q0 -24 -16.5 -41zM-95 600q-16 -17 -40 -17q-23 0 -39 16t-16 38q0 23 16.5 39.5t38.5 16.5q24 0 40 -15.5t16 -36.5q0 -24 -16 -41z" />
    <glyph glyph-name="uni030A" unicode="&#x30a;" 
d="M-156 557q-32 -30 -82 -30q-52 0 -82.5 29.5t-30.5 76.5q0 46 32.5 76t80.5 30q50 0 82 -30t32 -76t-32 -76zM-194.5 689.5q-15.5 21.5 -43.5 21.5q-27 0 -42.5 -20.5t-15.5 -57.5q0 -35 15 -56t43 -21t43.5 20.5t15.5 56.5q0 35 -15.5 56.5z" />
    <glyph glyph-name="uni030C" unicode="&#x30c;" 
d="M-197 561q-9 -15 -15 -18.5t-26 -3.5t-25.5 3t-14.5 17q-5 7 -40 62q-34 56 -71 111l19 12l134 -136l132 136l17 -12z" />
    <glyph glyph-name="uni0327" unicode="&#x327;" 
d="M-173.5 -201q-35.5 -23 -94.5 -23q-37 0 -72 7v36q47 -15 73 -15q61 0 61 47q0 24 -24.5 30.5t-65.5 6.5v120h33v-64q51 0 88 -16t37 -59q0 -47 -35.5 -70z" />
    <glyph glyph-name="uni0328" unicode="&#x328;" 
d="M-220 -223q-53 0 -84 20.5t-31 59.5q0 41 28.5 75t88.5 68h40q-82 -75 -82 -137q0 -26 13.5 -38t45.5 -12q19 0 48 6v-35q-34 -7 -67 -7z" />
    <glyph glyph-name="uni0337" unicode="&#x337;" 
d="M-274 293l246 91l14 -40l-246 -90z" />
    <glyph glyph-name="uni0338" unicode="&#x338;" 
d="M-738 -16l668 745l32 -30l-669 -744z" />
    <glyph glyph-name="Wgrave" unicode="&#x1e80;" horiz-adv-x="940" 
d="M894.5 629q-29.5 -19 -41.5 -55l-195 -582h-35l-151 522l-178 -522h-38l-170 593q-10 32 -37.5 47.5t-62.5 17.5v33h286v-33l-21 -1q-38 -2 -55.5 -7.5t-17.5 -25.5q0 -8 3 -17l128 -445l142 417l1 13q-7 35 -36 49t-80 17v33h292v-33q-8 0 -36.5 -1.5t-42 -9
t-13.5 -22.5q0 -7 3 -18l135 -441l113 359q18 62 18 83q0 27 -21.5 36.5t-80.5 13.5v33h259v-33q-38 -2 -67.5 -21zM391 870q-20 16 -27 26t-7 28q0 14 11 25t27 11q19 0 31.5 -9t26.5 -33q48 -85 92 -152l-13 -11q-83 69 -141 115z" />
    <glyph glyph-name="wgrave" unicode="&#x1e81;" horiz-adv-x="703" 
d="M719 439v-29q-21 -2 -44 -18t-32 -39l-139 -360h-25l-117 307l-118 -307h-28l-152 369q-7 18 -27.5 32t-41.5 16v29h203v-32q-30 -2 -41 -5.5t-11 -14.5q0 -8 4 -19l102 -253h3l87 231l-12 25q-16 34 -63 39v29h192v-30q-26 -1 -36.5 -5t-10.5 -14q0 -11 5 -22l96 -254h4
l86 240q4 11 4 20q0 19 -16.5 28t-41.5 9v28h170zM273 626q-20 16 -27 26t-7 28q0 14 11 25t27 11q19 0 31.5 -9t26.5 -33q48 -85 92 -152l-13 -11q-83 69 -141 115z" />
    <glyph glyph-name="Wacute" unicode="&#x1e82;" horiz-adv-x="940" 
d="M894.5 629q-29.5 -19 -41.5 -55l-195 -582h-35l-151 522l-178 -522h-38l-170 593q-10 32 -37.5 47.5t-62.5 17.5v33h286v-33l-21 -1q-38 -2 -55.5 -7.5t-17.5 -25.5q0 -8 3 -17l128 -445l142 417l1 13q-7 35 -36 49t-80 17v33h292v-33q-8 0 -36.5 -1.5t-42 -9
t-13.5 -22.5q0 -7 3 -18l135 -441l113 359q18 62 18 83q0 27 -21.5 36.5t-80.5 13.5v33h259v-33q-38 -2 -67.5 -21zM395 766q71 110 92 152q13 24 26 33t32 9q16 0 27 -11t11 -25q0 -18 -7 -27.5t-27 -26.5l-36 -29q-15 -13 -40 -33t-65 -53z" />
    <glyph glyph-name="wacute" unicode="&#x1e83;" horiz-adv-x="703" 
d="M719 439v-29q-21 -2 -44 -18t-32 -39l-139 -360h-25l-117 307l-118 -307h-28l-152 369q-7 18 -27.5 32t-41.5 16v29h203v-32q-30 -2 -41 -5.5t-11 -14.5q0 -8 4 -19l102 -253h3l87 231l-12 25q-16 34 -63 39v29h192v-30q-26 -1 -36.5 -5t-10.5 -14q0 -11 5 -22l96 -254h4
l86 240q4 11 4 20q0 19 -16.5 28t-41.5 9v28h170zM277 522q71 110 92 152q13 24 26 33t32 9q16 0 27 -11t11 -25q0 -18 -7 -27.5t-27 -26.5l-36 -29q-15 -13 -40 -33t-65 -53z" />
    <glyph glyph-name="Wdieresis" unicode="&#x1e84;" horiz-adv-x="940" 
d="M894.5 629q-29.5 -19 -41.5 -55l-195 -582h-35l-151 522l-178 -522h-38l-170 593q-10 32 -37.5 47.5t-62.5 17.5v33h286v-33l-21 -1q-38 -2 -55.5 -7.5t-17.5 -25.5q0 -8 3 -17l128 -445l142 417l1 13q-7 35 -36 49t-80 17v33h292v-33q-8 0 -36.5 -1.5t-42 -9
t-13.5 -22.5q0 -7 3 -18l135 -441l113 359q18 62 18 83q0 27 -21.5 36.5t-80.5 13.5v33h259v-33q-38 -2 -67.5 -21zM405.5 821q-16.5 -17 -40.5 -17q-22 0 -38 16t-16 38q0 23 16 39.5t38 16.5q24 0 40.5 -15.5t16.5 -36.5q0 -24 -16.5 -41zM612 821q-16 -17 -40 -17
q-23 0 -39 16t-16 38q0 23 16.5 39.5t38.5 16.5q24 0 40 -15.5t16 -36.5q0 -24 -16 -41z" />
    <glyph glyph-name="wdieresis" unicode="&#x1e85;" horiz-adv-x="703" 
d="M719 439v-29q-21 -2 -44 -18t-32 -39l-139 -360h-25l-117 307l-118 -307h-28l-152 369q-7 18 -27.5 32t-41.5 16v29h203v-32q-30 -2 -41 -5.5t-11 -14.5q0 -8 4 -19l102 -253h3l87 231l-12 25q-16 34 -63 39v29h192v-30q-26 -1 -36.5 -5t-10.5 -14q0 -11 5 -22l96 -254h4
l86 240q4 11 4 20q0 19 -16.5 28t-41.5 9v28h170zM287.5 577q-16.5 -17 -40.5 -17q-22 0 -38 16t-16 38q0 23 16 39.5t38 16.5q24 0 40.5 -15.5t16.5 -36.5q0 -24 -16.5 -41zM494 577q-16 -17 -40 -17q-23 0 -39 16t-16 38q0 23 16.5 39.5t38.5 16.5q24 0 40 -15.5t16 -36.5
q0 -24 -16 -41z" />
    <glyph glyph-name="Ygrave" unicode="&#x1ef2;" horiz-adv-x="587" 
d="M558 631q-30 -17 -47 -46l-147 -253q-13 -24 -22 -54t-9 -51v-128q0 -36 28.5 -49.5t78.5 -16.5v-33h-309v33q42 3 61.5 6.5t32.5 16t13 38.5v172q0 20 -23 68l-121 232q-22 42 -52 62t-71 22v33h298v-33q-39 -2 -65.5 -6.5t-26.5 -19.5l2 -8l139 -280l125 215
q27 47 27 65q0 19 -20 24.5t-78 9.5v33h247v-33q-31 -2 -61 -19zM215 870q-20 16 -27 26t-7 28q0 14 11 25t27 11q19 0 31.5 -9t26.5 -33q48 -85 92 -152l-13 -11q-83 69 -141 115z" />
    <glyph glyph-name="ygrave" unicode="&#x1ef3;" horiz-adv-x="445" 
d="M15 -199.5q-23 15.5 -23 48.5q0 19 15 35.5t38 16.5q18 0 32.5 -10.5t14.5 -35.5v-23q26 6 52 44t52 96.5t11 28.5l-146 362q-8 19 -28 31.5t-42 15.5v29h201v-32q-28 -2 -39 -6t-11 -15q0 -8 4 -17l105 -256h3l92 237q6 15 6 24q0 17 -14 25t-43 12v28h167v-27
q-15 -3 -39 -19.5t-32 -34.5l-156 -373q-38 -89 -70 -133t-55.5 -55.5t-49.5 -11.5q-22 0 -45 15.5zM143 626q-20 16 -27 26t-7 28q0 14 11 25t27 11q19 0 31.5 -9t26.5 -33q48 -85 92 -152l-13 -11q-83 69 -141 115z" />
    <glyph glyph-name="endash" unicode="&#x2013;" horiz-adv-x="515" 
d="M48 301h419v-61h-419v61z" />
    <glyph glyph-name="emdash" unicode="&#x2014;" horiz-adv-x="884" 
d="M71 286h743v-61h-743v61z" />
    <glyph glyph-name="quoteleft" unicode="&#x2018;" horiz-adv-x="177" 
d="M59 679q42 49 91 73l20 -33q-52 -29 -79 -60.5t-27 -78.5h26q34 0 50 -17.5t16 -40.5q0 -24 -16 -41t-46 -17q-36 0 -56.5 27.5t-20.5 72.5q0 66 42 115z" />
    <glyph glyph-name="quoteright" unicode="&#x2019;" horiz-adv-x="175" 
d="M124 522q-42 -49 -91 -73l-20 33q52 29 79 60.5t27 78.5h-26q-34 0 -50 17.5t-16 40.5q0 24 16 41t46 17q36 0 56.5 -27.5t20.5 -72.5q0 -66 -42 -115z" />
    <glyph glyph-name="quotesinglbase" unicode="&#x201a;" horiz-adv-x="237" 
d="M145 -99q-42 -49 -91 -73l-20 33q52 29 79 60.5t27 78.5h-26q-34 0 -50 17.5t-16 40.5q0 24 16 41t46 17q36 0 56.5 -27.5t20.5 -72.5q0 -66 -42 -115z" />
    <glyph glyph-name="quotedblleft" unicode="&#x201c;" horiz-adv-x="336" 
d="M218 679q42 49 91 73l20 -33q-52 -29 -79 -60.5t-27 -78.5h26q34 0 50 -17.5t16 -40.5q0 -24 -16 -41t-46 -17q-36 0 -56.5 27.5t-20.5 72.5q0 66 42 115zM59 679q42 49 91 73l20 -33q-52 -29 -79 -60.5t-27 -78.5h26q34 0 50 -17.5t16 -40.5q0 -24 -16 -41t-46 -17
q-36 0 -56.5 27.5t-20.5 72.5q0 66 42 115z" />
    <glyph glyph-name="quotedblright" unicode="&#x201d;" horiz-adv-x="335" 
d="M124 523q-42 -49 -91 -73l-20 33q52 29 79 60.5t27 78.5h-26q-34 0 -50 17.5t-16 40.5q0 24 16 41t46 17q36 0 56.5 -27.5t20.5 -72.5q0 -66 -42 -115zM283 523q-42 -49 -91 -73l-20 33q52 29 79 60.5t27 78.5h-26q-34 0 -50 17.5t-16 40.5q0 24 16 41t46 17
q36 0 56.5 -27.5t20.5 -72.5q0 -66 -42 -115z" />
    <glyph glyph-name="quotedblbase" unicode="&#x201e;" horiz-adv-x="335" 
d="M124 -98q-42 -49 -91 -73l-20 33q52 29 79 60.5t27 78.5h-26q-34 0 -50 17.5t-16 40.5q0 24 16 41t46 17q36 0 56.5 -27.5t20.5 -72.5q0 -66 -42 -115zM283 -98q-42 -49 -91 -73l-20 33q52 29 79 60.5t27 78.5h-26q-34 0 -50 17.5t-16 40.5q0 24 16 41t46 17
q36 0 56.5 -27.5t20.5 -72.5q0 -66 -42 -115z" />
    <glyph glyph-name="bullet" unicode="&#x2022;" horiz-adv-x="393" 
d="M291.5 231.5q-37.5 -36.5 -94.5 -36.5q-58 0 -95.5 36.5t-37.5 93.5q0 58 37.5 95t95.5 37q57 0 94.5 -37t37.5 -95q0 -57 -37.5 -93.5z" />
    <glyph glyph-name="ellipsis" unicode="&#x2026;" horiz-adv-x="781" 
d="M173 10.5q-18 -17.5 -43 -17.5t-43 17.5t-18 42.5t18 43t43 18t43 -18t18 -43t-18 -42.5zM434 10.5q-18 -17.5 -44 -17.5q-24 0 -42 17.5t-18 42.5t18 43t42 18q25 0 43.5 -18t18.5 -43t-18 -42.5zM694 10.5q-18 -17.5 -43 -17.5t-42.5 17.5t-17.5 42.5t17.5 43t42.5 18
t43 -18t18 -43t-18 -42.5z" />
    <glyph glyph-name="perthousand" unicode="&#x2030;" horiz-adv-x="1204" 
d="M195 -81l406 774l37 -20l-408 -774zM342 380.5q-22 -36.5 -57 -56t-75 -19.5q-39 0 -73 19t-54.5 54t-20.5 82t21.5 83.5t56.5 56.5t74 20q38 0 72.5 -19t56 -54t21.5 -82q0 -48 -22 -84.5zM268.5 556q-20.5 33 -56.5 33q-35 0 -55 -33t-20 -92q0 -60 20 -94t55 -34
q34 0 55.5 30.5t21.5 94.5q0 62 -20.5 95zM750.5 62.5q-21.5 -36.5 -57 -56.5t-75.5 -20q-38 0 -72 19t-55 54.5t-21 81.5q0 47 21.5 83.5t57 56.5t74.5 20q38 0 72 -19t55.5 -54t21.5 -82t-21.5 -83.5zM1120 62.5q-22 -36.5 -57 -56.5t-75 -20q-39 0 -73 19t-54.5 54.5
t-20.5 81.5q0 47 21.5 83.5t56.5 56.5t74 20q38 0 72.5 -19t56 -54t21.5 -82t-22 -83.5zM676.5 237q-20.5 33 -55.5 33t-55 -33t-20 -92q0 -60 19.5 -94t54.5 -34q34 0 55.5 31t21.5 94q0 62 -20.5 95zM1046.5 237q-20.5 33 -56.5 33q-35 0 -55 -33t-20 -92q0 -60 20 -94
t55 -34q33 0 55 31t22 94q0 62 -20.5 95z" />
    <glyph glyph-name="guilsinglleft" unicode="&#x2039;" horiz-adv-x="334" 
d="M72 177q-25 19 -25 44q0 13 6 23.5t19 21.5l195 166l19 -18l-148 -192l148 -189l-19 -18z" />
    <glyph glyph-name="guilsinglright" unicode="&#x203a;" horiz-adv-x="333" 
d="M49 33l148 189l-148 192l19 18l195 -166q13 -11 19 -21.5t6 -23.5q0 -25 -25 -44l-195 -162z" />
    <glyph glyph-name="fraction" unicode="&#x2044;" horiz-adv-x="280" 
d="M-120 -191l478 943l42 -21l-479 -943z" />
    <glyph glyph-name="trademark" unicode="&#x2122;" horiz-adv-x="789" 
d="M268 646.5q-16 12.5 -51 12.5h-12v-242q0 -26 48 -26v-23h-149v23q25 0 36.5 4.5t11.5 18.5v245h-12q-35 0 -51 -13.5t-27 -51.5h-20v89h274v-89h-21q-11 40 -27 52.5zM600 391q25 0 38 5t13 19v202l-102 -244h-16l-24 66l-73 184v-161q0 -41 10.5 -56.5t46.5 -14.5v-23
h-139v22q30 6 39 10.5t12 15.5t3 44v156q0 23 -12.5 33t-38.5 12v22h110l90 -225l74 185l11 40h107v-22q-28 -3 -37 -6.5t-9 -17.5v-222q0 -24 46 -24v-23h-149v23z" />
    <glyph glyph-name="minus" unicode="&#x2212;" horiz-adv-x="551" 
d="M52 286h447v-52h-447v52z" />
    <glyph glyph-name="approxequal" unicode="&#x2248;" horiz-adv-x="551" 
d="M275 227l-186 -199l-36 37l189 196l-189 197l37 38l187 -199l185 199l36 -37l-189 -196l189 -197l-36 -38z" />
    <glyph glyph-name="uniF8FF" unicode="&#xf8ff;" horiz-adv-x="899" 
d="M259.5 41q-86.5 51 -137 137.5t-50.5 189.5t50.5 189.5t137 137.5t189.5 51q102 0 189 -51t138 -137.5t51 -189.5t-51 -189.5t-138 -137.5t-189 -51q-103 0 -189.5 51zM620.5 71q78.5 46 124.5 125t46 172t-46 172t-124.5 125t-171.5 46t-171.5 -46t-124.5 -125t-46 -172
t46 -172t124.5 -125t171.5 -46t171.5 46zM240 225q-5 5 -5 12v262q0 7 5 12.5t12 5.5q8 0 13.5 -5t5.5 -13v-262q0 -7 -5.5 -12t-13.5 -5q-7 0 -12 5zM436 225q-5 5 -5 12v262q0 8 5.5 13t12.5 5t12 -5t5 -13v-262q0 -7 -4.5 -12t-12.5 -5t-13 5zM633 225l-132 131
q-3 5 -3 12q0 9 4 12l131 131q5 6 10 6q7 0 13 -5.5t6 -11.5q0 -8 -5 -13l-117 -119l117 -119q5 -5 5 -13q0 -6 -6 -11t-13 -5q-6 0 -10 5zM305.5 356q-5.5 5 -5.5 12t5.5 12t13.5 5h64q7 0 12 -5t5 -12t-5 -12t-12 -5h-64q-8 0 -13.5 5z" />
    <glyph glyph-name="a.sc" horiz-adv-x="606" 
d="M343 31l24 1q28 0 40 3t12 14q0 6 -2 10l-46 106h-183l-29 -73q-8 -21 -8 -31q0 -18 17.5 -22.5t67.5 -6.5v-32h-217v32q39 2 62 13t35 38l175 403h36l177 -417q9 -21 30 -28.5t53 -8.5v-32h-244v31zM200 196h158l-79 184z" />
    <glyph glyph-name="aacute.sc" horiz-adv-x="606" 
d="M343 31l24 1q28 0 40 3t12 14q0 6 -2 10l-46 106h-183l-29 -73q-8 -21 -8 -31q0 -18 17.5 -22.5t67.5 -6.5v-32h-217v32q39 2 62 13t35 38l175 403h36l177 -417q9 -21 30 -28.5t53 -8.5v-32h-244v31zM200 196h158l-79 184zM228 561q71 110 92 152q13 24 26 33t32 9
q16 0 27 -11t11 -25q0 -18 -7 -27.5t-27 -26.5l-36 -29q-15 -13 -40 -33t-65 -53z" />
    <glyph glyph-name="abreve.sc" horiz-adv-x="606" 
d="M343 31l24 1q28 0 40 3t12 14q0 6 -2 10l-46 106h-183l-29 -73q-8 -21 -8 -31q0 -18 17.5 -22.5t67.5 -6.5v-32h-217v32q39 2 62 13t35 38l175 403h36l177 -417q9 -21 30 -28.5t53 -8.5v-32h-244v31zM200 196h158l-79 184zM387 588.5q-38 -33.5 -85 -33.5t-84.5 33.5
t-61.5 127.5l18 6q21 -50 52.5 -72t75.5 -22q45 0 76 22t53 72l18 -6q-24 -94 -62 -127.5z" />
    <glyph glyph-name="acircumflex.sc" horiz-adv-x="606" 
d="M343 31l24 1q28 0 40 3t12 14q0 6 -2 10l-46 106h-183l-29 -73q-8 -21 -8 -31q0 -18 17.5 -22.5t67.5 -6.5v-32h-217v32q39 2 62 13t35 38l175 403h36l177 -417q9 -21 30 -28.5t53 -8.5v-32h-244v31zM200 196h158l-79 184zM302 690l-132 -136l-19 12l110 172q13 21 42 21
q28 0 40 -19l111 -174l-19 -12z" />
    <glyph glyph-name="adieresis.sc" horiz-adv-x="606" 
d="M343 31l24 1q28 0 40 3t12 14q0 6 -2 10l-46 106h-183l-29 -73q-8 -21 -8 -31q0 -18 17.5 -22.5t67.5 -6.5v-32h-217v32q39 2 62 13t35 38l175 403h36l177 -417q9 -21 30 -28.5t53 -8.5v-32h-244v31zM200 196h158l-79 184zM238.5 616q-16.5 -17 -40.5 -17q-22 0 -38 16
t-16 38q0 23 16 39.5t38 16.5q24 0 40.5 -15.5t16.5 -36.5q0 -24 -16.5 -41zM445 616q-16 -17 -40 -17q-23 0 -39 16t-16 38q0 23 16.5 39.5t38.5 16.5q24 0 40 -15.5t16 -36.5q0 -24 -16 -41z" />
    <glyph glyph-name="agrave.sc" horiz-adv-x="606" 
d="M343 31l24 1q28 0 40 3t12 14q0 6 -2 10l-46 106h-183l-29 -73q-8 -21 -8 -31q0 -18 17.5 -22.5t67.5 -6.5v-32h-217v32q39 2 62 13t35 38l175 403h36l177 -417q9 -21 30 -28.5t53 -8.5v-32h-244v31zM200 196h158l-79 184zM224 665q-20 16 -27 26t-7 28q0 14 11 25t27 11
q19 0 31.5 -9t26.5 -33q48 -85 92 -152l-13 -11q-83 69 -141 115z" />
    <glyph glyph-name="amacron.sc" horiz-adv-x="606" 
d="M343 31l24 1q28 0 40 3t12 14q0 6 -2 10l-46 106h-183l-29 -73q-8 -21 -8 -31q0 -18 17.5 -22.5t67.5 -6.5v-32h-217v32q39 2 62 13t35 38l175 403h36l177 -417q9 -21 30 -28.5t53 -8.5v-32h-244v31zM200 196h158l-79 184zM146 672h314v-59h-314v59z" />
    <glyph glyph-name="aogonek.sc" horiz-adv-x="606" 
d="M343 31l24 1q28 0 40 3t12 14q0 6 -2 10l-46 106h-183l-29 -73q-8 -21 -8 -31q0 -18 17.5 -22.5t67.5 -6.5v-32h-217v32q39 2 62 13t35 38l175 403h36l177 -417q9 -21 30 -28.5t53 -8.5v-32h-244v31zM200 196h158l-79 184zM545 -223q-53 0 -84 20.5t-31 59.5
q0 41 28.5 75t88.5 68h40q-82 -75 -82 -137q0 -26 13.5 -38t45.5 -12q19 0 48 6v-35q-34 -7 -67 -7z" />
    <glyph glyph-name="aring.sc" horiz-adv-x="606" 
d="M343 31l24 1q28 0 40 3t12 14q0 6 -2 10l-46 106h-183l-29 -73q-8 -21 -8 -31q0 -18 17.5 -22.5t67.5 -6.5v-32h-217v32q39 2 62 13t35 38l175 403h36l177 -417q9 -21 30 -28.5t53 -8.5v-32h-244v31zM200 196h158l-79 184zM384 573q-32 -30 -82 -30q-52 0 -82.5 29.5
t-30.5 76.5q0 46 32.5 76t80.5 30q50 0 82 -30t32 -76t-32 -76zM345.5 705.5q-15.5 21.5 -43.5 21.5q-27 0 -42.5 -20.5t-15.5 -57.5q0 -35 15 -56t43 -21t43.5 20.5t15.5 56.5q0 35 -15.5 56.5z" />
    <glyph glyph-name="atilde.sc" horiz-adv-x="606" 
d="M343 31l24 1q28 0 40 3t12 14q0 6 -2 10l-46 106h-183l-29 -73q-8 -21 -8 -31q0 -18 17.5 -22.5t67.5 -6.5v-32h-217v32q39 2 62 13t35 38l175 403h36l177 -417q9 -21 30 -28.5t53 -8.5v-32h-244v31zM200 196h158l-79 184zM462.5 630.5q-17.5 -28.5 -43 -48t-53.5 -19.5
q-29 0 -49 8t-43 23q-18 12 -31.5 17.5t-29.5 5.5q-24 0 -35.5 -11t-27.5 -41q-2 -3 -4.5 -8t-5.5 -10l-22 10q13 43 45.5 82.5t72.5 39.5q28 0 48 -8t45 -24q18 -11 30 -16.5t25 -5.5q35 0 48.5 12.5t21 31t10.5 25.5l23 -9q-7 -26 -24.5 -54.5z" />
    <glyph glyph-name="ae.sc" horiz-adv-x="821" 
d="M313 0v22q45 3 64.5 10.5t19.5 32.5v123h-171l-55 -96q-12 -21 -12 -35q0 -16 17 -23.5t53 -10.5v-23h-210v23q38 1 62.5 16t44.5 44l226 364l-60 8v23h433v-116h-28q-15 53 -48.5 71t-96.5 18h-70v-189h59q41 0 62 19.5t26 62.5h28v-196h-28q-3 45 -24.5 65.5
t-63.5 20.5h-59v-142q0 -30 6.5 -43t24.5 -17t60 -4q56 0 84.5 8.5t46.5 32t36 73.5h26l-9 -142h-444zM387 448l-142 -231h152v231h-10z" />
    <glyph glyph-name="b.sc" horiz-adv-x="585" 
d="M487 56q-27 -29 -68.5 -42.5t-84.5 -13.5h-265v31q39 1 59.5 11t20.5 34v332q0 40 -61 40l-16 -1v31h261q60 0 106.5 -23t46.5 -79q0 -48 -35.5 -74.5t-95.5 -41.5v-6q59 -6 109 -36t50 -91q0 -42 -27 -71zM363.5 431q-26.5 17 -72.5 17h-58v-182h40q117 0 117 99
q0 49 -26.5 66zM383.5 212.5q-32.5 27.5 -93.5 27.5h-57v-143q0 -30 8 -44.5t21.5 -18.5t36.5 -4q117 0 117 104q0 51 -32.5 78.5z" />
    <glyph glyph-name="c.sc" horiz-adv-x="577" 
d="M450 26q-51 -37 -131 -37q-74 0 -131.5 30t-89.5 85.5t-32 128.5q0 71 35.5 129.5t97 91.5t137.5 33q32 0 65 -11t51 -26l23 35h31v-179h-29q-43 154 -163 154q-41 0 -75.5 -24t-55.5 -73.5t-21 -122.5q0 -61 24 -108.5t65 -73.5t91 -26q65 0 100.5 25t61.5 75l25 -11
q-28 -58 -79 -95z" />
    <glyph glyph-name="cacute.sc" horiz-adv-x="577" 
d="M450 26q-51 -37 -131 -37q-74 0 -131.5 30t-89.5 85.5t-32 128.5q0 71 35.5 129.5t97 91.5t137.5 33q32 0 65 -11t51 -26l23 35h31v-179h-29q-43 154 -163 154q-41 0 -75.5 -24t-55.5 -73.5t-21 -122.5q0 -61 24 -108.5t65 -73.5t91 -26q65 0 100.5 25t61.5 75l25 -11
q-28 -58 -79 -95zM229 561q71 110 92 152q13 24 26 33t32 9q16 0 27 -11t11 -25q0 -18 -7 -27.5t-27 -26.5l-36 -29q-15 -13 -40 -33t-65 -53z" />
    <glyph glyph-name="ccaron.sc" horiz-adv-x="577" 
d="M450 26q-51 -37 -131 -37q-74 0 -131.5 30t-89.5 85.5t-32 128.5q0 71 35.5 129.5t97 91.5t137.5 33q32 0 65 -11t51 -26l23 35h31v-179h-29q-43 154 -163 154q-41 0 -75.5 -24t-55.5 -73.5t-21 -122.5q0 -61 24 -108.5t65 -73.5t91 -26q65 0 100.5 25t61.5 75l25 -11
q-28 -58 -79 -95zM344 577q-9 -15 -15 -18.5t-26 -3.5t-25.5 3t-14.5 17q-5 7 -40 62q-34 56 -71 111l19 12l134 -136l132 136l17 -12z" />
    <glyph glyph-name="ccedilla.sc" horiz-adv-x="577" 
d="M450 26q-51 -37 -130 -37v-45q51 0 88 -16t37 -59q0 -47 -35.5 -70t-94.5 -23q-37 0 -72 7v36q47 -15 73 -15q61 0 61 47q0 24 -24.5 30.5t-65.5 6.5v103q-100 9 -160.5 74.5t-60.5 167.5q0 71 35.5 129.5t97 91.5t137.5 33q32 0 65 -11t51 -26l23 35h31v-179h-29
q-43 154 -163 154q-41 0 -75.5 -24t-55.5 -73.5t-21 -122.5q0 -61 24 -108.5t65 -73.5t91 -26q65 0 100.5 25t61.5 75l25 -11q-28 -58 -79 -95z" />
    <glyph glyph-name="d.sc" horiz-adv-x="670" 
d="M562.5 105q-42.5 -53 -111.5 -79t-147 -26h-234v31q32 0 46.5 2t24 13t9.5 36v326q0 24 -20 32t-57 7v31h246q63 0 128.5 -22.5t111.5 -76.5t46 -143q0 -78 -42.5 -131zM481 348q-26 48 -73 74t-108 26h-65v-366q0 -27 19.5 -39.5t61.5 -12.5q96 0 143.5 54.5t47.5 152.5
q0 63 -26 111z" />
    <glyph glyph-name="eth.sc" horiz-adv-x="717" 
d="M494.5 455.5q65.5 -22.5 111.5 -76.5t46 -143q0 -78 -42.5 -131t-111.5 -79t-147 -26h-234v31q32 0 46.5 2t24 13t9.5 36v151h-127v32h127v143q0 24 -20 32t-57 7v31h246q63 0 128.5 -22.5zM506.5 84.5q47.5 54.5 47.5 152.5q0 63 -26 111t-73 74t-108 26h-65v-183h85
v-32h-85v-151q0 -27 19.5 -39.5t61.5 -12.5q96 0 143.5 54.5z" />
    <glyph glyph-name="dcaron.sc" horiz-adv-x="670" 
d="M562.5 105q-42.5 -53 -111.5 -79t-147 -26h-234v31q32 0 46.5 2t24 13t9.5 36v326q0 24 -20 32t-57 7v31h246q63 0 128.5 -22.5t111.5 -76.5t46 -143q0 -78 -42.5 -131zM481 348q-26 48 -73 74t-108 26h-65v-366q0 -27 19.5 -39.5t61.5 -12.5q96 0 143.5 54.5t47.5 152.5
q0 63 -26 111zM375 577q-9 -15 -15 -18.5t-26 -3.5t-25.5 3t-14.5 17q-5 7 -40 62q-34 56 -71 111l19 12l134 -136l132 136l17 -12z" />
    <glyph glyph-name="e.sc" horiz-adv-x="586" 
d="M66 0v31q34 0 49.5 2.5t25.5 16t10 43.5v280q0 47 -22 61t-63 13v31h424v-116h-28q-15 52 -48 69t-98 17h-81v-186h59q42 0 63 19.5t26 62.5h28v-196h-28q-4 44 -25.5 65t-63.5 21h-59v-142q0 -30 6.5 -42.5t24.5 -16t60 -3.5q62 0 91.5 7.5t48 30t38.5 74.5h27l-11 -142
h-454z" />
    <glyph glyph-name="eacute.sc" horiz-adv-x="586" 
d="M66 0v31q34 0 49.5 2.5t25.5 16t10 43.5v280q0 47 -22 61t-63 13v31h424v-116h-28q-15 52 -48 69t-98 17h-81v-186h59q42 0 63 19.5t26 62.5h28v-196h-28q-4 44 -25.5 65t-63.5 21h-59v-142q0 -30 6.5 -42.5t24.5 -16t60 -3.5q62 0 91.5 7.5t48 30t38.5 74.5h27l-11 -142
h-454zM218 561q71 110 92 152q13 24 26 33t32 9q16 0 27 -11t11 -25q0 -18 -7 -27.5t-27 -26.5l-36 -29q-15 -13 -40 -33t-65 -53z" />
    <glyph glyph-name="ecaron.sc" horiz-adv-x="586" 
d="M66 0v31q34 0 49.5 2.5t25.5 16t10 43.5v280q0 47 -22 61t-63 13v31h424v-116h-28q-15 52 -48 69t-98 17h-81v-186h59q42 0 63 19.5t26 62.5h28v-196h-28q-4 44 -25.5 65t-63.5 21h-59v-142q0 -30 6.5 -42.5t24.5 -16t60 -3.5q62 0 91.5 7.5t48 30t38.5 74.5h27l-11 -142
h-454zM333 577q-9 -15 -15 -18.5t-26 -3.5t-25.5 3t-14.5 17q-5 7 -40 62q-34 56 -71 111l19 12l134 -136l132 136l17 -12z" />
    <glyph glyph-name="ecircumflex.sc" horiz-adv-x="586" 
d="M66 0v31q34 0 49.5 2.5t25.5 16t10 43.5v280q0 47 -22 61t-63 13v31h424v-116h-28q-15 52 -48 69t-98 17h-81v-186h59q42 0 63 19.5t26 62.5h28v-196h-28q-4 44 -25.5 65t-63.5 21h-59v-142q0 -30 6.5 -42.5t24.5 -16t60 -3.5q62 0 91.5 7.5t48 30t38.5 74.5h27l-11 -142
h-454zM292 690l-132 -136l-19 12l110 172q13 21 42 21q28 0 40 -19l111 -174l-19 -12z" />
    <glyph glyph-name="edieresis.sc" horiz-adv-x="586" 
d="M66 0v31q34 0 49.5 2.5t25.5 16t10 43.5v280q0 47 -22 61t-63 13v31h424v-116h-28q-15 52 -48 69t-98 17h-81v-186h59q42 0 63 19.5t26 62.5h28v-196h-28q-4 44 -25.5 65t-63.5 21h-59v-142q0 -30 6.5 -42.5t24.5 -16t60 -3.5q62 0 91.5 7.5t48 30t38.5 74.5h27l-11 -142
h-454zM228.5 616q-16.5 -17 -40.5 -17q-22 0 -38 16t-16 38q0 23 16 39.5t38 16.5q24 0 40.5 -15.5t16.5 -36.5q0 -24 -16.5 -41zM435 616q-16 -17 -40 -17q-23 0 -39 16t-16 38q0 23 16.5 39.5t38.5 16.5q24 0 40 -15.5t16 -36.5q0 -24 -16 -41z" />
    <glyph glyph-name="edotaccent.sc" horiz-adv-x="586" 
d="M66 0v31q34 0 49.5 2.5t25.5 16t10 43.5v280q0 47 -22 61t-63 13v31h424v-116h-28q-15 52 -48 69t-98 17h-81v-186h59q42 0 63 19.5t26 62.5h28v-196h-28q-4 44 -25.5 65t-63.5 21h-59v-142q0 -30 6.5 -42.5t24.5 -16t60 -3.5q62 0 91.5 7.5t48 30t38.5 74.5h27l-11 -142
h-454zM331.5 636.5q-16.5 -17.5 -39.5 -17.5t-39 16t-16 38q0 23 16.5 39.5t38.5 16.5q24 0 40 -15.5t16 -36.5q0 -23 -16.5 -40.5z" />
    <glyph glyph-name="egrave.sc" horiz-adv-x="586" 
d="M66 0v31q34 0 49.5 2.5t25.5 16t10 43.5v280q0 47 -22 61t-63 13v31h424v-116h-28q-15 52 -48 69t-98 17h-81v-186h59q42 0 63 19.5t26 62.5h28v-196h-28q-4 44 -25.5 65t-63.5 21h-59v-142q0 -30 6.5 -42.5t24.5 -16t60 -3.5q62 0 91.5 7.5t48 30t38.5 74.5h27l-11 -142
h-454zM214 665q-20 16 -27 26t-7 28q0 14 11 25t27 11q19 0 31.5 -9t26.5 -33q48 -85 92 -152l-13 -11q-83 69 -141 115z" />
    <glyph glyph-name="emacron.sc" horiz-adv-x="586" 
d="M66 0v31q34 0 49.5 2.5t25.5 16t10 43.5v280q0 47 -22 61t-63 13v31h424v-116h-28q-15 52 -48 69t-98 17h-81v-186h59q42 0 63 19.5t26 62.5h28v-196h-28q-4 44 -25.5 65t-63.5 21h-59v-142q0 -30 6.5 -42.5t24.5 -16t60 -3.5q62 0 91.5 7.5t48 30t38.5 74.5h27l-11 -142
h-454zM136 672h314v-59h-314v59z" />
    <glyph glyph-name="eogonek.sc" horiz-adv-x="586" 
d="M66 0v31q34 0 49.5 2.5t25.5 16t10 43.5v280q0 47 -22 61t-63 13v31h424v-116h-28q-15 52 -48 69t-98 17h-81v-186h59q42 0 63 19.5t26 62.5h28v-196h-28q-4 44 -25.5 65t-63.5 21h-59v-142q0 -30 6.5 -42.5t24.5 -16t60 -3.5q62 0 91.5 7.5t48 30t38.5 74.5h27l-11 -142
h-454zM478 -223q-53 0 -84 20.5t-31 59.5q0 41 28.5 75t88.5 68h40q-82 -75 -82 -137q0 -26 13.5 -38t45.5 -12q19 0 48 6v-35q-34 -7 -67 -7z" />
    <glyph glyph-name="f.sc" horiz-adv-x="544" 
d="M436.5 415.5q-19.5 19.5 -46 26t-68.5 6.5h-87v-189h61q41 0 66.5 21t24.5 62h29v-197h-29q-3 87 -91 87h-61v-141q0 -28 10.5 -41.5t26.5 -16.5t44 -2v-31h-250v31q6 0 34.5 -1t39.5 13t11 44v298q0 40 -22 51.5t-63 10.5v31h429v-120h-28q-11 38 -30.5 57.5z" />
    <glyph glyph-name="g.sc" horiz-adv-x="645" 
d="M592 188q-30 -4 -42.5 -10.5t-12.5 -27.5v-166h-18l-40 41q-99 -36 -177 -36q-59 0 -113.5 28t-88.5 82.5t-34 128.5q0 72 37.5 131.5t103 93.5t145.5 34q33 0 69 -11t55 -26l24 35h26v-175h-35q-12 68 -51.5 109t-110.5 41q-46 0 -83.5 -26.5t-59.5 -77.5t-22 -122
q0 -61 22 -110.5t60.5 -77t85.5 -27.5q55 0 88 22t38 57v47q0 27 -24.5 35.5t-72.5 10.5v24h251v-24z" />
    <glyph glyph-name="h.sc" horiz-adv-x="726" 
d="M410 31q31 -1 46.5 1.5t25.5 14.5t10 40v148h-259v-144q0 -38 22 -49.5t61 -10.5v-31h-244v31q30 -1 44.5 1.5t23.5 14.5t9 40v310q0 31 -21.5 41t-55.5 9v31h243v-31q-43 1 -62.5 -7t-19.5 -39v-137h259v133q0 52 -82 50v31h244v-31q-42 1 -59.5 -7t-17.5 -39v-310
q0 -39 19.5 -50t57.5 -10v-31h-244v31z" />
    <glyph glyph-name="i.sc" horiz-adv-x="388" 
d="M72 31q32 -1 47 1.5t24 17t9 48.5v289q0 37 -21.5 49t-58.5 11v31h244v-31q-29 1 -45 -2t-25.5 -15.5t-9.5 -39.5v-289q0 -32 10.5 -47.5t27 -19.5t42.5 -3v-31h-244v31z" />
    <glyph glyph-name="iacute.sc" horiz-adv-x="388" 
d="M72 31q32 -1 47 1.5t24 17t9 48.5v289q0 37 -21.5 49t-58.5 11v31h244v-31q-29 1 -45 -2t-25.5 -15.5t-9.5 -39.5v-289q0 -32 10.5 -47.5t27 -19.5t42.5 -3v-31h-244v31zM119 561q71 110 92 152q13 24 26 33t32 9q16 0 27 -11t11 -25q0 -18 -7 -27.5t-27 -26.5l-36 -29
q-15 -13 -40 -33t-65 -53z" />
    <glyph glyph-name="icircumflex.sc" horiz-adv-x="388" 
d="M72 31q32 -1 47 1.5t24 17t9 48.5v289q0 37 -21.5 49t-58.5 11v31h244v-31q-29 1 -45 -2t-25.5 -15.5t-9.5 -39.5v-289q0 -32 10.5 -47.5t27 -19.5t42.5 -3v-31h-244v31zM193 690l-132 -136l-19 12l110 172q13 21 42 21q28 0 40 -19l111 -174l-19 -12z" />
    <glyph glyph-name="idieresis.sc" horiz-adv-x="388" 
d="M72 31q32 -1 47 1.5t24 17t9 48.5v289q0 37 -21.5 49t-58.5 11v31h244v-31q-29 1 -45 -2t-25.5 -15.5t-9.5 -39.5v-289q0 -32 10.5 -47.5t27 -19.5t42.5 -3v-31h-244v31zM129.5 616q-16.5 -17 -40.5 -17q-22 0 -38 16t-16 38q0 23 16 39.5t38 16.5q24 0 40.5 -15.5
t16.5 -36.5q0 -24 -16.5 -41zM336 616q-16 -17 -40 -17q-23 0 -39 16t-16 38q0 23 16.5 39.5t38.5 16.5q24 0 40 -15.5t16 -36.5q0 -24 -16 -41z" />
    <glyph glyph-name="igrave.sc" horiz-adv-x="388" 
d="M72 31q32 -1 47 1.5t24 17t9 48.5v289q0 37 -21.5 49t-58.5 11v31h244v-31q-29 1 -45 -2t-25.5 -15.5t-9.5 -39.5v-289q0 -32 10.5 -47.5t27 -19.5t42.5 -3v-31h-244v31zM115 665q-20 16 -27 26t-7 28q0 14 11 25t27 11q19 0 31.5 -9t26.5 -33q48 -85 92 -152l-13 -11
q-83 69 -141 115z" />
    <glyph glyph-name="imacron.sc" horiz-adv-x="388" 
d="M72 31q32 -1 47 1.5t24 17t9 48.5v289q0 37 -21.5 49t-58.5 11v31h244v-31q-29 1 -45 -2t-25.5 -15.5t-9.5 -39.5v-289q0 -32 10.5 -47.5t27 -19.5t42.5 -3v-31h-244v31zM37 672h314v-59h-314v59z" />
    <glyph glyph-name="iogonek.sc" horiz-adv-x="388" 
d="M72 31q32 -1 47 1.5t24 17t9 48.5v289q0 37 -21.5 49t-58.5 11v31h244v-31q-29 1 -45 -2t-25.5 -15.5t-9.5 -39.5v-289q0 -32 10.5 -47.5t27 -19.5t42.5 -3v-31h-244v31zM274 -223q-53 0 -84 20.5t-31 59.5q0 41 28.5 75t88.5 68h40q-82 -75 -82 -137q0 -26 13.5 -38
t45.5 -12q19 0 48 6v-35q-34 -7 -67 -7z" />
    <glyph glyph-name="j.sc" horiz-adv-x="456" 
d="M353 444q-15 -3 -24.5 -17.5t-9.5 -48.5v-215q0 -77 -45.5 -126t-126.5 -49q-57 0 -83 20.5t-26 47.5q0 22 15.5 37t38.5 15q24 0 37.5 -13t13.5 -34l-32 -45v-5h14q48 0 71.5 19.5t30.5 52t7 84.5v207q0 47 -21.5 60.5t-63.5 12.5v31h250v-31q-31 0 -46 -3z" />
    <glyph glyph-name="k.sc" horiz-adv-x="642" 
d="M348 31q71 -2 71 18q0 9 -18 27l-154 158h-14v-143q0 -39 20 -50t59 -10v-31h-240v31q30 -1 44.5 1.5t23.5 14.5t9 40v298q0 39 -21 51t-56 11v31h240v-31q-29 1 -44.5 -2t-25 -15.5t-9.5 -40.5v-141h6l182 165q8 8 8 14q0 9 -16 15t-46 5v31h221v-31l-21 1
q-61 0 -95 -31l-154 -146l188 -192q28 -28 54 -38t67 -10v-31h-279v31z" />
    <glyph glyph-name="l.sc" horiz-adv-x="556" 
d="M71 0v31q30 -1 45 1.5t24.5 15t9.5 40.5v297q0 39 -21.5 51t-57.5 11v31h242v-31q-29 1 -44.5 -2t-25 -16t-9.5 -41v-275q0 -42 5.5 -58.5t22.5 -20.5t62 -4q75 0 112 24t59 89h25l-12 -143h-437z" />
    <glyph glyph-name="lacute.sc" horiz-adv-x="556" 
d="M71 0v31q30 -1 45 1.5t24.5 15t9.5 40.5v297q0 39 -21.5 51t-57.5 11v31h242v-31q-29 1 -44.5 -2t-25 -16t-9.5 -41v-275q0 -42 5.5 -58.5t22.5 -20.5t62 -4q75 0 112 24t59 89h25l-12 -143h-437zM117 561q71 110 92 152q13 24 26 33t32 9q16 0 27 -11t11 -25
q0 -18 -7 -27.5t-27 -26.5l-36 -29q-15 -13 -40 -33t-65 -53z" />
    <glyph glyph-name="lcaron.sc" horiz-adv-x="588" 
d="M71 0v31q30 -1 45 1.5t24.5 15t9.5 40.5v297q0 39 -21.5 51t-57.5 11v31h242v-31q-29 1 -44.5 -2t-25 -16t-9.5 -41v-275q0 -42 5.5 -58.5t22.5 -20.5t62 -4q75 0 112 24t59 89h25l-12 -143h-437zM513 478q-42 -49 -91 -73l-20 33q52 29 79 60.5t27 78.5h-26
q-34 0 -50 17.5t-16 40.5q0 24 16 41t46 17q36 0 56.5 -27.5t20.5 -72.5q0 -66 -42 -115z" />
    <glyph glyph-name="lslash.sc" horiz-adv-x="626" 
d="M520 143l-12 -143h-437v31q30 -1 45 1.5t24.5 15t9.5 40.5v128l-100 -33l-11 27l111 37v138q0 39 -21.5 51t-57.5 11v31h242v-31q-29 1 -44.5 -2t-25 -16t-9.5 -41v-113l81 27l10 -28l-91 -30v-131q0 -42 5.5 -58.5t22.5 -20.5t62 -4q75 0 112 24t59 89h25z" />
    <glyph glyph-name="m.sc" horiz-adv-x="809" 
d="M486 31q32 -1 49.5 1.5t29.5 15.5t12 43v323l-192 -407h-20l-40 98l-143 319v-284q0 -43 7 -65.5t28.5 -33t64.5 -10.5v-31h-232v31q45 -1 65 7.5t25.5 29.5t5.5 69v241q0 39 -22 54.5t-70 14.5v31h189l161 -354l138 295l18 59h181v-31q-44 1 -62.5 -4.5t-18.5 -30.5
v-321q0 -39 20 -50t61 -10v-31h-255v31z" />
    <glyph glyph-name="n.sc" horiz-adv-x="683" 
d="M584 438.5q-20 -9.5 -25.5 -30t-5.5 -64.5v-349h-36l-335 388v-243q0 -43 8 -66t30 -33t66 -10v-31h-235v31q44 -1 64 9t25.5 31.5t5.5 65.5v232q0 37 -32 59.5t-72 19.5v30h163l312 -360v222q0 43 -8 65.5t-30 32t-66 9.5v31h235v-31q-44 1 -64 -8.5z" />
    <glyph glyph-name="nacute.sc" horiz-adv-x="683" 
d="M584 438.5q-20 -9.5 -25.5 -30t-5.5 -64.5v-349h-36l-335 388v-243q0 -43 8 -66t30 -33t66 -10v-31h-235v31q44 -1 64 9t25.5 31.5t5.5 65.5v232q0 37 -32 59.5t-72 19.5v30h163l312 -360v222q0 43 -8 65.5t-30 32t-66 9.5v31h235v-31q-44 1 -64 -8.5zM266 561
q71 110 92 152q13 24 26 33t32 9q16 0 27 -11t11 -25q0 -18 -7 -27.5t-27 -26.5l-36 -29q-15 -13 -40 -33t-65 -53z" />
    <glyph glyph-name="ncaron.sc" horiz-adv-x="683" 
d="M584 438.5q-20 -9.5 -25.5 -30t-5.5 -64.5v-349h-36l-335 388v-243q0 -43 8 -66t30 -33t66 -10v-31h-235v31q44 -1 64 9t25.5 31.5t5.5 65.5v232q0 37 -32 59.5t-72 19.5v30h163l312 -360v222q0 43 -8 65.5t-30 32t-66 9.5v31h235v-31q-44 1 -64 -8.5zM381 577
q-9 -15 -15 -18.5t-26 -3.5t-25.5 3t-14.5 17q-5 7 -40 62q-34 56 -71 111l19 12l134 -136l132 136l17 -12z" />
    <glyph glyph-name="ntilde.sc" horiz-adv-x="683" 
d="M584 438.5q-20 -9.5 -25.5 -30t-5.5 -64.5v-349h-36l-335 388v-243q0 -43 8 -66t30 -33t66 -10v-31h-235v31q44 -1 64 9t25.5 31.5t5.5 65.5v232q0 37 -32 59.5t-72 19.5v30h163l312 -360v222q0 43 -8 65.5t-30 32t-66 9.5v31h235v-31q-44 1 -64 -8.5zM500.5 630.5
q-17.5 -28.5 -43 -48t-53.5 -19.5q-29 0 -49 8t-43 23q-18 12 -31.5 17.5t-29.5 5.5q-24 0 -35.5 -11t-27.5 -41q-2 -3 -4.5 -8t-5.5 -10l-22 10q13 43 45.5 82.5t72.5 39.5q28 0 48 -8t45 -24q18 -11 30 -16.5t25 -5.5q35 0 48.5 12.5t21 31t10.5 25.5l23 -9
q-7 -26 -24.5 -54.5z" />
    <glyph glyph-name="o.sc" horiz-adv-x="667" 
d="M197 20.5q-61 32.5 -96 88.5t-35 125q0 74 34.5 132.5t95.5 91t138 32.5q76 0 137 -32t95.5 -88.5t34.5 -127.5q0 -74 -34.5 -131.5t-95.5 -90t-140 -32.5q-73 0 -134 32.5zM461 79.5q43 61.5 43 160.5q0 93 -41.5 156.5t-128.5 63.5q-80 0 -125.5 -59t-45.5 -164
q0 -96 43.5 -157.5t127.5 -61.5t127 61.5z" />
    <glyph glyph-name="oacute.sc" horiz-adv-x="667" 
d="M197 20.5q-61 32.5 -96 88.5t-35 125q0 74 34.5 132.5t95.5 91t138 32.5q76 0 137 -32t95.5 -88.5t34.5 -127.5q0 -74 -34.5 -131.5t-95.5 -90t-140 -32.5q-73 0 -134 32.5zM461 79.5q43 61.5 43 160.5q0 93 -41.5 156.5t-128.5 63.5q-80 0 -125.5 -59t-45.5 -164
q0 -96 43.5 -157.5t127.5 -61.5t127 61.5zM259 561q71 110 92 152q13 24 26 33t32 9q16 0 27 -11t11 -25q0 -18 -7 -27.5t-27 -26.5l-36 -29q-15 -13 -40 -33t-65 -53z" />
    <glyph glyph-name="ocircumflex.sc" horiz-adv-x="667" 
d="M197 20.5q-61 32.5 -96 88.5t-35 125q0 74 34.5 132.5t95.5 91t138 32.5q76 0 137 -32t95.5 -88.5t34.5 -127.5q0 -74 -34.5 -131.5t-95.5 -90t-140 -32.5q-73 0 -134 32.5zM461 79.5q43 61.5 43 160.5q0 93 -41.5 156.5t-128.5 63.5q-80 0 -125.5 -59t-45.5 -164
q0 -96 43.5 -157.5t127.5 -61.5t127 61.5zM333 690l-132 -136l-19 12l110 172q13 21 42 21q28 0 40 -19l111 -174l-19 -12z" />
    <glyph glyph-name="odieresis.sc" horiz-adv-x="667" 
d="M197 20.5q-61 32.5 -96 88.5t-35 125q0 74 34.5 132.5t95.5 91t138 32.5q76 0 137 -32t95.5 -88.5t34.5 -127.5q0 -74 -34.5 -131.5t-95.5 -90t-140 -32.5q-73 0 -134 32.5zM461 79.5q43 61.5 43 160.5q0 93 -41.5 156.5t-128.5 63.5q-80 0 -125.5 -59t-45.5 -164
q0 -96 43.5 -157.5t127.5 -61.5t127 61.5zM269.5 616q-16.5 -17 -40.5 -17q-22 0 -38 16t-16 38q0 23 16 39.5t38 16.5q24 0 40.5 -15.5t16.5 -36.5q0 -24 -16.5 -41zM476 616q-16 -17 -40 -17q-23 0 -39 16t-16 38q0 23 16.5 39.5t38.5 16.5q24 0 40 -15.5t16 -36.5
q0 -24 -16 -41z" />
    <glyph glyph-name="ograve.sc" horiz-adv-x="667" 
d="M197 20.5q-61 32.5 -96 88.5t-35 125q0 74 34.5 132.5t95.5 91t138 32.5q76 0 137 -32t95.5 -88.5t34.5 -127.5q0 -74 -34.5 -131.5t-95.5 -90t-140 -32.5q-73 0 -134 32.5zM461 79.5q43 61.5 43 160.5q0 93 -41.5 156.5t-128.5 63.5q-80 0 -125.5 -59t-45.5 -164
q0 -96 43.5 -157.5t127.5 -61.5t127 61.5zM255 665q-20 16 -27 26t-7 28q0 14 11 25t27 11q19 0 31.5 -9t26.5 -33q48 -85 92 -152l-13 -11q-83 69 -141 115z" />
    <glyph glyph-name="omacron.sc" horiz-adv-x="667" 
d="M197 20.5q-61 32.5 -96 88.5t-35 125q0 74 34.5 132.5t95.5 91t138 32.5q76 0 137 -32t95.5 -88.5t34.5 -127.5q0 -74 -34.5 -131.5t-95.5 -90t-140 -32.5q-73 0 -134 32.5zM461 79.5q43 61.5 43 160.5q0 93 -41.5 156.5t-128.5 63.5q-80 0 -125.5 -59t-45.5 -164
q0 -96 43.5 -157.5t127.5 -61.5t127 61.5zM177 672h314v-59h-314v59z" />
    <glyph glyph-name="oslash.sc" horiz-adv-x="667" 
d="M581 341q20 -46 20 -99q0 -74 -34.5 -131.5t-95.5 -90t-140 -32.5q-87 0 -155 45l-162 -181l-31 29l160 178q-37 34 -57 78.5t-20 96.5q0 74 34.5 132.5t95.5 91t138 32.5q88 0 156 -43l161 179l32 -30l-158 -176q36 -33 56 -79zM188 110l267 297q-45 53 -121 53
q-80 0 -125.5 -59t-45.5 -164q0 -74 25 -127zM461 79.5q43 61.5 43 160.5q0 73 -25 129l-267 -297q46 -54 122 -54q84 0 127 61.5z" />
    <glyph glyph-name="otilde.sc" horiz-adv-x="667" 
d="M197 20.5q-61 32.5 -96 88.5t-35 125q0 74 34.5 132.5t95.5 91t138 32.5q76 0 137 -32t95.5 -88.5t34.5 -127.5q0 -74 -34.5 -131.5t-95.5 -90t-140 -32.5q-73 0 -134 32.5zM461 79.5q43 61.5 43 160.5q0 93 -41.5 156.5t-128.5 63.5q-80 0 -125.5 -59t-45.5 -164
q0 -96 43.5 -157.5t127.5 -61.5t127 61.5zM493.5 630.5q-17.5 -28.5 -43 -48t-53.5 -19.5q-29 0 -49 8t-43 23q-18 12 -31.5 17.5t-29.5 5.5q-24 0 -35.5 -11t-27.5 -41q-2 -3 -4.5 -8t-5.5 -10l-22 10q13 43 45.5 82.5t72.5 39.5q28 0 48 -8t45 -24q18 -11 30 -16.5
t25 -5.5q35 0 48.5 12.5t21 31t10.5 25.5l23 -9q-7 -26 -24.5 -54.5z" />
    <glyph glyph-name="oe.sc" horiz-adv-x="855" 
d="M185.5 30.5q-55.5 30.5 -87.5 85t-32 122.5t31.5 122.5t87.5 86t126 31.5h451v-116h-28q-15 53 -48.5 71.5t-96.5 18.5h-70v-190h46q42 0 63 20t26 62h28v-196h-28q-4 45 -25.5 65.5t-63.5 20.5h-46v-142q0 -29 6.5 -42t23.5 -17.5t54 -4.5q59 0 88 8.5t46 31.5t35 74h28
l-10 -142h-481q-68 0 -123.5 30.5zM405 48q24 25 30 66.5t7 125.5v33q0 61 -7.5 98.5t-32 60t-74.5 22.5q-83 0 -124.5 -58t-41.5 -157q0 -95 39 -155.5t127 -60.5q53 0 77 25z" />
    <glyph glyph-name="p.sc" horiz-adv-x="552" 
d="M432 250q-60 -35 -144 -35h-54v-128q0 -29 10 -41t25 -14t48 -2v-30h-246v30q31 0 45.5 2.5t23.5 14.5t9 40v301q0 29 -10 42t-25.5 15.5t-45.5 2.5v30h257q72 0 119.5 -34t47.5 -92q0 -67 -60 -102zM368 421q-25 28 -86 28h-48v-206h30q73 0 101 31.5t28 74.5
q0 44 -25 72z" />
    <glyph glyph-name="thorn.sc" horiz-adv-x="551" 
d="M432 149q-59 -35 -145 -35h-52v-49q0 -25 19.5 -32t63.5 -9v-24h-250v24q43 2 61.5 9.5t18.5 32.5v343q0 23 -21.5 33t-58.5 13v23h245v-23q-40 -3 -59 -11t-19 -31v-36h89q73 0 120 -33.5t47 -91.5q0 -68 -59 -103zM366 322q-25 29 -86 29h-45v-210h29q127 0 127 109
q0 43 -25 72z" />
    <glyph glyph-name="q.sc" horiz-adv-x="667" 
d="M610 -35q-11 -45 -36.5 -74.5t-81.5 -29.5q-58 0 -85.5 34t-43.5 94q-11 -1 -32 -1q-73 0 -134 32.5t-96 88.5t-35 125q0 74 34.5 132.5t95.5 91t138 32.5q76 0 137 -32t95.5 -88.5t34.5 -127.5q0 -82 -42 -143.5t-115 -90.5q16 -50 33.5 -77.5t46.5 -27.5q24 0 40 21
t22 49zM208.5 401q-45.5 -59 -45.5 -164q0 -65 21 -116q40 54 115 54q45 0 71.5 -20t42.5 -55q7 -15 19 -51q36 28 54 77.5t18 113.5q0 93 -41.5 156.5t-128.5 63.5q-80 0 -125.5 -59zM355 19q-13 55 -30 83t-54 28q-45 0 -71 -41q46 -71 134 -71q14 0 21 1z" />
    <glyph glyph-name="r.sc" horiz-adv-x="628" 
d="M392 138q-11 31 -30 51t-50 39h-78v-141q0 -29 10 -41t24.5 -14t46.5 -2v-30h-244v30q31 0 45.5 2.5t24 14.5t9.5 40v302q0 27 -10 40t-25.5 16t-43.5 3v30h266q68 0 115.5 -29.5t47.5 -86.5q0 -94 -145 -115v-8q45 -10 77.5 -30t48.5 -59l38 -94q10 -23 38 -27l49 -6
v-23h-161zM372 428q-30 21 -82 21h-56v-194h42q55 0 90.5 29t35.5 78q0 45 -30 66z" />
    <glyph glyph-name="racute.sc" horiz-adv-x="628" 
d="M392 138q-11 31 -30 51t-50 39h-78v-141q0 -29 10 -41t24.5 -14t46.5 -2v-30h-244v30q31 0 45.5 2.5t24 14.5t9.5 40v302q0 27 -10 40t-25.5 16t-43.5 3v30h266q68 0 115.5 -29.5t47.5 -86.5q0 -94 -145 -115v-8q45 -10 77.5 -30t48.5 -59l38 -94q10 -23 38 -27l49 -6
v-23h-161zM372 428q-30 21 -82 21h-56v-194h42q55 0 90.5 29t35.5 78q0 45 -30 66zM240 561q71 110 92 152q13 24 26 33t32 9q16 0 27 -11t11 -25q0 -18 -7 -27.5t-27 -26.5l-36 -29q-15 -13 -40 -33t-65 -53z" />
    <glyph glyph-name="rcaron.sc" horiz-adv-x="628" 
d="M392 138q-11 31 -30 51t-50 39h-78v-141q0 -29 10 -41t24.5 -14t46.5 -2v-30h-244v30q31 0 45.5 2.5t24 14.5t9.5 40v302q0 27 -10 40t-25.5 16t-43.5 3v30h266q68 0 115.5 -29.5t47.5 -86.5q0 -94 -145 -115v-8q45 -10 77.5 -30t48.5 -59l38 -94q10 -23 38 -27l49 -6
v-23h-161zM372 428q-30 21 -82 21h-56v-194h42q55 0 90.5 29t35.5 78q0 45 -30 66zM355 577q-9 -15 -15 -18.5t-26 -3.5t-25.5 3t-14.5 17q-5 7 -40 62q-34 56 -71 111l19 12l134 -136l132 136l17 -12z" />
    <glyph glyph-name="s.sc" horiz-adv-x="471" 
d="M397.5 58q-23.5 -32 -64.5 -50t-93 -18q-41 0 -74 10.5t-54 25.5l-27 -33h-25v172h24q27 -66 64.5 -105.5t99.5 -39.5q46 0 70.5 22.5t24.5 54.5q0 37 -30.5 60t-93.5 53q-49 23 -78.5 41t-50 45t-20.5 64q0 56 45.5 91.5t109.5 35.5q34 0 65.5 -10t52.5 -24l25 32h27
v-167h-24q-25 65 -55.5 103t-86.5 38q-35 0 -60.5 -18t-25.5 -57q0 -32 18.5 -54t45 -36t71.5 -32q47 -19 75.5 -34t48 -39.5t19.5 -59.5q0 -39 -23.5 -71z" />
    <glyph glyph-name="sacute.sc" horiz-adv-x="471" 
d="M397.5 58q-23.5 -32 -64.5 -50t-93 -18q-41 0 -74 10.5t-54 25.5l-27 -33h-25v172h24q27 -66 64.5 -105.5t99.5 -39.5q46 0 70.5 22.5t24.5 54.5q0 37 -30.5 60t-93.5 53q-49 23 -78.5 41t-50 45t-20.5 64q0 56 45.5 91.5t109.5 35.5q34 0 65.5 -10t52.5 -24l25 32h27
v-167h-24q-25 65 -55.5 103t-86.5 38q-35 0 -60.5 -18t-25.5 -57q0 -32 18.5 -54t45 -36t71.5 -32q47 -19 75.5 -34t48 -39.5t19.5 -59.5q0 -39 -23.5 -71zM161 561q71 110 92 152q13 24 26 33t32 9q16 0 27 -11t11 -25q0 -18 -7 -27.5t-27 -26.5l-36 -29q-15 -13 -40 -33
t-65 -53z" />
    <glyph glyph-name="scaron.sc" horiz-adv-x="471" 
d="M397.5 58q-23.5 -32 -64.5 -50t-93 -18q-41 0 -74 10.5t-54 25.5l-27 -33h-25v172h24q27 -66 64.5 -105.5t99.5 -39.5q46 0 70.5 22.5t24.5 54.5q0 37 -30.5 60t-93.5 53q-49 23 -78.5 41t-50 45t-20.5 64q0 56 45.5 91.5t109.5 35.5q34 0 65.5 -10t52.5 -24l25 32h27
v-167h-24q-25 65 -55.5 103t-86.5 38q-35 0 -60.5 -18t-25.5 -57q0 -32 18.5 -54t45 -36t71.5 -32q47 -19 75.5 -34t48 -39.5t19.5 -59.5q0 -39 -23.5 -71zM276 577q-9 -15 -15 -18.5t-26 -3.5t-25.5 3t-14.5 17q-5 7 -40 62q-34 56 -71 111l19 12l134 -136l132 136l17 -12z
" />
    <glyph glyph-name="scedilla.sc" horiz-adv-x="471" 
d="M373.5 33q-47.5 -39 -121.5 -43v-46q51 0 88 -16t37 -59q0 -47 -35.5 -70t-94.5 -23q-37 0 -72 7v36q47 -15 73 -15q61 0 61 47q0 24 -24.5 30.5t-65.5 6.5v103q-34 3 -61.5 12.5t-45.5 22.5l-27 -33h-25v172h24q27 -66 64.5 -105.5t99.5 -39.5q46 0 70.5 22.5t24.5 54.5
q0 37 -30.5 60t-93.5 53q-49 23 -78.5 41t-50 45t-20.5 64q0 56 45.5 91.5t109.5 35.5q34 0 65.5 -10t52.5 -24l25 32h27v-167h-24q-25 65 -55.5 103t-86.5 38q-35 0 -60.5 -18t-25.5 -57q0 -32 18.5 -54t45 -36t71.5 -32q47 -19 75.5 -34t48 -39.5t19.5 -59.5
q0 -57 -47.5 -96z" />
    <glyph glyph-name="t.sc" horiz-adv-x="564" 
d="M447.5 427.5q-31.5 20.5 -95.5 20.5h-28v-378q0 -25 23 -34.5t64 -12.5v-23h-256v23q33 2 48.5 4.5t26 11.5t10.5 27v382h-27q-65 0 -96.5 -21t-46.5 -78h-27v129h478v-129h-26q-16 58 -47.5 78.5z" />
    <glyph glyph-name="tcaron.sc" horiz-adv-x="564" 
d="M447.5 427.5q-31.5 20.5 -95.5 20.5h-28v-378q0 -25 23 -34.5t64 -12.5v-23h-256v23q33 2 48.5 4.5t26 11.5t10.5 27v382h-27q-65 0 -96.5 -21t-46.5 -78h-27v129h478v-129h-26q-16 58 -47.5 78.5zM323 577q-9 -15 -15 -18.5t-26 -3.5t-25.5 3t-14.5 17q-5 7 -40 62
q-34 56 -71 111l19 12l134 -136l132 136l17 -12z" />
    <glyph glyph-name="uni0163.sc" horiz-adv-x="564" 
d="M521 478v-129h-26q-16 58 -47.5 78.5t-95.5 20.5h-28v-378q0 -25 23 -34.5t64 -12.5v-23h-112v-56q51 0 88 -16t37 -59q0 -47 -35.5 -70t-94.5 -23q-37 0 -72 7v36q47 -15 73 -15q61 0 61 47q0 24 -24.5 30.5t-65.5 6.5v112h-111v23q33 2 48.5 4.5t26 11.5t10.5 27v382
h-27q-65 0 -96.5 -21t-46.5 -78h-27v129h478z" />
    <glyph glyph-name="u.sc" horiz-adv-x="682" 
d="M234 8q-46 19 -70 51t-24 70v257q0 38 -20 49.5t-57 11.5v31h241v-31q-30 0 -45 -3t-24.5 -15t-9.5 -40v-240q0 -51 30.5 -86.5t108.5 -35.5q77 0 109.5 37.5t32.5 87.5v189q0 43 -7.5 65t-29 32t-66.5 9v31h236v-31q-44 1 -64 -8t-25.5 -29.5t-5.5 -64.5v-203
q0 -53 -30.5 -87.5t-76.5 -50t-92 -15.5q-65 0 -111 19z" />
    <glyph glyph-name="uacute.sc" horiz-adv-x="682" 
d="M234 8q-46 19 -70 51t-24 70v257q0 38 -20 49.5t-57 11.5v31h241v-31q-30 0 -45 -3t-24.5 -15t-9.5 -40v-240q0 -51 30.5 -86.5t108.5 -35.5q77 0 109.5 37.5t32.5 87.5v189q0 43 -7.5 65t-29 32t-66.5 9v31h236v-31q-44 1 -64 -8t-25.5 -29.5t-5.5 -64.5v-203
q0 -53 -30.5 -87.5t-76.5 -50t-92 -15.5q-65 0 -111 19zM266 561q71 110 92 152q13 24 26 33t32 9q16 0 27 -11t11 -25q0 -18 -7 -27.5t-27 -26.5l-36 -29q-15 -13 -40 -33t-65 -53z" />
    <glyph glyph-name="ucircumflex.sc" horiz-adv-x="682" 
d="M234 8q-46 19 -70 51t-24 70v257q0 38 -20 49.5t-57 11.5v31h241v-31q-30 0 -45 -3t-24.5 -15t-9.5 -40v-240q0 -51 30.5 -86.5t108.5 -35.5q77 0 109.5 37.5t32.5 87.5v189q0 43 -7.5 65t-29 32t-66.5 9v31h236v-31q-44 1 -64 -8t-25.5 -29.5t-5.5 -64.5v-203
q0 -53 -30.5 -87.5t-76.5 -50t-92 -15.5q-65 0 -111 19zM340 690l-132 -136l-19 12l110 172q13 21 42 21q28 0 40 -19l111 -174l-19 -12z" />
    <glyph glyph-name="udieresis.sc" horiz-adv-x="682" 
d="M234 8q-46 19 -70 51t-24 70v257q0 38 -20 49.5t-57 11.5v31h241v-31q-30 0 -45 -3t-24.5 -15t-9.5 -40v-240q0 -51 30.5 -86.5t108.5 -35.5q77 0 109.5 37.5t32.5 87.5v189q0 43 -7.5 65t-29 32t-66.5 9v31h236v-31q-44 1 -64 -8t-25.5 -29.5t-5.5 -64.5v-203
q0 -53 -30.5 -87.5t-76.5 -50t-92 -15.5q-65 0 -111 19zM276.5 616q-16.5 -17 -40.5 -17q-22 0 -38 16t-16 38q0 23 16 39.5t38 16.5q24 0 40.5 -15.5t16.5 -36.5q0 -24 -16.5 -41zM483 616q-16 -17 -40 -17q-23 0 -39 16t-16 38q0 23 16.5 39.5t38.5 16.5q24 0 40 -15.5
t16 -36.5q0 -24 -16 -41z" />
    <glyph glyph-name="ugrave.sc" horiz-adv-x="682" 
d="M234 8q-46 19 -70 51t-24 70v257q0 38 -20 49.5t-57 11.5v31h241v-31q-30 0 -45 -3t-24.5 -15t-9.5 -40v-240q0 -51 30.5 -86.5t108.5 -35.5q77 0 109.5 37.5t32.5 87.5v189q0 43 -7.5 65t-29 32t-66.5 9v31h236v-31q-44 1 -64 -8t-25.5 -29.5t-5.5 -64.5v-203
q0 -53 -30.5 -87.5t-76.5 -50t-92 -15.5q-65 0 -111 19zM262 665q-20 16 -27 26t-7 28q0 14 11 25t27 11q19 0 31.5 -9t26.5 -33q48 -85 92 -152l-13 -11q-83 69 -141 115z" />
    <glyph glyph-name="umacron.sc" horiz-adv-x="682" 
d="M234 8q-46 19 -70 51t-24 70v257q0 38 -20 49.5t-57 11.5v31h241v-31q-30 0 -45 -3t-24.5 -15t-9.5 -40v-240q0 -51 30.5 -86.5t108.5 -35.5q77 0 109.5 37.5t32.5 87.5v189q0 43 -7.5 65t-29 32t-66.5 9v31h236v-31q-44 1 -64 -8t-25.5 -29.5t-5.5 -64.5v-203
q0 -53 -30.5 -87.5t-76.5 -50t-92 -15.5q-65 0 -111 19zM184 672h314v-59h-314v59z" />
    <glyph glyph-name="uogonek.sc" horiz-adv-x="682" 
d="M639 478v-31q-44 1 -64 -8t-25.5 -29.5t-5.5 -64.5v-203q0 -86 -83 -127q-70 -69 -70 -126q0 -26 13.5 -38t45.5 -12q20 0 48 6v-35q-34 -7 -67 -7q-53 0 -84 20.5t-31 59.5q0 30 15.5 56.5t47.5 51.5q-22 -2 -34 -2q-65 0 -111 19t-70 51t-24 70v257q0 38 -20 49.5
t-57 11.5v31h241v-31q-30 0 -45 -3t-24.5 -15t-9.5 -40v-240q0 -51 30.5 -86.5t108.5 -35.5q77 0 109.5 37.5t32.5 87.5v189q0 43 -7.5 65t-29 32t-66.5 9v31h236z" />
    <glyph glyph-name="uring.sc" horiz-adv-x="682" 
d="M234 8q-46 19 -70 51t-24 70v257q0 38 -20 49.5t-57 11.5v31h241v-31q-30 0 -45 -3t-24.5 -15t-9.5 -40v-240q0 -51 30.5 -86.5t108.5 -35.5q77 0 109.5 37.5t32.5 87.5v189q0 43 -7.5 65t-29 32t-66.5 9v31h236v-31q-44 1 -64 -8t-25.5 -29.5t-5.5 -64.5v-203
q0 -53 -30.5 -87.5t-76.5 -50t-92 -15.5q-65 0 -111 19zM422 573q-32 -30 -82 -30q-52 0 -82.5 29.5t-30.5 76.5q0 46 32.5 76t80.5 30q50 0 82 -30t32 -76t-32 -76zM383.5 705.5q-15.5 21.5 -43.5 21.5q-27 0 -42.5 -20.5t-15.5 -57.5q0 -35 15 -56t43 -21t43.5 20.5
t15.5 56.5q0 35 -15.5 56.5z" />
    <glyph glyph-name="v.sc" horiz-adv-x="597" 
d="M524.5 436q-21.5 -12 -34.5 -38l-186 -404h-35l-162 414q-15 41 -84 39v31h239v-31q-14 1 -37 1q-17 0 -26 -3.5t-9 -12.5q0 -5 3 -13l125 -317l119 263q17 36 17 52q0 18 -19.5 24t-67.5 7v30h212v-30q-33 0 -54.5 -12z" />
    <glyph glyph-name="w.sc" horiz-adv-x="808" 
d="M714 395l-155 -401h-34l-121 353l-140 -353h-36l-139 414q-15 41 -79 39v31h235v-31l-40 1q-17 0 -25 -3.5t-8 -14.5q0 -3 2 -11l103 -304l110 274l-2 21q-7 24 -28 30.5t-63 6.5v31h241v-31l-37 1q-18 0 -27 -3.5t-9 -13.5q0 -4 3 -12l108 -301l89 244q15 43 15 57
q0 18 -17.5 23.5t-64.5 4.5v31h209v-31q-69 2 -90 -52z" />
    <glyph glyph-name="wacute.sc" horiz-adv-x="808" 
d="M714 395l-155 -401h-34l-121 353l-140 -353h-36l-139 414q-15 41 -79 39v31h235v-31l-40 1q-17 0 -25 -3.5t-8 -14.5q0 -3 2 -11l103 -304l110 274l-2 21q-7 24 -28 30.5t-63 6.5v31h241v-31l-37 1q-18 0 -27 -3.5t-9 -13.5q0 -4 3 -12l108 -301l89 244q15 43 15 57
q0 18 -17.5 23.5t-64.5 4.5v31h209v-31q-69 2 -90 -52zM330 561q71 110 92 152q13 24 26 33t32 9q16 0 27 -11t11 -25q0 -18 -7 -27.5t-27 -26.5l-36 -29q-15 -13 -40 -33t-65 -53z" />
    <glyph glyph-name="wcircumflex.sc" horiz-adv-x="808" 
d="M714 395l-155 -401h-34l-121 353l-140 -353h-36l-139 414q-15 41 -79 39v31h235v-31l-40 1q-17 0 -25 -3.5t-8 -14.5q0 -3 2 -11l103 -304l110 274l-2 21q-7 24 -28 30.5t-63 6.5v31h241v-31l-37 1q-18 0 -27 -3.5t-9 -13.5q0 -4 3 -12l108 -301l89 244q15 43 15 57
q0 18 -17.5 23.5t-64.5 4.5v31h209v-31q-69 2 -90 -52zM404 690l-132 -136l-19 12l110 172q13 21 42 21q28 0 40 -19l111 -174l-19 -12z" />
    <glyph glyph-name="wdieresis.sc" horiz-adv-x="808" 
d="M714 395l-155 -401h-34l-121 353l-140 -353h-36l-139 414q-15 41 -79 39v31h235v-31l-40 1q-17 0 -25 -3.5t-8 -14.5q0 -3 2 -11l103 -304l110 274l-2 21q-7 24 -28 30.5t-63 6.5v31h241v-31l-37 1q-18 0 -27 -3.5t-9 -13.5q0 -4 3 -12l108 -301l89 244q15 43 15 57
q0 18 -17.5 23.5t-64.5 4.5v31h209v-31q-69 2 -90 -52zM340.5 616q-16.5 -17 -40.5 -17q-22 0 -38 16t-16 38q0 23 16 39.5t38 16.5q24 0 40.5 -15.5t16.5 -36.5q0 -24 -16.5 -41zM547 616q-16 -17 -40 -17q-23 0 -39 16t-16 38q0 23 16.5 39.5t38.5 16.5q24 0 40 -15.5
t16 -36.5q0 -24 -16 -41z" />
    <glyph glyph-name="wgrave.sc" horiz-adv-x="808" 
d="M714 395l-155 -401h-34l-121 353l-140 -353h-36l-139 414q-15 41 -79 39v31h235v-31l-40 1q-17 0 -25 -3.5t-8 -14.5q0 -3 2 -11l103 -304l110 274l-2 21q-7 24 -28 30.5t-63 6.5v31h241v-31l-37 1q-18 0 -27 -3.5t-9 -13.5q0 -4 3 -12l108 -301l89 244q15 43 15 57
q0 18 -17.5 23.5t-64.5 4.5v31h209v-31q-69 2 -90 -52zM326 665q-20 16 -27 26t-7 28q0 14 11 25t27 11q19 0 31.5 -9t26.5 -33q48 -85 92 -152l-13 -11q-83 69 -141 115z" />
    <glyph glyph-name="x.sc" horiz-adv-x="658" 
d="M341 30q44 0 61.5 3t17.5 15q0 10 -14 28l-100 129l-97 -115q-28 -33 -28 -44q0 -9 16 -12.5t55 -3.5v-30h-217v30q42 0 67.5 10.5t50.5 39.5l132 150l-133 170q-25 31 -48 39.5t-67 8.5v30h285v-30q-49 0 -66.5 -2.5t-17.5 -14.5q0 -11 18 -35l86 -110l88 104
q24 27 24 40q0 10 -16.5 14t-52.5 4v30h216v-30q-42 0 -68 -10.5t-52 -39.5l-118 -136l144 -181q19 -24 34.5 -34.5t33 -13.5t49.5 -3v-30h-283v30z" />
    <glyph glyph-name="y.sc" horiz-adv-x="558" 
d="M496 438q-24 -11 -39 -33l-115 -171q-26 -42 -26 -80v-62q0 -40 22 -51t63 -10v-31h-256v31q33 -1 49 1t26 14.5t10 41.5v90q0 13 -4 25t-15 30l-99 163q-17 29 -40.5 40.5t-57.5 10.5v31h250v-31q-7 0 -26.5 0.5t-29.5 -3.5t-10 -15q0 -10 9 -27l96 -167l102 153
q17 25 17 37q0 13 -17.5 18t-56.5 4v31h198v-31q-26 2 -50 -9z" />
    <glyph glyph-name="yacute.sc" horiz-adv-x="558" 
d="M496 438q-24 -11 -39 -33l-115 -171q-26 -42 -26 -80v-62q0 -40 22 -51t63 -10v-31h-256v31q33 -1 49 1t26 14.5t10 41.5v90q0 13 -4 25t-15 30l-99 163q-17 29 -40.5 40.5t-57.5 10.5v31h250v-31q-7 0 -26.5 0.5t-29.5 -3.5t-10 -15q0 -10 9 -27l96 -167l102 153
q17 25 17 37q0 13 -17.5 18t-56.5 4v31h198v-31q-26 2 -50 -9zM204 561q71 110 92 152q13 24 26 33t32 9q16 0 27 -11t11 -25q0 -18 -7 -27.5t-27 -26.5l-36 -29q-15 -13 -40 -33t-65 -53z" />
    <glyph glyph-name="ycircumflex.sc" horiz-adv-x="558" 
d="M496 438q-24 -11 -39 -33l-115 -171q-26 -42 -26 -80v-62q0 -40 22 -51t63 -10v-31h-256v31q33 -1 49 1t26 14.5t10 41.5v90q0 13 -4 25t-15 30l-99 163q-17 29 -40.5 40.5t-57.5 10.5v31h250v-31q-7 0 -26.5 0.5t-29.5 -3.5t-10 -15q0 -10 9 -27l96 -167l102 153
q17 25 17 37q0 13 -17.5 18t-56.5 4v31h198v-31q-26 2 -50 -9zM278 690l-132 -136l-19 12l110 172q13 21 42 21q28 0 40 -19l111 -174l-19 -12z" />
    <glyph glyph-name="ydieresis.sc" horiz-adv-x="558" 
d="M496 438q-24 -11 -39 -33l-115 -171q-26 -42 -26 -80v-62q0 -40 22 -51t63 -10v-31h-256v31q33 -1 49 1t26 14.5t10 41.5v90q0 13 -4 25t-15 30l-99 163q-17 29 -40.5 40.5t-57.5 10.5v31h250v-31q-7 0 -26.5 0.5t-29.5 -3.5t-10 -15q0 -10 9 -27l96 -167l102 153
q17 25 17 37q0 13 -17.5 18t-56.5 4v31h198v-31q-26 2 -50 -9zM214.5 616q-16.5 -17 -40.5 -17q-22 0 -38 16t-16 38q0 23 16 39.5t38 16.5q24 0 40.5 -15.5t16.5 -36.5q0 -24 -16.5 -41zM421 616q-16 -17 -40 -17q-23 0 -39 16t-16 38q0 23 16.5 39.5t38.5 16.5
q24 0 40 -15.5t16 -36.5q0 -24 -16 -41z" />
    <glyph glyph-name="ygrave.sc" horiz-adv-x="558" 
d="M496 438q-24 -11 -39 -33l-115 -171q-26 -42 -26 -80v-62q0 -40 22 -51t63 -10v-31h-256v31q33 -1 49 1t26 14.5t10 41.5v90q0 13 -4 25t-15 30l-99 163q-17 29 -40.5 40.5t-57.5 10.5v31h250v-31q-7 0 -26.5 0.5t-29.5 -3.5t-10 -15q0 -10 9 -27l96 -167l102 153
q17 25 17 37q0 13 -17.5 18t-56.5 4v31h198v-31q-26 2 -50 -9zM200 665q-20 16 -27 26t-7 28q0 14 11 25t27 11q19 0 31.5 -9t26.5 -33q48 -85 92 -152l-13 -11q-83 69 -141 115z" />
    <glyph glyph-name="z.sc" horiz-adv-x="555" 
d="M41 0v11l350 437h-128q-68 0 -102.5 -22.5t-62.5 -83.5h-26l16 136h413v-11l-350 -437h145q58 0 91 9.5t54.5 34.5t43.5 77h26l-17 -151h-453z" />
    <glyph glyph-name="zacute.sc" horiz-adv-x="555" 
d="M41 0v11l350 437h-128q-68 0 -102.5 -22.5t-62.5 -83.5h-26l16 136h413v-11l-350 -437h145q58 0 91 9.5t54.5 34.5t43.5 77h26l-17 -151h-453zM203 561q71 110 92 152q13 24 26 33t32 9q16 0 27 -11t11 -25q0 -18 -7 -27.5t-27 -26.5l-36 -29q-15 -13 -40 -33t-65 -53z
" />
    <glyph glyph-name="zcaron.sc" horiz-adv-x="555" 
d="M41 0v11l350 437h-128q-68 0 -102.5 -22.5t-62.5 -83.5h-26l16 136h413v-11l-350 -437h145q58 0 91 9.5t54.5 34.5t43.5 77h26l-17 -151h-453zM318 577q-9 -15 -15 -18.5t-26 -3.5t-25.5 3t-14.5 17q-5 7 -40 62q-34 56 -71 111l19 12l134 -136l132 136l17 -12z" />
    <glyph glyph-name="zdotaccent.sc" horiz-adv-x="555" 
d="M41 0v11l350 437h-128q-68 0 -102.5 -22.5t-62.5 -83.5h-26l16 136h413v-11l-350 -437h145q58 0 91 9.5t54.5 34.5t43.5 77h26l-17 -151h-453zM316.5 636.5q-16.5 -17.5 -39.5 -17.5t-39 16t-16 38q0 23 16.5 39.5t38.5 16.5q24 0 40 -15.5t16 -36.5q0 -23 -16.5 -40.5z
" />
    <glyph glyph-name="zero.dnom" horiz-adv-x="479" 
d="M413.5 92q-28.5 -49 -75.5 -75.5t-102 -26.5q-63 0 -108 26.5t-68 71.5t-23 99q0 65 28.5 114t75.5 75t102 26q62 0 107 -26t68.5 -71t23.5 -100q0 -64 -28.5 -113zM318.5 329.5q-28.5 48.5 -77.5 48.5q-51 0 -80 -48.5t-29 -133.5t28 -133t78 -48t79.5 48.5t29.5 133.5
q0 84 -28.5 132.5z" />
    <glyph glyph-name="one.dnom" horiz-adv-x="330" 
d="M52 22q47 2 66.5 8t19.5 29v254h-86v33h26q37 0 62.5 15t44.5 40h38v-338q0 -23 20.5 -31t58.5 -10v-22h-250v22z" />
    <glyph glyph-name="two.dnom" horiz-adv-x="437" 
d="M36 0l1 36q78 43 114 66t68 52q38 33 50 64t12 65q0 49 -21.5 71.5t-58.5 22.5q-31 0 -50 -12.5t-21 -32.5v-39q0 -24 -12.5 -37.5t-35.5 -13.5t-35.5 13t-12.5 36q0 24 20.5 49.5t61 43.5t98.5 18q70 0 115 -32.5t45 -89.5q0 -39 -21 -71t-70 -64t-135 -70l-14 -11h178
q26 0 42 17t33 48l22 -7l-47 -122h-326z" />
    <glyph glyph-name="three.dnom" horiz-adv-x="435" 
d="M366.5 46q-29.5 -31 -78 -47t-105.5 -16q-71 0 -116 23t-45 65q0 27 16.5 42t41.5 15q20 0 31 -10.5t11 -29.5v-41q0 -3 -1 -14.5t10 -18.5t35 -7q57 0 97.5 34t40.5 87q0 34 -19.5 49.5t-64.5 15.5h-41v24q112 16 112 96q0 32 -19.5 48.5t-56.5 16.5q-31 0 -46.5 -9.5
t-13.5 -19.5v-44q0 -42 -44 -42q-24 0 -35.5 12.5t-11.5 31.5q0 25 20.5 46.5t59 35t91.5 13.5q75 0 111 -26.5t36 -62.5q0 -38 -35.5 -60t-107.5 -39h21q55 0 95.5 -22t40.5 -74q0 -41 -29.5 -72z" />
    <glyph glyph-name="four.dnom" horiz-adv-x="448" 
d="M146 22q43 3 52 6q23 6 23 30v73h-203v35l239 242h47v-244h64v-33h-64v-70q0 -23 21 -30q14 -6 53 -9v-22h-232v22zM221 164v166l-163 -166h163z" />
    <glyph glyph-name="five.dnom" horiz-adv-x="408" 
d="M65 12q-40 21 -40 58q0 23 13 35t32 12q38 0 38 -44v-23q0 -18 16 -27.5t40 -9.5q57 0 83.5 36.5t26.5 88.5q0 47 -25.5 66t-59.5 19q-33 0 -60 -12t-38 -35l-31 5l59 220h251q-9 -30 -35.5 -48.5t-60.5 -18.5h-141l-32 -110q17 11 45.5 17.5t58.5 6.5q67 0 113.5 -32
t46.5 -89q0 -63 -57 -99.5t-140 -36.5q-63 0 -103 21z" />
    <glyph glyph-name="six.dnom" horiz-adv-x="442" 
d="M91 40.5q-48 50.5 -48 137.5q0 76 37.5 139.5t98.5 100.5t129 37q54 0 79 -23t25 -49q0 -18 -12 -29t-32 -11q-19 0 -33.5 10.5t-14.5 28.5v19q0 13 -11 19t-27 6q-55 0 -94.5 -53.5t-53.5 -143.5l2 -1q44 51 119 51q65 0 105.5 -38.5t40.5 -97.5q0 -41 -21 -76t-61 -56
t-96 -21q-84 0 -132 50.5zM287.5 50.5q19.5 36.5 19.5 87.5q0 50 -22 77t-62 27q-42 0 -68 -29t-26 -82q0 -55 26 -86t66 -31q47 0 66.5 36.5z" />
    <glyph glyph-name="seven.dnom" horiz-adv-x="389" 
d="M263.5 181q-43.5 -93 -43.5 -182q0 -28 -12.5 -47.5t-37.5 -19.5t-37 13t-12 42q0 51 41.5 118.5t124.5 178.5l38 50h-188q-35 0 -55 -20t-34 -56l-22 3l47 176h22l6 -36h297v-17q-91 -110 -134.5 -203z" />
    <glyph glyph-name="eight.dnom" horiz-adv-x="435" 
d="M87.5 17q-44.5 28 -44.5 71q0 32 26.5 60t66.5 45q-38 17 -57.5 38.5t-19.5 52.5q0 35 23 63t62.5 43.5t84.5 15.5q61 0 102 -25.5t41 -65.5q0 -29 -21.5 -52.5t-55.5 -38.5q44 -18 70.5 -41.5t26.5 -62.5t-27 -69t-70.5 -46t-93.5 -16q-69 0 -113.5 28zM304 265.5
q11 20.5 11 43.5q0 34 -24 53t-67 19q-45 0 -71 -17t-26 -46q0 -22 18 -36.5t63 -28.5l59 -19q26 11 37 31.5zM289.5 34.5q32.5 19.5 32.5 52.5q0 27 -25.5 44.5t-88.5 36.5l-46 14q-25 -13 -40.5 -37.5t-15.5 -50.5q0 -37 27 -58t76 -21q48 0 80.5 19.5z" />
    <glyph glyph-name="nine.dnom" horiz-adv-x="442" 
d="M365 72q-34 -64 -95 -102t-140 -38q-52 0 -81 20t-29 47q0 20 12 32t34 12q20 0 32.5 -12t12.5 -33v-12q0 -15 14.5 -20.5t34.5 -5.5q59 0 100 59t50 146h-4q-43 -51 -124 -51q-58 0 -99 36.5t-41 99.5q0 37 19.5 72t60.5 57.5t100 22.5q47 0 87 -20.5t65 -63.5t25 -108
q0 -74 -34 -138zM286 347q-27 31 -65 31q-50 0 -68 -33t-18 -86q0 -55 20.5 -81.5t64.5 -26.5q35 0 64 28t29 82q0 55 -27 86z" />
    <glyph glyph-name="zero.numr" horiz-adv-x="479" 
d="M413.5 308q-28.5 -49 -75.5 -75.5t-102 -26.5q-63 0 -108 26.5t-68 71.5t-23 99q0 65 28.5 114t75.5 75t102 26q62 0 107 -26t68.5 -71t23.5 -100q0 -64 -28.5 -113zM318.5 545.5q-28.5 48.5 -77.5 48.5q-51 0 -80 -48.5t-29 -133.5t28 -133t78 -48t79.5 48.5t29.5 133.5
q0 84 -28.5 132.5z" />
    <glyph glyph-name="one.numr" horiz-adv-x="330" 
d="M52 238q47 2 66.5 8t19.5 29v254h-86v33h26q37 0 62.5 15t44.5 40h38v-338q0 -23 20.5 -31t58.5 -10v-22h-250v22z" />
    <glyph glyph-name="two.numr" horiz-adv-x="437" 
d="M36 216l1 36q78 43 114 66t68 52q38 33 50 64t12 65q0 49 -21.5 71.5t-58.5 22.5q-31 0 -50 -12.5t-21 -32.5v-39q0 -24 -12.5 -37.5t-35.5 -13.5t-35.5 13t-12.5 36q0 24 20.5 49.5t61 43.5t98.5 18q70 0 115 -32.5t45 -89.5q0 -39 -21 -71t-70 -64t-135 -70l-14 -11
h178q26 0 42 17t33 48l22 -7l-47 -122h-326z" />
    <glyph glyph-name="three.numr" horiz-adv-x="435" 
d="M366.5 262q-29.5 -31 -78 -47t-105.5 -16q-71 0 -116 23t-45 65q0 27 16.5 42t41.5 15q20 0 31 -10.5t11 -29.5v-41q0 -3 -1 -14.5t10 -18.5t35 -7q57 0 97.5 34t40.5 87q0 34 -19.5 49.5t-64.5 15.5h-41v24q112 16 112 96q0 32 -19.5 48.5t-56.5 16.5q-31 0 -46.5 -9.5
t-13.5 -19.5v-44q0 -42 -44 -42q-24 0 -35.5 12.5t-11.5 31.5q0 25 20.5 46.5t59 35t91.5 13.5q75 0 111 -26.5t36 -62.5q0 -38 -35.5 -60t-107.5 -39h21q55 0 95.5 -22t40.5 -74q0 -41 -29.5 -72z" />
    <glyph glyph-name="four.numr" horiz-adv-x="448" 
d="M146 238q43 3 52 6q23 6 23 30v73h-203v35l239 242h47v-244h64v-33h-64v-70q0 -23 21 -30q14 -6 53 -9v-22h-232v22zM221 380v166l-163 -166h163z" />
    <glyph glyph-name="five.numr" horiz-adv-x="408" 
d="M65 228q-40 21 -40 58q0 23 13 35t32 12q38 0 38 -44v-23q0 -18 16 -27.5t40 -9.5q57 0 83.5 36.5t26.5 88.5q0 47 -25.5 66t-59.5 19q-33 0 -60 -12t-38 -35l-31 5l59 220h251q-9 -30 -35.5 -48.5t-60.5 -18.5h-141l-32 -110q17 11 45.5 17.5t58.5 6.5q67 0 113.5 -32
t46.5 -89q0 -63 -57 -99.5t-140 -36.5q-63 0 -103 21z" />
    <glyph glyph-name="six.numr" horiz-adv-x="442" 
d="M91 256.5q-48 50.5 -48 137.5q0 76 37.5 139.5t98.5 100.5t129 37q54 0 79 -23t25 -49q0 -18 -12 -29t-32 -11q-19 0 -33.5 10.5t-14.5 28.5v19q0 13 -11 19t-27 6q-55 0 -94.5 -53.5t-53.5 -143.5l2 -1q44 51 119 51q65 0 105.5 -38.5t40.5 -97.5q0 -41 -21 -76t-61 -56
t-96 -21q-84 0 -132 50.5zM287.5 266.5q19.5 36.5 19.5 87.5q0 50 -22 77t-62 27q-42 0 -68 -29t-26 -82q0 -55 26 -86t66 -31q47 0 66.5 36.5z" />
    <glyph glyph-name="seven.numr" horiz-adv-x="389" 
d="M263.5 397q-43.5 -93 -43.5 -182q0 -28 -12.5 -47.5t-37.5 -19.5t-37 13t-12 42q0 51 41.5 118.5t124.5 178.5l38 50h-188q-35 0 -55 -20t-34 -56l-22 3l47 176h22l6 -36h297v-17q-91 -110 -134.5 -203z" />
    <glyph glyph-name="eight.numr" horiz-adv-x="435" 
d="M87.5 233q-44.5 28 -44.5 71q0 32 26.5 60t66.5 45q-38 17 -57.5 38.5t-19.5 52.5q0 35 23 63t62.5 43.5t84.5 15.5q61 0 102 -25.5t41 -65.5q0 -29 -21.5 -52.5t-55.5 -38.5q44 -18 70.5 -41.5t26.5 -62.5t-27 -69t-70.5 -46t-93.5 -16q-69 0 -113.5 28zM304 481.5
q11 20.5 11 43.5q0 34 -24 53t-67 19q-45 0 -71 -17t-26 -46q0 -22 18 -36.5t63 -28.5l59 -19q26 11 37 31.5zM289.5 250.5q32.5 19.5 32.5 52.5q0 27 -25.5 44.5t-88.5 36.5l-46 14q-25 -13 -40.5 -37.5t-15.5 -50.5q0 -37 27 -58t76 -21q48 0 80.5 19.5z" />
    <glyph glyph-name="nine.numr" horiz-adv-x="442" 
d="M365 288q-34 -64 -95 -102t-140 -38q-52 0 -81 20t-29 47q0 20 12 32t34 12q20 0 32.5 -12t12.5 -33v-12q0 -15 14.5 -20.5t34.5 -5.5q59 0 100 59t50 146h-4q-43 -51 -124 -51q-58 0 -99 36.5t-41 99.5q0 37 19.5 72t60.5 57.5t100 22.5q47 0 87 -20.5t65 -63.5t25 -108
q0 -74 -34 -138zM286 563q-27 31 -65 31q-50 0 -68 -33t-18 -86q0 -55 20.5 -81.5t64.5 -26.5q35 0 64 28t29 82q0 55 -27 86z" />
    <glyph glyph-name="zero.sc" horiz-adv-x="575" 
d="M494 142q-34 -75 -90 -115.5t-121 -40.5q-74 0 -127.5 41t-81 109.5t-27.5 151.5q0 99 34 174t90.5 115.5t120.5 40.5q74 0 127 -40.5t81 -109.5t28 -152q0 -99 -34 -174zM412.5 450q-17.5 63 -49.5 97.5t-74 34.5q-43 0 -75.5 -35t-50.5 -98.5t-18 -147.5t17.5 -147
t49 -97.5t73.5 -34.5q44 0 76.5 35t50.5 98.5t18 147.5t-17.5 147z" />
    <glyph glyph-name="one.sc" horiz-adv-x="397" 
d="M71 33q41 2 59 5t31.5 14t13.5 36v409h-104v45h30q79 0 126 75h34v-524q0 -33 25 -45t73 -15v-33h-288v33z" />
    <glyph glyph-name="two.sc" horiz-adv-x="526" 
d="M45 0l-1 28q100 79 145 119t83 87q80 99 80 189q0 158 -104 158q-43 0 -68 -27t-24 -65v-45q0 -32 -14 -49t-41 -17q-26 0 -39.5 17.5t-13.5 50.5q0 30 25 71t73.5 71t114.5 30q83 0 134.5 -48.5t51.5 -142.5q0 -57 -39 -125.5t-107.5 -128.5t-150.5 -92v-8h220
q22 0 38 14.5t24.5 31t25.5 53.5l26 -10l-54 -162h-385z" />
    <glyph glyph-name="three.sc" horiz-adv-x="529" 
d="M438 74.5q-34 -48.5 -91 -74.5t-124 -26q-54 0 -98 17.5t-69 49.5t-25 73q0 37 19.5 57.5t49.5 20.5q22 0 34.5 -12t12.5 -31v-74l-1 -21q0 -19 11.5 -31t44.5 -12q46 0 86.5 23.5t65 66t24.5 97.5q0 54 -26 78.5t-85 24.5h-43v36q40 -3 71.5 16t49 54t17.5 78
q0 45 -25.5 71t-73.5 26q-31 0 -49 -11t-25 -25.5t-4 -22.5v-56q0 -19 -9.5 -36.5t-39.5 -17.5q-28 0 -40.5 18.5t-12.5 39.5q0 31 23 65.5t68.5 58t108.5 23.5q62 0 100.5 -23t55 -55t16.5 -60q0 -45 -41 -87t-123 -65h27q64 0 109 -32t45 -108q0 -65 -34 -113.5z" />
    <glyph glyph-name="four.sc" horiz-adv-x="533" 
d="M181 33q6 0 30.5 1t33.5 5q26 9 26 45v122h-248v46l295 375h36v-377h79v-44h-79v-115q0 -36 26 -48q15 -7 64 -10v-33h-263v33zM271 250v257l-201 -257h201z" />
    <glyph glyph-name="five.sc" horiz-adv-x="488" 
d="M114.5 2.5q-38.5 16.5 -60 44.5t-21.5 62q0 30 15.5 42.5t34.5 12.5q20 0 30.5 -14.5t10.5 -48.5v-33q0 -25 20.5 -36.5t49.5 -11.5q56 0 88.5 38t45 87.5t12.5 89.5q0 111 -103 111q-44 0 -77 -19t-44 -56l-38 8l73 338h288q-9 -36 -38 -58.5t-67 -22.5h-164l-44 -192
q21 17 55 27.5t66 10.5q47 0 90 -24t69.5 -67t26.5 -99q0 -62 -32.5 -108.5t-86 -72t-112.5 -25.5q-49 0 -87.5 16.5z" />
    <glyph glyph-name="six.sc" horiz-adv-x="530" 
d="M111 62.5q-56 76.5 -56 204.5q0 118 46.5 217.5t121.5 157.5t156 58q42 0 68 -15.5t37.5 -38t11.5 -42.5q0 -23 -13 -37.5t-34 -14.5q-19 0 -35 12.5t-16 34.5v19q0 38 -49 38q-74 0 -127.5 -80t-71.5 -229l3 -2q27 38 65 57.5t80 19.5q53 0 94 -27.5t63 -74.5t22 -102
q0 -58 -24 -111t-71.5 -87t-114.5 -34q-100 0 -156 76.5zM354 82q26 63 26 135q0 76 -29 118t-82 42q-55 0 -90 -46.5t-35 -130.5q0 -57 16.5 -98t43.5 -62t60 -21q64 0 90 63z" />
    <glyph glyph-name="seven.sc" horiz-adv-x="476" 
d="M362 381q-47 -93 -74.5 -194t-27.5 -213q0 -30 -14.5 -54t-38.5 -24q-29 0 -42 18t-13 62q0 49 22 110.5t54 124t89 164.5q72 132 87 161h-247q-59 0 -94 -118l-29 5l56 250h27l8 -56h362v-16q-78 -127 -125 -220z" />
    <glyph glyph-name="eight.sc" horiz-adv-x="523" 
d="M146 6q-42 20 -65.5 54.5t-23.5 75.5q0 51 33 101.5t81 72.5q-46 23 -69.5 51t-23.5 81q0 56 28 97.5t73 63t96 21.5q48 0 86.5 -18.5t60.5 -51t22 -72.5q0 -46 -28 -87t-69 -64q119 -41 119 -154q0 -59 -32.5 -102t-84.5 -66t-108 -23q-53 0 -95 20zM368.5 403
q16.5 40 16.5 79q0 53 -30 79.5t-81 26.5q-56 0 -88.5 -28.5t-32.5 -79.5q0 -33 18 -55.5t74 -46.5l68 -30q39 15 55.5 55zM345 53q41 31 41 90q0 47 -33 79.5t-112 59.5l-36 13q-35 -19 -58 -63.5t-23 -91.5q0 -52 31 -85t91 -33q58 0 99 31z" />
    <glyph glyph-name="nine.sc" horiz-adv-x="529" 
d="M433 115q-39 -98 -113.5 -158.5t-173.5 -60.5q-39 0 -67 16t-42.5 38.5t-14.5 42.5q0 26 13.5 42t36.5 16t36 -15t13 -40v-16q0 -42 63 -42q53 0 95.5 43.5t69 117.5t33.5 164l-6 1q-62 -82 -153 -82q-44 0 -83 24t-63 71t-24 111q0 57 24.5 110t72 86.5t113.5 33.5
q88 0 148.5 -67t60.5 -228q0 -110 -39 -208zM368 498q-18 43 -46.5 65t-59.5 22q-113 0 -113 -175q0 -90 27.5 -133.5t86.5 -43.5q27 0 55 15.5t48 51.5t20 95q0 60 -18 103z" />
    <glyph glyph-name="ampersand.sc" horiz-adv-x="622" 
d="M77 20q-46 31 -46 88q0 44 32.5 79.5t105.5 73.5q-32 42 -45 67.5t-13 49.5q0 49 42.5 79.5t100.5 30.5q54 0 83.5 -25.5t29.5 -65.5q0 -65 -107 -120l132 -147q28 32 47 66t19 52q0 12 -13.5 17.5t-56.5 13.5v23h238v-23q-49 -4 -72 -8.5t-37 -17.5t-38 -52
q-40 -62 -67 -91q45 -49 84 -66.5t109 -19.5v-24h-198l-55 56q-40 -34 -79 -50.5t-88 -16.5q-62 0 -108 31zM318 393q0 31 -18 48.5t-47 17.5q-34 0 -47 -18t-13 -40q0 -41 52 -104q73 39 73 96zM334 74l-149 169q-35 -18 -51 -45t-16 -56q0 -47 31.5 -75t82.5 -28
q63 0 102 35z" />
    <glyph glyph-name="HT" 
 />
    <glyph glyph-name="NUL" 
 />
    </font>
</defs>
</svg>
